<?xml version="1.0" encoding="UTF-8" standalone="no"?>
<!-- Created with Inkscape (http://www.inkscape.org/) -->

<svg
   version="1.1"
   id="svg2"
   xml:space="preserve"
   width="793.33331"
   height="1122.6667"
   viewBox="0 0 793.33331 1122.6667"
   sodipodi:docname="acc.svg"
   inkscape:version="1.1.1 (3bf5ae0d25, 2021-09-20)"
   xmlns:inkscape="http://www.inkscape.org/namespaces/inkscape"
   xmlns:sodipodi="http://sodipodi.sourceforge.net/DTD/sodipodi-0.dtd"
   xmlns="http://www.w3.org/2000/svg"
   xmlns:svg="http://www.w3.org/2000/svg"><defs
     id="defs6"><clipPath
       clipPathUnits="userSpaceOnUse"
       id="clipPath18"><path
         d="M 0,0 H 685.99997 V 349 H 0 Z"
         id="path16" /></clipPath></defs><sodipodi:namedview
     id="namedview4"
     pagecolor="#ffffff"
     bordercolor="#666666"
     borderopacity="1.0"
     inkscape:pageshadow="2"
     inkscape:pageopacity="0.0"
     inkscape:pagecheckerboard="0"
     showgrid="false"
     inkscape:zoom="1.5552255"
     inkscape:cx="55.940439"
     inkscape:cy="564.22685"
     inkscape:window-width="3440"
     inkscape:window-height="1369"
     inkscape:window-x="-8"
     inkscape:window-y="-8"
     inkscape:window-maximized="1"
     inkscape:current-layer="g10" /><g
     id="g8"
     inkscape:groupmode="layer"
     inkscape:label="acc"
     transform="matrix(1.3333333,0,0,-1.3333333,0,1122.6667)"><g
       id="g10"
       transform="matrix(0.125,0,0,-0.125,0,842)"><g
         id="g30"
         transform="matrix(6,0,0,6,323.1022,2320.5591)"><path
           d="M 89,311 H 621"
           style="fill:none;stroke:#262626;stroke-width:0.666667;stroke-linecap:square;stroke-linejoin:round;stroke-miterlimit:10;stroke-dasharray:none;stroke-opacity:1"
           id="path32" /></g><g
         id="g34"
         transform="matrix(6,0,0,6,323.1022,2320.5591)"><path
           d="M 89,26 H 621"
           style="fill:none;stroke:#262626;stroke-width:0.666667;stroke-linecap:square;stroke-linejoin:round;stroke-miterlimit:10;stroke-dasharray:none;stroke-opacity:1"
           id="path36" /></g><g
         id="g38"
         transform="matrix(6,0,0,6,323.1022,2320.5591)"><path
           d="m 89,311 v -5.32001"
           style="fill:none;stroke:#262626;stroke-width:0.666667;stroke-linecap:square;stroke-linejoin:round;stroke-miterlimit:10;stroke-dasharray:none;stroke-opacity:1"
           id="path40" /></g><g
         id="g42"
         transform="matrix(6,0,0,6,323.1022,2320.5591)"><path
           d="m 148.11111,311 v -5.32001"
           style="fill:none;stroke:#262626;stroke-width:0.666667;stroke-linecap:square;stroke-linejoin:round;stroke-miterlimit:10;stroke-dasharray:none;stroke-opacity:1"
           id="path44" /></g><g
         id="g46"
         transform="matrix(6,0,0,6,323.1022,2320.5591)"><path
           d="m 207.22223,311 v -5.32001"
           style="fill:none;stroke:#262626;stroke-width:0.666667;stroke-linecap:square;stroke-linejoin:round;stroke-miterlimit:10;stroke-dasharray:none;stroke-opacity:1"
           id="path48" /></g><g
         id="g50"
         transform="matrix(6,0,0,6,323.1022,2320.5591)"><path
           d="m 266.33334,311 v -5.32001"
           style="fill:none;stroke:#262626;stroke-width:0.666667;stroke-linecap:square;stroke-linejoin:round;stroke-miterlimit:10;stroke-dasharray:none;stroke-opacity:1"
           id="path52" /></g><g
         id="g54"
         transform="matrix(6,0,0,6,323.1022,2320.5591)"><path
           d="m 325.44446,311 v -5.32001"
           style="fill:none;stroke:#262626;stroke-width:0.666667;stroke-linecap:square;stroke-linejoin:round;stroke-miterlimit:10;stroke-dasharray:none;stroke-opacity:1"
           id="path56" /></g><g
         id="g58"
         transform="matrix(6,0,0,6,323.1022,2320.5591)"><path
           d="m 384.55554,311 v -5.32001"
           style="fill:none;stroke:#262626;stroke-width:0.666667;stroke-linecap:square;stroke-linejoin:round;stroke-miterlimit:10;stroke-dasharray:none;stroke-opacity:1"
           id="path60" /></g><g
         id="g62"
         transform="matrix(6,0,0,6,323.1022,2320.5591)"><path
           d="m 443.66666,311 v -5.32001"
           style="fill:none;stroke:#262626;stroke-width:0.666667;stroke-linecap:square;stroke-linejoin:round;stroke-miterlimit:10;stroke-dasharray:none;stroke-opacity:1"
           id="path64" /></g><g
         id="g66"
         transform="matrix(6,0,0,6,323.1022,2320.5591)"><path
           d="m 502.77777,311 v -5.32001"
           style="fill:none;stroke:#262626;stroke-width:0.666667;stroke-linecap:square;stroke-linejoin:round;stroke-miterlimit:10;stroke-dasharray:none;stroke-opacity:1"
           id="path68" /></g><g
         id="g70"
         transform="matrix(6,0,0,6,323.1022,2320.5591)"><path
           d="m 561.88892,311 v -5.32001"
           style="fill:none;stroke:#262626;stroke-width:0.666667;stroke-linecap:square;stroke-linejoin:round;stroke-miterlimit:10;stroke-dasharray:none;stroke-opacity:1"
           id="path72" /></g><g
         id="g74"
         transform="matrix(6,0,0,6,323.1022,2320.5591)"><path
           d="m 621,311 v -5.32001"
           style="fill:none;stroke:#262626;stroke-width:0.666667;stroke-linecap:square;stroke-linejoin:round;stroke-miterlimit:10;stroke-dasharray:none;stroke-opacity:1"
           id="path76" /></g><g
         id="g78"
         transform="matrix(6,0,0,6,323.1022,2320.5591)"><path
           d="m 89,26 v 5.319994"
           style="fill:none;stroke:#262626;stroke-width:0.666667;stroke-linecap:square;stroke-linejoin:round;stroke-miterlimit:10;stroke-dasharray:none;stroke-opacity:1"
           id="path80" /></g><g
         id="g82"
         transform="matrix(6,0,0,6,323.1022,2320.5591)"><path
           d="m 148.11111,26 v 5.319994"
           style="fill:none;stroke:#262626;stroke-width:0.666667;stroke-linecap:square;stroke-linejoin:round;stroke-miterlimit:10;stroke-dasharray:none;stroke-opacity:1"
           id="path84" /></g><g
         id="g86"
         transform="matrix(6,0,0,6,323.1022,2320.5591)"><path
           d="m 207.22223,26 v 5.319994"
           style="fill:none;stroke:#262626;stroke-width:0.666667;stroke-linecap:square;stroke-linejoin:round;stroke-miterlimit:10;stroke-dasharray:none;stroke-opacity:1"
           id="path88" /></g><g
         id="g90"
         transform="matrix(6,0,0,6,323.1022,2320.5591)"><path
           d="m 266.33334,26 v 5.319994"
           style="fill:none;stroke:#262626;stroke-width:0.666667;stroke-linecap:square;stroke-linejoin:round;stroke-miterlimit:10;stroke-dasharray:none;stroke-opacity:1"
           id="path92" /></g><g
         id="g94"
         transform="matrix(6,0,0,6,323.1022,2320.5591)"><path
           d="m 325.44446,26 v 5.319994"
           style="fill:none;stroke:#262626;stroke-width:0.666667;stroke-linecap:square;stroke-linejoin:round;stroke-miterlimit:10;stroke-dasharray:none;stroke-opacity:1"
           id="path96" /></g><g
         id="g98"
         transform="matrix(6,0,0,6,323.1022,2320.5591)"><path
           d="m 384.55554,26 v 5.319994"
           style="fill:none;stroke:#262626;stroke-width:0.666667;stroke-linecap:square;stroke-linejoin:round;stroke-miterlimit:10;stroke-dasharray:none;stroke-opacity:1"
           id="path100" /></g><g
         id="g102"
         transform="matrix(6,0,0,6,323.1022,2320.5591)"><path
           d="m 443.66666,26 v 5.319994"
           style="fill:none;stroke:#262626;stroke-width:0.666667;stroke-linecap:square;stroke-linejoin:round;stroke-miterlimit:10;stroke-dasharray:none;stroke-opacity:1"
           id="path104" /></g><g
         id="g106"
         transform="matrix(6,0,0,6,323.1022,2320.5591)"><path
           d="m 502.77777,26 v 5.319994"
           style="fill:none;stroke:#262626;stroke-width:0.666667;stroke-linecap:square;stroke-linejoin:round;stroke-miterlimit:10;stroke-dasharray:none;stroke-opacity:1"
           id="path108" /></g><g
         id="g110"
         transform="matrix(6,0,0,6,323.1022,2320.5591)"><path
           d="m 561.88892,26 v 5.319994"
           style="fill:none;stroke:#262626;stroke-width:0.666667;stroke-linecap:square;stroke-linejoin:round;stroke-miterlimit:10;stroke-dasharray:none;stroke-opacity:1"
           id="path112" /></g><g
         id="g114"
         transform="matrix(6,0,0,6,323.1022,2320.5591)"><path
           d="m 621,26 v 5.319994"
           style="fill:none;stroke:#262626;stroke-width:0.666667;stroke-linecap:square;stroke-linejoin:round;stroke-miterlimit:10;stroke-dasharray:none;stroke-opacity:1"
           id="path116" /></g><g
         id="g118"
         transform="translate(7.7159229,-30.863691)"><g
           id="g120"
           transform="matrix(6,0,0,6,857.1022,4218.5591)"><text
             transform="translate(-4,14)"
             style="font-variant:normal;font-weight:normal;font-size:13.333px;font-family:Helvetica;-inkscape-font-specification:Helvetica;writing-mode:lr-tb;fill:#262626;fill-opacity:1;fill-rule:nonzero;stroke:none"
             id="text124"><tspan
               x="0"
               y="0"
               id="tspan122">0</tspan></text></g></g><g
         id="g126"
         transform="translate(7.7159229,-30.863691)"><g
           id="g128"
           transform="matrix(6,0,0,6,1211.7689,4218.5591)"><text
             transform="translate(-11.5,14)"
             style="font-variant:normal;font-weight:normal;font-size:13.333px;font-family:Helvetica;-inkscape-font-specification:Helvetica;writing-mode:lr-tb;fill:#262626;fill-opacity:1;fill-rule:nonzero;stroke:none"
             id="text132"><tspan
               x="0 7.4131479 14.826296"
               y="0"
               sodipodi:role="line"
               id="tspan130">100</tspan></text></g></g><g
         id="g134"
         transform="translate(7.7159229,-30.863691)"><g
           id="g136"
           transform="matrix(6,0,0,6,1566.4356,4218.5591)"><text
             transform="translate(-11.5,14)"
             style="font-variant:normal;font-weight:normal;font-size:13.333px;font-family:Helvetica;-inkscape-font-specification:Helvetica;writing-mode:lr-tb;fill:#262626;fill-opacity:1;fill-rule:nonzero;stroke:none"
             id="text140"><tspan
               x="0 7.4131479 14.826296"
               y="0"
               sodipodi:role="line"
               id="tspan138">200</tspan></text></g></g><g
         id="g142"
         transform="translate(7.7159229,-30.863691)"><g
           id="g144"
           transform="matrix(6,0,0,6,1921.1023,4218.5591)"><text
             transform="translate(-11.5,14)"
             style="font-variant:normal;font-weight:normal;font-size:13.333px;font-family:Helvetica;-inkscape-font-specification:Helvetica;writing-mode:lr-tb;fill:#262626;fill-opacity:1;fill-rule:nonzero;stroke:none"
             id="text148"><tspan
               x="0 7.4131479 14.826296"
               y="0"
               sodipodi:role="line"
               id="tspan146">300</tspan></text></g></g><g
         id="g150"
         transform="translate(7.7159229,-30.863691)"><g
           id="g152"
           transform="matrix(6,0,0,6,2275.769,4218.5591)"><text
             transform="translate(-11.5,14)"
             style="font-variant:normal;font-weight:normal;font-size:13.333px;font-family:Helvetica;-inkscape-font-specification:Helvetica;writing-mode:lr-tb;fill:#262626;fill-opacity:1;fill-rule:nonzero;stroke:none"
             id="text156"><tspan
               x="0 7.4131479 14.826296"
               y="0"
               sodipodi:role="line"
               id="tspan154">400</tspan></text></g></g><g
         id="g158"
         transform="translate(7.7159229,-30.863691)"><g
           id="g160"
           transform="matrix(6,0,0,6,2630.4355,4218.5591)"><text
             transform="translate(-11.5,14)"
             style="font-variant:normal;font-weight:normal;font-size:13.333px;font-family:Helvetica;-inkscape-font-specification:Helvetica;writing-mode:lr-tb;fill:#262626;fill-opacity:1;fill-rule:nonzero;stroke:none"
             id="text164"><tspan
               x="0 7.4131479 14.826296"
               y="0"
               sodipodi:role="line"
               id="tspan162">500</tspan></text></g></g><g
         id="g166"
         transform="translate(7.7159229,-30.863691)"><g
           id="g168"
           transform="matrix(6,0,0,6,2985.1021,4218.5591)"><text
             transform="translate(-11.5,14)"
             style="font-variant:normal;font-weight:normal;font-size:13.333px;font-family:Helvetica;-inkscape-font-specification:Helvetica;writing-mode:lr-tb;fill:#262626;fill-opacity:1;fill-rule:nonzero;stroke:none"
             id="text172"><tspan
               x="0 7.4131479 14.826296"
               y="0"
               sodipodi:role="line"
               id="tspan170">600</tspan></text></g></g><g
         id="g174"
         transform="translate(7.7159229,-30.863691)"><g
           id="g176"
           transform="matrix(6,0,0,6,3339.7688,4218.5591)"><text
             transform="translate(-11.5,14)"
             style="font-variant:normal;font-weight:normal;font-size:13.333px;font-family:Helvetica;-inkscape-font-specification:Helvetica;writing-mode:lr-tb;fill:#262626;fill-opacity:1;fill-rule:nonzero;stroke:none"
             id="text180"><tspan
               x="0 7.4131479 14.826296"
               y="0"
               sodipodi:role="line"
               id="tspan178">700</tspan></text></g></g><g
         id="g182"
         transform="translate(7.7159229,-30.863691)"><g
           id="g184"
           transform="matrix(6,0,0,6,3694.4357,4218.5591)"><text
             transform="translate(-11.5,14)"
             style="font-variant:normal;font-weight:normal;font-size:13.333px;font-family:Helvetica;-inkscape-font-specification:Helvetica;writing-mode:lr-tb;fill:#262626;fill-opacity:1;fill-rule:nonzero;stroke:none"
             id="text188"><tspan
               x="0 7.4131479 14.826296"
               y="0"
               sodipodi:role="line"
               id="tspan186">800</tspan></text></g></g><g
         id="g190"
         transform="translate(7.7159229,-30.863691)"><g
           id="g192"
           transform="matrix(6,0,0,6,4049.1022,4218.5591)"><text
             transform="translate(-11.5,14)"
             style="font-variant:normal;font-weight:normal;font-size:13.333px;font-family:Helvetica;-inkscape-font-specification:Helvetica;writing-mode:lr-tb;fill:#262626;fill-opacity:1;fill-rule:nonzero;stroke:none"
             id="text196"><tspan
               x="0 7.4131479 14.826296"
               y="0"
               sodipodi:role="line"
               id="tspan194">900</tspan></text></g></g><g
         id="g198"
         transform="matrix(6,0,0,6,323.1022,2320.5591)"><path
           d="M 89,311 V 26"
           style="fill:none;stroke:#262626;stroke-width:0.666667;stroke-linecap:square;stroke-linejoin:round;stroke-miterlimit:10;stroke-dasharray:none;stroke-opacity:1"
           id="path200" /></g><g
         id="g202"
         transform="matrix(6,0,0,6,323.1022,2320.5591)"><path
           d="M 621,311 V 26"
           style="fill:none;stroke:#262626;stroke-width:0.666667;stroke-linecap:square;stroke-linejoin:round;stroke-miterlimit:10;stroke-dasharray:none;stroke-opacity:1"
           id="path204" /></g><g
         id="g206"
         transform="matrix(6,0,0,6,323.1022,2320.5591)"><path
           d="m 89,311 h 5.32"
           style="fill:none;stroke:#262626;stroke-width:0.666667;stroke-linecap:square;stroke-linejoin:round;stroke-miterlimit:10;stroke-dasharray:none;stroke-opacity:1"
           id="path208" /></g><g
         id="g210"
         transform="matrix(6,0,0,6,323.1022,2320.5591)"><path
           d="m 89,275.375 h 5.32"
           style="fill:none;stroke:#262626;stroke-width:0.666667;stroke-linecap:square;stroke-linejoin:round;stroke-miterlimit:10;stroke-dasharray:none;stroke-opacity:1"
           id="path212" /></g><g
         id="g214"
         transform="matrix(6,0,0,6,323.1022,2320.5591)"><path
           d="m 89,239.75 h 5.32"
           style="fill:none;stroke:#262626;stroke-width:0.666667;stroke-linecap:square;stroke-linejoin:round;stroke-miterlimit:10;stroke-dasharray:none;stroke-opacity:1"
           id="path216" /></g><g
         id="g218"
         transform="matrix(6,0,0,6,323.1022,2320.5591)"><path
           d="m 89,204.125 h 5.32"
           style="fill:none;stroke:#262626;stroke-width:0.666667;stroke-linecap:square;stroke-linejoin:round;stroke-miterlimit:10;stroke-dasharray:none;stroke-opacity:1"
           id="path220" /></g><g
         id="g222"
         transform="matrix(6,0,0,6,323.1022,2320.5591)"><path
           d="m 89,168.5 h 5.32"
           style="fill:none;stroke:#262626;stroke-width:0.666667;stroke-linecap:square;stroke-linejoin:round;stroke-miterlimit:10;stroke-dasharray:none;stroke-opacity:1"
           id="path224" /></g><g
         id="g226"
         transform="matrix(6,0,0,6,323.1022,2320.5591)"><path
           d="m 89,132.875 h 5.32"
           style="fill:none;stroke:#262626;stroke-width:0.666667;stroke-linecap:square;stroke-linejoin:round;stroke-miterlimit:10;stroke-dasharray:none;stroke-opacity:1"
           id="path228" /></g><g
         id="g230"
         transform="matrix(6,0,0,6,323.1022,2320.5591)"><path
           d="m 89,97.25 h 5.32"
           style="fill:none;stroke:#262626;stroke-width:0.666667;stroke-linecap:square;stroke-linejoin:round;stroke-miterlimit:10;stroke-dasharray:none;stroke-opacity:1"
           id="path232" /></g><g
         id="g234"
         transform="matrix(6,0,0,6,323.1022,2320.5591)"><path
           d="m 89,61.625 h 5.32"
           style="fill:none;stroke:#262626;stroke-width:0.666667;stroke-linecap:square;stroke-linejoin:round;stroke-miterlimit:10;stroke-dasharray:none;stroke-opacity:1"
           id="path236" /></g><g
         id="g238"
         transform="matrix(6,0,0,6,323.1022,2320.5591)"><path
           d="m 89,26 h 5.32"
           style="fill:none;stroke:#262626;stroke-width:0.666667;stroke-linecap:square;stroke-linejoin:round;stroke-miterlimit:10;stroke-dasharray:none;stroke-opacity:1"
           id="path240" /></g><g
         id="g242"
         transform="matrix(6,0,0,6,323.1022,2320.5591)"><path
           d="m 621,311 h -5.32001"
           style="fill:none;stroke:#262626;stroke-width:0.666667;stroke-linecap:square;stroke-linejoin:round;stroke-miterlimit:10;stroke-dasharray:none;stroke-opacity:1"
           id="path244" /></g><g
         id="g246"
         transform="matrix(6,0,0,6,323.1022,2320.5591)"><path
           d="m 621,275.375 h -5.32001"
           style="fill:none;stroke:#262626;stroke-width:0.666667;stroke-linecap:square;stroke-linejoin:round;stroke-miterlimit:10;stroke-dasharray:none;stroke-opacity:1"
           id="path248" /></g><g
         id="g250"
         transform="matrix(6,0,0,6,323.1022,2320.5591)"><path
           d="m 621,239.75 h -5.32001"
           style="fill:none;stroke:#262626;stroke-width:0.666667;stroke-linecap:square;stroke-linejoin:round;stroke-miterlimit:10;stroke-dasharray:none;stroke-opacity:1"
           id="path252" /></g><g
         id="g254"
         transform="matrix(6,0,0,6,323.1022,2320.5591)"><path
           d="m 621,204.125 h -5.32001"
           style="fill:none;stroke:#262626;stroke-width:0.666667;stroke-linecap:square;stroke-linejoin:round;stroke-miterlimit:10;stroke-dasharray:none;stroke-opacity:1"
           id="path256" /></g><g
         id="g258"
         transform="matrix(6,0,0,6,323.1022,2320.5591)"><path
           d="m 621,168.5 h -5.32001"
           style="fill:none;stroke:#262626;stroke-width:0.666667;stroke-linecap:square;stroke-linejoin:round;stroke-miterlimit:10;stroke-dasharray:none;stroke-opacity:1"
           id="path260" /></g><g
         id="g262"
         transform="matrix(6,0,0,6,323.1022,2320.5591)"><path
           d="m 621,132.875 h -5.32001"
           style="fill:none;stroke:#262626;stroke-width:0.666667;stroke-linecap:square;stroke-linejoin:round;stroke-miterlimit:10;stroke-dasharray:none;stroke-opacity:1"
           id="path264" /></g><g
         id="g266"
         transform="matrix(6,0,0,6,323.1022,2320.5591)"><path
           d="m 621,97.25 h -5.32001"
           style="fill:none;stroke:#262626;stroke-width:0.666667;stroke-linecap:square;stroke-linejoin:round;stroke-miterlimit:10;stroke-dasharray:none;stroke-opacity:1"
           id="path268" /></g><g
         id="g270"
         transform="matrix(6,0,0,6,323.1022,2320.5591)"><path
           d="m 621,61.625 h -5.32001"
           style="fill:none;stroke:#262626;stroke-width:0.666667;stroke-linecap:square;stroke-linejoin:round;stroke-miterlimit:10;stroke-dasharray:none;stroke-opacity:1"
           id="path272" /></g><g
         id="g274"
         transform="matrix(6,0,0,6,323.1022,2320.5591)"><path
           d="m 621,26 h -5.32001"
           style="fill:none;stroke:#262626;stroke-width:0.666667;stroke-linecap:square;stroke-linejoin:round;stroke-miterlimit:10;stroke-dasharray:none;stroke-opacity:1"
           id="path276" /></g><g
         id="g278"
         transform="translate(30.863691,-3.8579614)"><g
           id="g280"
           transform="matrix(6,0,0,6,825.10219,4186.5591)"><text
             transform="translate(-15,5.5)"
             style="font-variant:normal;font-weight:normal;font-size:13.333px;font-family:Helvetica;-inkscape-font-specification:Helvetica;writing-mode:lr-tb;fill:#262626;fill-opacity:1;fill-rule:nonzero;stroke:none"
             id="text284"><tspan
               x="0 7.4131479"
               y="0"
               sodipodi:role="line"
               id="tspan282">20</tspan></text></g></g><g
         id="g286"
         transform="translate(30.863691,-3.8579614)"><g
           id="g288"
           transform="matrix(6,0,0,6,825.10219,3972.8091)"><text
             transform="translate(-15,5.5)"
             style="font-variant:normal;font-weight:normal;font-size:13.333px;font-family:Helvetica;-inkscape-font-specification:Helvetica;writing-mode:lr-tb;fill:#262626;fill-opacity:1;fill-rule:nonzero;stroke:none"
             id="text292"><tspan
               x="0 7.4131479"
               y="0"
               sodipodi:role="line"
               id="tspan290">30</tspan></text></g></g><g
         id="g294"
         transform="translate(30.863691,-3.8579614)"><g
           id="g296"
           transform="matrix(6,0,0,6,825.10219,3759.0591)"><text
             transform="translate(-15,5.5)"
             style="font-variant:normal;font-weight:normal;font-size:13.333px;font-family:Helvetica;-inkscape-font-specification:Helvetica;writing-mode:lr-tb;fill:#262626;fill-opacity:1;fill-rule:nonzero;stroke:none"
             id="text300"><tspan
               x="0 7.4131479"
               y="0"
               sodipodi:role="line"
               id="tspan298">40</tspan></text></g></g><g
         id="g302"
         transform="translate(30.863691,-3.8579614)"><g
           id="g304"
           transform="matrix(6,0,0,6,825.10219,3545.3091)"><text
             transform="translate(-15,5.5)"
             style="font-variant:normal;font-weight:normal;font-size:13.333px;font-family:Helvetica;-inkscape-font-specification:Helvetica;writing-mode:lr-tb;fill:#262626;fill-opacity:1;fill-rule:nonzero;stroke:none"
             id="text308"><tspan
               x="0 7.4131479"
               y="0"
               sodipodi:role="line"
               id="tspan306">50</tspan></text></g></g><g
         id="g310"
         transform="translate(30.863691,-3.8579614)"><g
           id="g312"
           transform="matrix(6,0,0,6,825.10219,3331.5591)"><text
             transform="translate(-15,5.5)"
             style="font-variant:normal;font-weight:normal;font-size:13.333px;font-family:Helvetica;-inkscape-font-specification:Helvetica;writing-mode:lr-tb;fill:#262626;fill-opacity:1;fill-rule:nonzero;stroke:none"
             id="text316"><tspan
               x="0 7.4131479"
               y="0"
               sodipodi:role="line"
               id="tspan314">60</tspan></text></g></g><g
         id="g318"
         transform="translate(30.863691,-3.8579614)"><g
           id="g320"
           transform="matrix(6,0,0,6,825.10219,3117.8091)"><text
             transform="translate(-15,5.5)"
             style="font-variant:normal;font-weight:normal;font-size:13.333px;font-family:Helvetica;-inkscape-font-specification:Helvetica;writing-mode:lr-tb;fill:#262626;fill-opacity:1;fill-rule:nonzero;stroke:none"
             id="text324"><tspan
               x="0 7.4131479"
               y="0"
               sodipodi:role="line"
               id="tspan322">70</tspan></text></g></g><g
         id="g326"
         transform="translate(30.863691,-3.8579614)"><g
           id="g328"
           transform="matrix(6,0,0,6,825.10219,2904.0591)"><text
             transform="translate(-15,5.5)"
             style="font-variant:normal;font-weight:normal;font-size:13.333px;font-family:Helvetica;-inkscape-font-specification:Helvetica;writing-mode:lr-tb;fill:#262626;fill-opacity:1;fill-rule:nonzero;stroke:none"
             id="text332"><tspan
               x="0 7.4131479"
               y="0"
               sodipodi:role="line"
               id="tspan330">80</tspan></text></g></g><g
         id="g334"
         transform="translate(30.863691,-3.8579614)"><g
           id="g336"
           transform="matrix(6,0,0,6,825.10219,2690.3091)"><text
             transform="translate(-15,5.5)"
             style="font-variant:normal;font-weight:normal;font-size:13.333px;font-family:Helvetica;-inkscape-font-specification:Helvetica;writing-mode:lr-tb;fill:#262626;fill-opacity:1;fill-rule:nonzero;stroke:none"
             id="text340"><tspan
               x="0 7.4131479"
               y="0"
               sodipodi:role="line"
               id="tspan338">90</tspan></text></g></g><g
         id="g342"
         transform="translate(57.869421,-3.8579614)"><g
           id="g344"
           transform="matrix(6,0,0,6,825.10219,2476.5591)"><text
             transform="translate(-23,5.5)"
             style="font-variant:normal;font-weight:normal;font-size:13.333px;font-family:Helvetica;-inkscape-font-specification:Helvetica;writing-mode:lr-tb;fill:#262626;fill-opacity:1;fill-rule:nonzero;stroke:none"
             id="text348"><tspan
               x="0 7.4131479 14.826296"
               y="0"
               sodipodi:role="line"
               id="tspan346">100</tspan></text></g></g><g
         id="g350"><g
           id="g352"
           transform="matrix(6,0,0,6,2453.1042,2460.0591)"><text
             transform="translate(-64,-4)"
             style="font-variant:normal;font-weight:bold;font-size:14.667px;font-family:Helvetica;-inkscape-font-specification:Helvetica-Bold;writing-mode:lr-tb;fill:#000000;fill-opacity:1;fill-rule:nonzero;stroke:none"
             id="text356"><tspan
               x="0 8.9615374 14.667 22.821852 26.899279 35.860813 39.93824 48.899776 57.861317 61.93874 72.528313 80.683167 88.83802 97.799553 103.50502 111.65987 119.81472"
               y="0"
               sodipodi:role="line"
               id="tspan354">Training Accuracy</tspan></text></g></g><g
         id="g358"
         transform="matrix(6,0,0,6,323.1022,2320.5591)"><path
           d="m 89.59111,278.26569 0.59111,-74.18341 0.591111,-20.2474 0.59111,0.44848 0.591118,-75.92083 0.59111,18.37635 0.59111,-28.379185 0.59111,6.706325 0.591111,25.13425 0.59111,-20.07138 0.59111,-8.15359 0.59111,57.95329 0.591118,-49.09615 0.59111,15.08118 0.591111,106.35136 0.59111,-97.47601 0.59111,23.64087 0.59111,-42.2094 0.591111,-30.640354 0.59111,29.768344 0.59111,-27.254764 0.59112,18.410264 0.59111,-1.06082 0.59111,-14.735514 0.59111,22.076644 0.59111,-0.41859 0.59111,2.74833 0.59111,-14.65664 0.59111,68.03392 0.59111,-46.1241 0.59112,-16.08137 0.59111,15.00277 0.59111,-23.75203 0.59111,39.99397 0.59111,-45.855276 0.59111,6.424279 0.59111,7.895297 0.59111,6.56475 0.59112,-5.33399 0.59111,-11.598515 0.59111,-6.373101 0.59111,-0.808082 0.59111,-0.488007 0.59111,2.772057 0.59111,-17.747238 0.59111,64.565256 0.59111,-54.436953 0.59112,-0.943954 0.59111,-10.001702 0.59111,11.265396 0.59111,36.137853 0.59111,-37.857922 0.59111,-5.511612 0.59111,18.790863 0.59111,2.37825 0.59111,3.592371 0.59112,-15.052889 0.59111,-10.097534 0.59111,2.92511 0.59111,1.746704 0.59111,4.200897 0.59111,-7.80912 0.59111,34.349102 0.59111,-36.340641 0.59112,1.149681 0.59111,12.378593 0.59111,-16.755539 0.59111,17.296662 0.59111,-14.194695 0.59111,0.512696 0.59111,4.214759 0.59111,6.484429 0.59111,-1.858094 0.59111,-4.274414 0.59111,-10.482727 0.59111,2.638962 0.59111,2.423859 0.59112,1.434868 0.59111,-4.169915 0.59111,60.774236 0.59111,-56.174634 0.59112,-0.7556 0.59111,-5.093338 0.59111,5.814171 0.59111,17.234474 0.59111,-17.265457 0.59111,3.243629 0.59111,5.792756 0.59111,2.357383 0.59111,-0.221191 0.59111,-15.584091 0.59111,2.791656 0.59111,-4.362884 0.59111,1.290901 0.59111,11.963829 0.59112,-12.752373 0.59111,35.984289 0.59111,-29.892225 0.59111,1.419243 0.59111,-15.566719 0.59111,9.114662 0.59111,-2.004967 0.59112,3.850197 0.59111,-3.233513 0.59111,6.882912 0.59111,-1.40696 0.59111,4.95913 0.59111,-16.5961 0.59111,0.819092 0.59111,-0.584748 0.59111,1.471207 0.59111,8.144676 0.59112,-3.418937 0.59111,16.023346 0.59111,-17.009263 0.59111,0.773835 0.59111,-11.504467 0.59111,8.211048 0.59111,4.839813 0.59111,-1.192078 0.59111,-10.364414 0.59111,10.099087 0.59112,8.693375 0.59111,-3.400673 0.59111,-12.011284 0.59111,-2.015186 0.59111,-0.07263 0.59111,4.800022 0.59111,2.800217 0.59112,-3.297691 0.59111,39.084873 0.59111,-32.90736 0.59111,1.786774 0.59111,-12.107754 0.59111,12.264576 0.59111,-12.743969 0.59111,5.633373 0.59111,-4.719784 0.59111,11.505528 0.59111,-0.286041 0.59111,0.240898 0.59111,-11.072502 0.59111,-1.609448 0.59112,1.13076 0.59111,5.204914 0.59111,10.745964 0.59111,-8.387909 0.59112,12.133957 0.59111,-13.51963 0.59111,5.713776 0.59111,-16.154023 0.59111,7.707276 0.59111,-1.732712 0.59111,4.79026 0.59111,-4.407379 0.59111,9.731804 0.59111,3.766647 0.59111,-1.135566 0.59111,-13.533841 0.59111,-1.83319 0.59111,1.917202 0.59111,0.826347 0.59111,4.902756 0.59111,-2.621567 0.59113,12.526459 0.59111,-8.235566 0.59111,0.781006 0.59111,-12.991466 0.59111,9.32085 0.59111,-6.774792 0.59111,10.351017 0.59111,-10.573158 0.59111,9.307533 0.59111,9.956147 0.59111,-5.498269 0.59111,-12.159931 0.59111,-3.43951 0.59111,3.066551 0.59111,3.645401 0.59111,1.745941 0.59111,1.181748 0.59113,22.103851 0.59111,-18.547737 0.59111,2.118492 0.59111,-18.172523 0.59111,19.655311 0.59111,-15.389126 0.59111,8.78516 0.59111,-2.402328 0.59111,7.333954 0.59111,1.370895 0.59111,3.028847 0.59111,-12.375603 0.59111,-3.878162 0.59111,-2.570278 0.59111,2.548938 0.59111,0.449093 0.59111,0.171395 0.59111,20.666236 0.59113,-14.265029 0.59111,3.629982 0.59111,-15.506653 0.59111,11.814155 0.59111,-11.129142 0.59111,10.12931 0.59111,-8.874286 0.59111,13.793132 0.59111,-0.797806 0.59111,8.269105 0.59111,-13.916535 0.59111,-4.87767 0.59111,-0.852219 0.59111,3.377815 0.59111,9.094872 0.59111,-4.555641 0.59111,7.829117 0.59113,-8.417801 0.59111,1.604362 0.59111,-16.922771 0.59111,22.635242 0.59111,-15.807888 0.59111,12.644985 0.59111,-7.254623 0.59111,8.86882 0.59111,11.65567 0.59111,-8.958648 0.59111,-8.038674 0.59111,-9.660137 0.59111,9.021381 0.59111,-2.526512 0.59111,1.93943 0.59111,1.95504 0.59111,8.300988 0.59113,-14.278515 0.59111,14.442379 0.59111,-24.237621 0.59111,15.804241 0.59111,-10.945813 0.59111,12.062062 0.59111,1.893661 0.59111,12.279389 0.59111,5.246093 0.59111,2.121979 0.59111,-19.736992 0.59111,-1.634285 0.59111,6.241471 0.59111,-6.361985 0.59111,10.9572 0.59111,-5.337113 0.59111,4.239082 0.59113,-9.193809 0.59111,0.05958 0.59111,-17.225556 0.59111,11.260582 0.59111,27.407921 0.59111,-25.616203 0.59111,-5.888378 0.59111,15.130512 0.59111,0.902695 0.59111,12.809746 0.59111,-20.244271 0.59111,-1.104881 0.59111,1.496246 0.59111,5.714424 0.59111,-1.557998 0.59111,-4.55214 0.59111,48.383973 0.59111,-47.540856 0.59113,15.645897 0.59111,-22.141441 0.59111,19.697792 0.59111,-24.268932 0.59111,11.993862 0.59111,-5.514435 0.59111,3.356262 0.59111,6.2799 0.59111,-3.78872 0.59111,-6.568687 0.59111,-2.592506 0.59111,4.712555 0.59111,-0.756218 0.59111,5.736221 0.59112,7.420555 0.5911,-5.578941 0.59112,-5.692162 0.5911,-0.02689 0.59113,-5.529384 0.59109,0.21075 0.59113,-7.969799 0.59109,6.961868 0.59113,-5.706817 0.59109,11.295208 0.59113,3.035461 0.59109,2.968353 0.59113,-10.418937 0.59112,-5.536564 0.5911,3.095959 0.59112,4.260177 0.5911,4.531243 0.59112,-2.931199 0.5911,6.109322 0.59112,-7.604477 0.5911,8.966042 0.59112,-16.209496 0.5911,2.383282 0.59112,-4.519116 0.5911,8.599717 0.59113,-5.700921 0.59109,8.849068 0.59113,3.212639 0.59109,-4.772324 0.59113,1.046723 0.59112,-8.664108 0.5911,0.833492 0.59112,4.995823 0.5911,2.009475 0.59112,-1.736724 0.5911,5.693771 0.59112,-3.493172 0.5911,0.456513 0.59112,-8.1815 0.5911,-0.236084 0.59112,-6.282917 0.5911,7.953953 0.59112,-2.288044 0.5911,5.601223 0.59112,-1.944164 0.5911,8.26326 0.59113,-11.293145 0.59112,-2.509151 0.5911,3.125343 0.59112,6.915524 0.5911,1.910682 0.59112,-1.343414 0.5911,5.239815 0.59112,-9.268311 0.5911,5.284088 0.59112,-16.46286 0.5911,8.810086 0.59112,-6.764839 0.5911,6.292701 0.59112,-4.980465 0.5911,7.390026 0.59112,3.524937 0.5911,1.473473 0.59112,-8.219559 0.59113,-2.099361 0.5911,13.814281 0.59112,-5.311028 0.5911,-1.406326 0.59112,1.029511 0.5911,3.751533 0.59112,-4.146187 0.5911,2.170411 0.59112,-13.428219 0.5911,11.530803 0.59112,-12.087391 0.5911,6.408787 0.59112,-5.278923 0.5911,9.734307 0.59112,2.933448 0.5911,-0.181801 0.59112,-12.497695 0.59113,0.917152 0.59109,0.349094 0.59113,5.130417 0.59109,0.269295 0.59113,-0.04365 0.5911,7.205616 0.59112,-6.941974 0.5911,7.822513 0.59112,-13.423004 0.5911,10.689705 0.59112,-11.229736 0.5911,4.751613 0.59112,4.247128 0.5911,4.067985 0.59112,-1.117737 0.5911,3.939759 0.59112,-10.509365 0.59113,-8.127663 0.59109,4.538227 0.59113,6.707954 0.59109,-2.392032 0.59113,1.788017 0.59109,9.920109 0.59113,-9.310822 0.59109,7.717354 0.59113,-15.863415 0.5911,11.404042 0.59112,-10.026329 0.5911,9.125045 0.59112,-5.262046 0.5911,7.312599 0.59112,-2.284218 0.5911,8.817429 0.59112,-14.297455 0.5911,-2.541329 0.59112,0.452378 0.59113,4.370552 0.59109,3.18631 0.59113,-2.15136 0.59109,5.226715 0.59113,-4.887268 0.59109,2.227951 0.59113,-12.692142 0.59109,14.168514 0.59113,-12.887806 0.59109,9.47224 0.59113,-5.858886 0.5911,10.130966 0.59112,3.264015 0.5911,3.886673 0.59112,-14.063168 0.5911,-5.470707 0.59112,3.697258 0.59113,0.161992 0.59109,4.009223 0.59113,-2.088325 0.59109,8.096867 0.59113,-2.379502 0.59109,0.706589 0.59113,-15.022774 0.59109,11.686081 0.59113,-10.942119 0.59109,9.359989 0.59113,-5.075623 0.59109,11.147057 0.59113,-5.216385 0.59109,4.063934 0.59113,-4.918846 0.5911,-2.376377 0.59112,-1.446777 0.59113,2.970417 0.59109,8.585098 0.59113,-4.861641 0.59109,-2.682312 0.59113,-0.127308 0.59109,6.058033 0.59113,-17.890697 0.59109,12.375824 0.59113,-11.929478 0.59109,11.273414 0.59113,-7.631603 0.59109,5.610546 0.59113,3.079949 0.59109,2.896004 0.59113,-9.940304 0.59109,-3.132492 0.59113,7.121387 0.59113,3.251129 0.59109,-2.50336 0.59113,-3.034291 0.59109,2.547474 0.59113,1.766518 0.59109,3.414318 0.59113,-16.436283 0.59109,14.506817 0.59113,-13.582192 0.59109,8.064602 0.59113,-5.30143 0.59109,11.829426 0.59113,-1.03981 0.59109,2.486999 0.59113,-10.205226 0.59109,-1.910489 0.59113,3.901024 0.59112,1.578514 0.5911,2.934407 0.59113,-4.724408 0.59109,6.903054 0.59113,-3.311608 0.59109,1.360836 0.59113,-10.389637 0.59109,4.352669 0.59113,-7.483204 0.59109,9.920246 0.59113,-7.547565 0.59109,13.54504 0.59113,-2.708729 0.59109,6.564228 0.59113,-13.046375 0.59109,-1.957046 0.59113,4.489734 0.59112,4.712746 0.5911,-0.308109 0.59112,-0.774704 0.5911,0.98872 0.59112,-1.217926 0.5911,5.099189 0.59113,-15.239101 0.59109,16.075962 0.59113,-14.482849 0.59109,9.791275 0.59113,-2.19109 0.59109,3.563229 0.59113,-0.613251 0.59109,5.105385 0.59113,-14.225403 0.59109,-2.453541 0.59113,1.11744 0.59112,6.622066 0.5911,1.736893 0.59112,-1.614395 0.5911,-0.540116 0.59112,-0.58564 0.5911,7.975968 0.59112,-15.418511 0.5911,16.039353 0.59112,-13.874867 0.5911,8.548077 0.59113,3.051277 0.59109,-0.332901 0.59113,-1.384888 0.59109,2.12336 0.59113,-10.266754 0.59109,-3.14214 0.59113,2.869664 0.59109,4.335952 0.59113,-0.546367 0.59112,6.097118 0.5911,-1.505134 0.59112,-1.458653 0.5911,5.520443 0.59112,-16.486996 0.5911,15.165112 0.59112,-9.283722 0.5911,7.975975 0.59112,1.120369 0.5911,2.74942 0.59112,-3.78907 0.5911,4.770233 0.59113,-12.814068 0.59109,-3.514011 0.59113,0.818027 0.59109,5.221386 0.59113,1.459767 0.59112,3.846859 0.5911,2.37371 0.59112,-7.093174 0.5911,3.5098 0.59112,-11.558609 0.5911,7.793892 0.59112,-8.861484 0.5911,11.945484 0.59112,-0.590317 0.5911,7.427567 0.59112,-2.598053 0.5911,4.862259 0.59112,-9.477349 0.5911,-5.002891 0.59112,-0.793972 0.5911,4.336086 0.59113,2.862762 0.59112,-2.449058 0.5911,3.611534 0.59112,0.696564 0.5911,-0.486847 0.59112,-16.241837 0.5911,12.427597 0.59112,-12.177326 0.5911,9.960877 0.59112,-5.59655 0.5911,9.517116 0.59112,4.25145 0.5911,-2.358658 0.59112,-5.675503 0.5911,-5.727394 0.59112,3.214111 0.5911,4.235932 0.59112,1.805088 0.59113,-0.761441 0.5911,0.958195 0.59112,-1.356052 0.5911,6.129955 0.59112,-17.586533 0.5911,10.1862 0.59112,-9.63657 0.5911,9.38195 0.59112,-5.45285 0.5911,9.460388 0.59112,2.173401 0.5911,0.76239 0.59112,-11.32016 0.5911,-2.67049 0.59112,1.967132 0.5911,3.720631 0.59112,4.469406 0.59113,1.512657 0.59109,-2.262218 0.59113,-8.610237 0.59109,11.760883 0.59113,-13.804798 0.5911,9.950142 0.59112,-12.71035 0.5911,9.628986 0.59112,-4.109138 0.5911,9.464141 0.59112,-0.236412 0.5911,8.924866 0.59112,-17.566219 0.5911,-2.135948 0.59112,5.003135 0.5911,5.646916 0.59112,0.218139 0.59113,-1.748115 0.59109,1.422043 0.59113,-0.75174 0.59109,7.329613 0.59113,-14.95594 0.59109,15.294029 0.59113,-16.94838 0.59109,7.256199 0.59113,1.69944 0.5911,2.225987 0.59112,0.01134 0.5911,4.379852 0.59112,-10.295517 0.5911,-4.185352 0.59112,6.440372 0.5911,-2.199192 0.59112,4.326191 0.5911,3.094742 0.59112,-5.127155 0.59113,-2.449246 0.59109,4.964646 0.59113,-8.212597 0.59109,5.148735 0.59113,-8.83107 0.59109,9.236946 0.59113,-6.306644 0.59109,7.927616 0.59113,3.431164 0.59109,-1.569977 0.59113,-9.683212 0.5911,-2.342782 0.59112,0.586213 0.5911,4.514766 0.59112,1.294869 0.5911,-3.230389 0.59112,3.398277 0.59113,4.642487 0.59109,1.463982 0.59113,-13.440861 0.59109,12.523136 0.59113,-12.384872 0.59109,9.922309 0.59113,-2.824489 0.59109,4.432117 0.59113,2.771706 0.59109,0.171364 0.59113,-2.630882 0.59109,-10.01059 0.59113,-1.592922 0.59109,2.021545 0.59113,5.948826 0.5911,-1.215942 0.59112,2.319248 0.59113,0.140518 0.59109,0.536392 0.59113,-12.22269 0.59109,11.278926 0.59113,-9.755859 0.59109,7.630543 0.59113,2.393146 0.59109,4.077473 0.59113,-6.613529 0.59109,5.324589 0.59113,-6.368889 0.59109,-1.222626 0.59113,-1.616322 0.59109,2.676087 0.59113,1.619312 0.59109,-0.714718 0.59113,5.180645 0.59113,-4.88319 0.59109,0.778267 0.59113,-11.757267 0.59109,11.969158 0.59113,-13.480243 0.59109,11.363079 0.59113,-3.047337 0.59109,7.678707 0.59113,0.338253 0.59109,1.610695 0.59113,-8.52364 0.59109,-4.075027 0.59113,3.699428 0.59109,4.828316 0.59113,1.729309 0.59109,-1.221321 0.59113,-3.338539 0.59112,-1.890621 0.5911,10.89249 0.59113,-16.355179 0.59109,10.958321 0.59113,-12.512131 0.59109,13.393894 0.59113,-7.40533 0.59109,8.95694 0.59113,0.236137 0.59109,0.56607 0.59113,-7.563571 0.59109,-4.791131 0.59113,6.600514 0.59109,1.85466 0.59113,-0.272911 0.59109,-2.507572 0.59113,-2.833107 0.59112,3.428043 0.5911,5.940781 0.59112,-16.255947 0.5911,12.970596 0.59112,-12.473778 0.5911,10.116589 0.59109,-5.891148 0.59113,10.626728 0.59113,-3.063236 0.59112,5.16885 0.59107,-13.084889 0.59112,-1.617301 0.59113,3.812469 0.59112,5.377071 0.59107,-4.38607 0.59112,4.739899 0.59113,-3.270401 0.59112,4.990875 0.59113,1.047615 0.59106,-12.607284 0.59113,9.776626 0.59112,-10.147819 0.59113,11.99044 0.59106,-9.109093 0.59113,8.431828 0.59112,5.600681 0.59113,-1.743713 0.59106,-11.807877 0.59113,-1.383175 0.59113,0.401959 0.59112,4.776428 0.59107,1.913807 0.59112,-2.762818 0.59113,3.544888 0.59112,-2.877056 0.59113,9.137905 0.59106,-14.600105 0.59113,17.695762 0.59112,-15.965526 0.59113,7.913372 0.59106,-2.39521 0.59113,8.330444 0.59112,-3.221634 0.59113,0.490349 0.59106,-8.777203 0.59113,-5.261452 0.59112,-0.200531 0.59113,5.451111 0.59106,0.02316 0.59113,2.185222 0.59113,1.636902 0.59112,-2.880291 0.59113,3.910072 0.59106,-12.799171 0.59113,14.806015 0.59112,-12.984402 0.59113,11.306107 0.59106,-3.99955 0.59113,5.875114 0.59112,0.156205 0.59113,1.860969 0.59106,-9.562561 0.59113,-4.044479 0.59112,1.542396 0.59113,3.519718 0.59106,-0.151607 0.59113,-0.787617 0.59112,-0.329445 0.59113,4.014336 0.59113,1.138641 0.59106,-12.410122 0.59113,10.846527 0.59112,-11.06005 0.59113,11.396045 0.59106,-4.29657 0.59113,5.538845 0.59112,5.213097 0.59113,-0.570801 0.59106,-7.218414 0.59113,-2.200279 0.59112,0.706127 0.59113,2.702644 0.59106,0.542942 0.59113,-1.177047 0.59112,3.367839 0.59113,-4.385093 0.59106,6.229862 0.59113,-16.544022 0.59113,13.112149 0.59112,-13.558033 0.59113,10.716365 0.59106,-4.867534 0.59113,7.063305 0.59112,0.837486 0.59113,0.290634 0.59106,-6.271313 0.59113,-2.711856 0.59112,2.632438 0.59113,5.024903 0.59106,1.768993 0.59113,-2.581314 0.59112,2.713924 0.59113,-8.050606 0.59106,8.265759 0.59113,-12.812573 0.59112,11.822934 0.59113,-13.563713 0.59113,10.71101 0.59106,-5.238511 0.59113,8.260083 0.59112,-1.025467 0.59113,3.039779 0.59106,-8.035572 0.59113,-3.176494 0.59112,1.987545 0.59113,5.446598 0.59106,4.122402 0.59113,-6.435207 0.59112,4.714134 0.59113,-1.154297 0.59106,3.891724 0.59113,-13.897015 0.59112,12.863564 0.59113,-13.135033 0.59112,9.99572 0.59107,-4.145016 0.59112,8.045418 0.59113,1.027092 0.59113,3.437309 0.59106,-13.313713 0.59113,-1.594715 0.59112,-1.570442 0.59113,2.793422 0.59106,4.311409 0.59113,-0.610427 0.59112,1.964031 0.59113,-1.638176 0.59106,3.883602 0.59113,-9.894043 0.59112,8.767742 0.59113,-9.66769"
           style="fill:none;stroke:#0072bd;stroke-width:0.666667;stroke-linecap:butt;stroke-linejoin:round;stroke-miterlimit:10;stroke-dasharray:none;stroke-opacity:1"
           id="path360" /></g></g></g></svg>
