<?xml version="1.0" encoding="UTF-8" standalone="no"?>
<!-- Created with Inkscape (http://www.inkscape.org/) -->

<svg
   version="1.1"
   id="svg2"
   xml:space="preserve"
   width="793.33331"
   height="1122.6667"
   viewBox="0 0 793.33331 1122.6667"
   sodipodi:docname="batch2.svg"
   inkscape:version="1.1.1 (3bf5ae0d25, 2021-09-20)"
   xmlns:inkscape="http://www.inkscape.org/namespaces/inkscape"
   xmlns:sodipodi="http://sodipodi.sourceforge.net/DTD/sodipodi-0.dtd"
   xmlns="http://www.w3.org/2000/svg"
   xmlns:svg="http://www.w3.org/2000/svg"><defs
     id="defs6"><clipPath
       clipPathUnits="userSpaceOnUse"
       id="clipPath18"><path
         d="M 0,0 H 560.00001 V 420 H 0 Z"
         id="path16" /></clipPath></defs><sodipodi:namedview
     id="namedview4"
     pagecolor="#ffffff"
     bordercolor="#666666"
     borderopacity="1.0"
     inkscape:pageshadow="2"
     inkscape:pageopacity="0.0"
     inkscape:pagecheckerboard="0"
     showgrid="false"
     inkscape:zoom="0.77761277"
     inkscape:cx="396.08403"
     inkscape:cy="561.33337"
     inkscape:window-width="1920"
     inkscape:window-height="1009"
     inkscape:window-x="3432"
     inkscape:window-y="344"
     inkscape:window-maximized="1"
     inkscape:current-layer="g10" /><g
     id="g8"
     inkscape:groupmode="layer"
     inkscape:label="batch2"
     transform="matrix(1.3333333,0,0,-1.3333333,0,1122.6667)"><g
       id="g10"
       transform="matrix(0.125,0,0,-0.125,0,842)"><g
         id="g26"
         transform="matrix(6,0,0,6,701.10223,2107.5591)"><path
           d="M 73,374 H 507 V 31 H 73 Z"
           style="fill:#ffffff;fill-opacity:1;fill-rule:nonzero;stroke:none"
           id="path28" /></g><g
         id="g30"
         transform="matrix(6,0,0,6,701.10223,2107.5591)"><path
           d="M 73,374 H 507"
           style="fill:none;stroke:#262626;stroke-width:0.666667;stroke-linecap:square;stroke-linejoin:round;stroke-miterlimit:10;stroke-dasharray:none;stroke-opacity:1"
           id="path32" /></g><g
         id="g34"
         transform="matrix(6,0,0,6,701.10223,2107.5591)"><path
           d="M 73,31.000004 H 507"
           style="fill:none;stroke:#262626;stroke-width:0.666667;stroke-linecap:square;stroke-linejoin:round;stroke-miterlimit:10;stroke-dasharray:none;stroke-opacity:1"
           id="path36" /></g><g
         id="g38"
         transform="matrix(6,0,0,6,701.10223,2107.5591)"><path
           d="m 109.16666,374 v -4.34"
           style="fill:none;stroke:#262626;stroke-width:0.666667;stroke-linecap:square;stroke-linejoin:round;stroke-miterlimit:10;stroke-dasharray:none;stroke-opacity:1"
           id="path40" /></g><g
         id="g42"
         transform="matrix(6,0,0,6,701.10223,2107.5591)"><path
           d="m 181.5,374 v -4.34"
           style="fill:none;stroke:#262626;stroke-width:0.666667;stroke-linecap:square;stroke-linejoin:round;stroke-miterlimit:10;stroke-dasharray:none;stroke-opacity:1"
           id="path44" /></g><g
         id="g46"
         transform="matrix(6,0,0,6,701.10223,2107.5591)"><path
           d="m 253.83333,374 v -4.34"
           style="fill:none;stroke:#262626;stroke-width:0.666667;stroke-linecap:square;stroke-linejoin:round;stroke-miterlimit:10;stroke-dasharray:none;stroke-opacity:1"
           id="path48" /></g><g
         id="g50"
         transform="matrix(6,0,0,6,701.10223,2107.5591)"><path
           d="m 326.16666,374 v -4.34"
           style="fill:none;stroke:#262626;stroke-width:0.666667;stroke-linecap:square;stroke-linejoin:round;stroke-miterlimit:10;stroke-dasharray:none;stroke-opacity:1"
           id="path52" /></g><g
         id="g54"
         transform="matrix(6,0,0,6,701.10223,2107.5591)"><path
           d="m 398.5,374 v -4.34"
           style="fill:none;stroke:#262626;stroke-width:0.666667;stroke-linecap:square;stroke-linejoin:round;stroke-miterlimit:10;stroke-dasharray:none;stroke-opacity:1"
           id="path56" /></g><g
         id="g58"
         transform="matrix(6,0,0,6,701.10223,2107.5591)"><path
           d="m 470.83334,374 v -4.34"
           style="fill:none;stroke:#262626;stroke-width:0.666667;stroke-linecap:square;stroke-linejoin:round;stroke-miterlimit:10;stroke-dasharray:none;stroke-opacity:1"
           id="path60" /></g><g
         id="g62"
         transform="matrix(6,0,0,6,701.10223,2107.5591)"><path
           d="m 109.16666,31.000004 v 4.339992"
           style="fill:none;stroke:#262626;stroke-width:0.666667;stroke-linecap:square;stroke-linejoin:round;stroke-miterlimit:10;stroke-dasharray:none;stroke-opacity:1"
           id="path64" /></g><g
         id="g66"
         transform="matrix(6,0,0,6,701.10223,2107.5591)"><path
           d="m 181.5,31.000004 v 4.339992"
           style="fill:none;stroke:#262626;stroke-width:0.666667;stroke-linecap:square;stroke-linejoin:round;stroke-miterlimit:10;stroke-dasharray:none;stroke-opacity:1"
           id="path68" /></g><g
         id="g70"
         transform="matrix(6,0,0,6,701.10223,2107.5591)"><path
           d="m 253.83333,31.000004 v 4.339992"
           style="fill:none;stroke:#262626;stroke-width:0.666667;stroke-linecap:square;stroke-linejoin:round;stroke-miterlimit:10;stroke-dasharray:none;stroke-opacity:1"
           id="path72" /></g><g
         id="g74"
         transform="matrix(6,0,0,6,701.10223,2107.5591)"><path
           d="m 326.16666,31.000004 v 4.339992"
           style="fill:none;stroke:#262626;stroke-width:0.666667;stroke-linecap:square;stroke-linejoin:round;stroke-miterlimit:10;stroke-dasharray:none;stroke-opacity:1"
           id="path76" /></g><g
         id="g78"
         transform="matrix(6,0,0,6,701.10223,2107.5591)"><path
           d="m 398.5,31.000004 v 4.339992"
           style="fill:none;stroke:#262626;stroke-width:0.666667;stroke-linecap:square;stroke-linejoin:round;stroke-miterlimit:10;stroke-dasharray:none;stroke-opacity:1"
           id="path80" /></g><g
         id="g82"
         transform="matrix(6,0,0,6,701.10223,2107.5591)"><path
           d="m 470.83334,31.000004 v 4.339992"
           style="fill:none;stroke:#262626;stroke-width:0.666667;stroke-linecap:square;stroke-linejoin:round;stroke-miterlimit:10;stroke-dasharray:none;stroke-opacity:1"
           id="path84" /></g><g
         id="g86"><g
           id="g88"
           transform="matrix(6,0,0,6,1356.1022,4383.5591)"><text
             transform="translate(-4,14)"
             style="font-variant:normal;font-weight:normal;font-size:13.333px;font-family:Helvetica;-inkscape-font-specification:Helvetica;writing-mode:lr-tb;fill:#262626;fill-opacity:1;fill-rule:nonzero;stroke:none"
             id="text92"><tspan
               x="0"
               y="0"
               id="tspan90">2</tspan></text></g></g><g
         id="g94"><g
           id="g96"
           transform="matrix(6,0,0,6,1790.1022,4383.5591)"><text
             transform="translate(-4,14)"
             style="font-variant:normal;font-weight:normal;font-size:13.333px;font-family:Helvetica;-inkscape-font-specification:Helvetica;writing-mode:lr-tb;fill:#262626;fill-opacity:1;fill-rule:nonzero;stroke:none"
             id="text100"><tspan
               x="0"
               y="0"
               id="tspan98">4</tspan></text></g></g><g
         id="g102"><g
           id="g104"
           transform="matrix(6,0,0,6,2224.1022,4383.5591)"><text
             transform="translate(-4,14)"
             style="font-variant:normal;font-weight:normal;font-size:13.333px;font-family:Helvetica;-inkscape-font-specification:Helvetica;writing-mode:lr-tb;fill:#262626;fill-opacity:1;fill-rule:nonzero;stroke:none"
             id="text108"><tspan
               x="0"
               y="0"
               id="tspan106">8</tspan></text></g></g><g
         id="g110"><g
           id="g112"
           transform="matrix(6,0,0,6,2658.1022,4383.5591)"><text
             transform="translate(-7.5,14)"
             style="font-variant:normal;font-weight:normal;font-size:13.333px;font-family:Helvetica;-inkscape-font-specification:Helvetica;writing-mode:lr-tb;fill:#262626;fill-opacity:1;fill-rule:nonzero;stroke:none"
             id="text116"><tspan
               x="0 7.4131479"
               y="0"
               sodipodi:role="line"
               id="tspan114">15</tspan></text></g></g><g
         id="g118"><g
           id="g120"
           transform="matrix(6,0,0,6,3092.1022,4383.5591)"><text
             transform="translate(-7.5,14)"
             style="font-variant:normal;font-weight:normal;font-size:13.333px;font-family:Helvetica;-inkscape-font-specification:Helvetica;writing-mode:lr-tb;fill:#262626;fill-opacity:1;fill-rule:nonzero;stroke:none"
             id="text124"><tspan
               x="0 7.4131479"
               y="0"
               sodipodi:role="line"
               id="tspan122">20</tspan></text></g></g><g
         id="g126"><g
           id="g128"
           transform="matrix(6,0,0,6,3526.1023,4383.5591)"><text
             transform="translate(-7.5,14)"
             style="font-variant:normal;font-weight:normal;font-size:13.333px;font-family:Helvetica;-inkscape-font-specification:Helvetica;writing-mode:lr-tb;fill:#262626;fill-opacity:1;fill-rule:nonzero;stroke:none"
             id="text132"><tspan
               x="0 7.4131479"
               y="0"
               sodipodi:role="line"
               id="tspan130">30</tspan></text></g></g><g
         id="g134"><g
           id="g136"
           transform="matrix(6,0,0,6,2441.1035,4493.559)"><text
             transform="translate(-33,15)"
             style="font-variant:normal;font-weight:normal;font-size:14.667px;font-family:Helvetica;-inkscape-font-specification:Helvetica;writing-mode:lr-tb;fill:#262626;fill-opacity:1;fill-rule:nonzero;stroke:none"
             id="text140"><tspan
               x="0 8.1548519 16.309704 20.387131 27.720631 35.875481 39.952908 47.286407 50.54248 57.87598"
               y="0"
               sodipodi:role="line"
               id="tspan138">batch size</tspan></text></g></g><g
         id="g142"
         transform="matrix(6,0,0,6,701.10223,2107.5591)"><path
           d="M 73,374 V 31.000004"
           style="fill:none;stroke:#262626;stroke-width:0.666667;stroke-linecap:square;stroke-linejoin:round;stroke-miterlimit:10;stroke-dasharray:none;stroke-opacity:1"
           id="path144" /></g><g
         id="g146"
         transform="matrix(6,0,0,6,701.10223,2107.5591)"><path
           d="M 507,374 V 31.000004"
           style="fill:none;stroke:#262626;stroke-width:0.666667;stroke-linecap:square;stroke-linejoin:round;stroke-miterlimit:10;stroke-dasharray:none;stroke-opacity:1"
           id="path148" /></g><g
         id="g150"
         transform="matrix(6,0,0,6,701.10223,2107.5591)"><path
           d="m 73,365.77707 h 4.340004"
           style="fill:none;stroke:#262626;stroke-width:0.666667;stroke-linecap:square;stroke-linejoin:round;stroke-miterlimit:10;stroke-dasharray:none;stroke-opacity:1"
           id="path152" /></g><g
         id="g154"
         transform="matrix(6,0,0,6,701.10223,2107.5591)"><path
           d="m 73,311.17987 h 4.340004"
           style="fill:none;stroke:#262626;stroke-width:0.666667;stroke-linecap:square;stroke-linejoin:round;stroke-miterlimit:10;stroke-dasharray:none;stroke-opacity:1"
           id="path156" /></g><g
         id="g158"
         transform="matrix(6,0,0,6,701.10223,2107.5591)"><path
           d="m 73,256.58267 h 4.340004"
           style="fill:none;stroke:#262626;stroke-width:0.666667;stroke-linecap:square;stroke-linejoin:round;stroke-miterlimit:10;stroke-dasharray:none;stroke-opacity:1"
           id="path160" /></g><g
         id="g162"
         transform="matrix(6,0,0,6,701.10223,2107.5591)"><path
           d="m 73,201.98547 h 4.340004"
           style="fill:none;stroke:#262626;stroke-width:0.666667;stroke-linecap:square;stroke-linejoin:round;stroke-miterlimit:10;stroke-dasharray:none;stroke-opacity:1"
           id="path164" /></g><g
         id="g166"
         transform="matrix(6,0,0,6,701.10223,2107.5591)"><path
           d="m 73,147.38829 h 4.340004"
           style="fill:none;stroke:#262626;stroke-width:0.666667;stroke-linecap:square;stroke-linejoin:round;stroke-miterlimit:10;stroke-dasharray:none;stroke-opacity:1"
           id="path168" /></g><g
         id="g170"
         transform="matrix(6,0,0,6,701.10223,2107.5591)"><path
           d="m 73,92.791084 h 4.340004"
           style="fill:none;stroke:#262626;stroke-width:0.666667;stroke-linecap:square;stroke-linejoin:round;stroke-miterlimit:10;stroke-dasharray:none;stroke-opacity:1"
           id="path172" /></g><g
         id="g174"
         transform="matrix(6,0,0,6,701.10223,2107.5591)"><path
           d="m 73,38.193905 h 4.340004"
           style="fill:none;stroke:#262626;stroke-width:0.666667;stroke-linecap:square;stroke-linejoin:round;stroke-miterlimit:10;stroke-dasharray:none;stroke-opacity:1"
           id="path176" /></g><g
         id="g178"
         transform="matrix(6,0,0,6,701.10223,2107.5591)"><path
           d="m 507,365.77707 h -4.34"
           style="fill:none;stroke:#262626;stroke-width:0.666667;stroke-linecap:square;stroke-linejoin:round;stroke-miterlimit:10;stroke-dasharray:none;stroke-opacity:1"
           id="path180" /></g><g
         id="g182"
         transform="matrix(6,0,0,6,701.10223,2107.5591)"><path
           d="m 507,311.17987 h -4.34"
           style="fill:none;stroke:#262626;stroke-width:0.666667;stroke-linecap:square;stroke-linejoin:round;stroke-miterlimit:10;stroke-dasharray:none;stroke-opacity:1"
           id="path184" /></g><g
         id="g186"
         transform="matrix(6,0,0,6,701.10223,2107.5591)"><path
           d="m 507,256.58267 h -4.34"
           style="fill:none;stroke:#262626;stroke-width:0.666667;stroke-linecap:square;stroke-linejoin:round;stroke-miterlimit:10;stroke-dasharray:none;stroke-opacity:1"
           id="path188" /></g><g
         id="g190"
         transform="matrix(6,0,0,6,701.10223,2107.5591)"><path
           d="m 507,201.98547 h -4.34"
           style="fill:none;stroke:#262626;stroke-width:0.666667;stroke-linecap:square;stroke-linejoin:round;stroke-miterlimit:10;stroke-dasharray:none;stroke-opacity:1"
           id="path192" /></g><g
         id="g194"
         transform="matrix(6,0,0,6,701.10223,2107.5591)"><path
           d="m 507,147.38829 h -4.34"
           style="fill:none;stroke:#262626;stroke-width:0.666667;stroke-linecap:square;stroke-linejoin:round;stroke-miterlimit:10;stroke-dasharray:none;stroke-opacity:1"
           id="path196" /></g><g
         id="g198"
         transform="matrix(6,0,0,6,701.10223,2107.5591)"><path
           d="m 507,92.791084 h -4.34"
           style="fill:none;stroke:#262626;stroke-width:0.666667;stroke-linecap:square;stroke-linejoin:round;stroke-miterlimit:10;stroke-dasharray:none;stroke-opacity:1"
           id="path200" /></g><g
         id="g202"
         transform="matrix(6,0,0,6,701.10223,2107.5591)"><path
           d="m 507,38.193905 h -4.34"
           style="fill:none;stroke:#262626;stroke-width:0.666667;stroke-linecap:square;stroke-linejoin:round;stroke-miterlimit:10;stroke-dasharray:none;stroke-opacity:1"
           id="path204" /></g><g
         id="g206"><g
           id="g208"
           transform="matrix(6,0,0,6,1107.1022,4302.2215)"><text
             transform="translate(-19,5.5)"
             style="font-variant:normal;font-weight:normal;font-size:13.333px;font-family:Helvetica;-inkscape-font-specification:Helvetica;writing-mode:lr-tb;fill:#262626;fill-opacity:1;fill-rule:nonzero;stroke:none"
             id="text212"><tspan
               x="0 7.4131479 11.119722"
               y="0"
               sodipodi:role="line"
               id="tspan210">0.3</tspan></text></g></g><g
         id="g214"><g
           id="g216"
           transform="matrix(6,0,0,6,1107.1022,3974.6383)"><text
             transform="translate(-19,5.5)"
             style="font-variant:normal;font-weight:normal;font-size:13.333px;font-family:Helvetica;-inkscape-font-specification:Helvetica;writing-mode:lr-tb;fill:#262626;fill-opacity:1;fill-rule:nonzero;stroke:none"
             id="text220"><tspan
               x="0 7.4131479 11.119722"
               y="0"
               sodipodi:role="line"
               id="tspan218">0.4</tspan></text></g></g><g
         id="g222"><g
           id="g224"
           transform="matrix(6,0,0,6,1107.1022,3647.0551)"><text
             transform="translate(-19,5.5)"
             style="font-variant:normal;font-weight:normal;font-size:13.333px;font-family:Helvetica;-inkscape-font-specification:Helvetica;writing-mode:lr-tb;fill:#262626;fill-opacity:1;fill-rule:nonzero;stroke:none"
             id="text228"><tspan
               x="0 7.4131479 11.119722"
               y="0"
               sodipodi:role="line"
               id="tspan226">0.5</tspan></text></g></g><g
         id="g230"><g
           id="g232"
           transform="matrix(6,0,0,6,1107.1022,3319.4719)"><text
             transform="translate(-19,5.5)"
             style="font-variant:normal;font-weight:normal;font-size:13.333px;font-family:Helvetica;-inkscape-font-specification:Helvetica;writing-mode:lr-tb;fill:#262626;fill-opacity:1;fill-rule:nonzero;stroke:none"
             id="text236"><tspan
               x="0 7.4131479 11.119722"
               y="0"
               sodipodi:role="line"
               id="tspan234">0.6</tspan></text></g></g><g
         id="g238"><g
           id="g240"
           transform="matrix(6,0,0,6,1107.1022,2991.8888)"><text
             transform="translate(-19,5.5)"
             style="font-variant:normal;font-weight:normal;font-size:13.333px;font-family:Helvetica;-inkscape-font-specification:Helvetica;writing-mode:lr-tb;fill:#262626;fill-opacity:1;fill-rule:nonzero;stroke:none"
             id="text244"><tspan
               x="0 7.4131479 11.119722"
               y="0"
               sodipodi:role="line"
               id="tspan242">0.7</tspan></text></g></g><g
         id="g246"><g
           id="g248"
           transform="matrix(6,0,0,6,1107.1022,2664.3056)"><text
             transform="translate(-19,5.5)"
             style="font-variant:normal;font-weight:normal;font-size:13.333px;font-family:Helvetica;-inkscape-font-specification:Helvetica;writing-mode:lr-tb;fill:#262626;fill-opacity:1;fill-rule:nonzero;stroke:none"
             id="text252"><tspan
               x="0 7.4131479 11.119722"
               y="0"
               sodipodi:role="line"
               id="tspan250">0.8</tspan></text></g></g><g
         id="g254"><g
           id="g256"
           transform="matrix(6,0,0,6,1107.1022,2336.7225)"><text
             transform="translate(-19,5.5)"
             style="font-variant:normal;font-weight:normal;font-size:13.333px;font-family:Helvetica;-inkscape-font-specification:Helvetica;writing-mode:lr-tb;fill:#262626;fill-opacity:1;fill-rule:nonzero;stroke:none"
             id="text260"><tspan
               x="0 7.4131479 11.119722"
               y="0"
               sodipodi:role="line"
               id="tspan258">0.9</tspan></text></g></g><g
         id="g262"><g
           id="g264"
           transform="matrix(-2.6e-7,-6,6,-2.6e-7,969.10224,3322.5581)"><text
             transform="translate(-11,-4)"
             style="font-variant:normal;font-weight:normal;font-size:14.667px;font-family:Helvetica;-inkscape-font-specification:Helvetica;writing-mode:lr-tb;fill:#262626;fill-opacity:1;fill-rule:nonzero;stroke:none"
             id="text268"><tspan
               x="0 8.9615374"
               y="0"
               sodipodi:role="line"
               id="tspan266">FM</tspan></text></g></g><g
         id="g270"
         transform="matrix(6,0,0,6,701.10223,2107.5591)"><path
           d="M 109.16666,99.432907 V 47.43343"
           style="fill:none;stroke:#000000;stroke-width:0.666667;stroke-linecap:butt;stroke-linejoin:bevel;stroke-miterlimit:1;stroke-dasharray:10, 6;stroke-dashoffset:0;stroke-opacity:1"
           id="path272" /></g><g
         id="g274"
         transform="matrix(6,0,0,6,701.10223,2107.5591)"><path
           d="M 181.5,129.96365 V 46.590904"
           style="fill:none;stroke:#000000;stroke-width:0.666667;stroke-linecap:butt;stroke-linejoin:bevel;stroke-miterlimit:1;stroke-dasharray:10, 6;stroke-dashoffset:0;stroke-opacity:1"
           id="path276" /></g><g
         id="g278"
         transform="matrix(6,0,0,6,701.10223,2107.5591)"><path
           d="M 253.83333,123.23199 V 51.820023"
           style="fill:none;stroke:#000000;stroke-width:0.666667;stroke-linecap:butt;stroke-linejoin:bevel;stroke-miterlimit:1;stroke-dasharray:10, 6;stroke-dashoffset:0;stroke-opacity:1"
           id="path280" /></g><g
         id="g282"
         transform="matrix(6,0,0,6,701.10223,2107.5591)"><path
           d="M 326.16666,129.62355 V 73.112099"
           style="fill:none;stroke:#000000;stroke-width:0.666667;stroke-linecap:butt;stroke-linejoin:bevel;stroke-miterlimit:1;stroke-dasharray:10, 6;stroke-dashoffset:0;stroke-opacity:1"
           id="path284" /></g><g
         id="g286"
         transform="matrix(6,0,0,6,701.10223,2107.5591)"><path
           d="M 398.5,128.1778 V 69.991638"
           style="fill:none;stroke:#000000;stroke-width:0.666667;stroke-linecap:butt;stroke-linejoin:bevel;stroke-miterlimit:1;stroke-dasharray:10, 6;stroke-dashoffset:0;stroke-opacity:1"
           id="path288" /></g><g
         id="g290"
         transform="matrix(6,0,0,6,701.10223,2107.5591)"><path
           d="M 470.83334,161.37488 V 70.941063"
           style="fill:none;stroke:#000000;stroke-width:0.666667;stroke-linecap:butt;stroke-linejoin:bevel;stroke-miterlimit:1;stroke-dasharray:10, 6;stroke-dashoffset:0;stroke-opacity:1"
           id="path292" /></g><g
         id="g294"
         transform="matrix(6,0,0,6,701.10223,2107.5591)"><path
           d="M 109.16666,320.90881 V 204.14685"
           style="fill:none;stroke:#000000;stroke-width:0.666667;stroke-linecap:butt;stroke-linejoin:bevel;stroke-miterlimit:1;stroke-dasharray:10, 6;stroke-dashoffset:0;stroke-opacity:1"
           id="path296" /></g><g
         id="g298"
         transform="matrix(6,0,0,6,701.10223,2107.5591)"><path
           d="M 181.5,301.89078 V 203.47165"
           style="fill:none;stroke:#000000;stroke-width:0.666667;stroke-linecap:butt;stroke-linejoin:bevel;stroke-miterlimit:1;stroke-dasharray:10, 6;stroke-dashoffset:0;stroke-opacity:1"
           id="path300" /></g><g
         id="g302"
         transform="matrix(6,0,0,6,701.10223,2107.5591)"><path
           d="M 253.83333,212.76292 V 179.51891"
           style="fill:none;stroke:#000000;stroke-width:0.666667;stroke-linecap:butt;stroke-linejoin:bevel;stroke-miterlimit:1;stroke-dasharray:10, 6;stroke-dashoffset:0;stroke-opacity:1"
           id="path304" /></g><g
         id="g306"
         transform="matrix(6,0,0,6,701.10223,2107.5591)"><path
           d="M 326.16666,274.51785 V 192.82281"
           style="fill:none;stroke:#000000;stroke-width:0.666667;stroke-linecap:butt;stroke-linejoin:bevel;stroke-miterlimit:1;stroke-dasharray:10, 6;stroke-dashoffset:0;stroke-opacity:1"
           id="path308" /></g><g
         id="g310"
         transform="matrix(6,0,0,6,701.10223,2107.5591)"><path
           d="m 398.5,279.44833 v -66.2048"
           style="fill:none;stroke:#000000;stroke-width:0.666667;stroke-linecap:butt;stroke-linejoin:bevel;stroke-miterlimit:1;stroke-dasharray:10, 6;stroke-dashoffset:0;stroke-opacity:1"
           id="path312" /></g><g
         id="g314"
         transform="matrix(6,0,0,6,701.10223,2107.5591)"><path
           d="M 470.83334,329.82117 V 244.11189"
           style="fill:none;stroke:#000000;stroke-width:0.666667;stroke-linecap:butt;stroke-linejoin:bevel;stroke-miterlimit:1;stroke-dasharray:10, 6;stroke-dashoffset:0;stroke-opacity:1"
           id="path316" /></g><g
         id="g318"
         transform="matrix(6,0,0,6,701.10223,2107.5591)"><path
           d="m 100.125,47.43343 h 18.08334"
           style="fill:none;stroke:#000000;stroke-width:0.666667;stroke-linecap:butt;stroke-linejoin:round;stroke-miterlimit:10;stroke-dasharray:none;stroke-opacity:1"
           id="path320" /></g><g
         id="g322"
         transform="matrix(6,0,0,6,701.10223,2107.5591)"><path
           d="m 172.45833,46.590904 h 18.08334"
           style="fill:none;stroke:#000000;stroke-width:0.666667;stroke-linecap:butt;stroke-linejoin:round;stroke-miterlimit:10;stroke-dasharray:none;stroke-opacity:1"
           id="path324" /></g><g
         id="g326"
         transform="matrix(6,0,0,6,701.10223,2107.5591)"><path
           d="M 244.79167,51.820023 H 262.875"
           style="fill:none;stroke:#000000;stroke-width:0.666667;stroke-linecap:butt;stroke-linejoin:round;stroke-miterlimit:10;stroke-dasharray:none;stroke-opacity:1"
           id="path328" /></g><g
         id="g330"
         transform="matrix(6,0,0,6,701.10223,2107.5591)"><path
           d="m 317.125,73.112099 h 18.08334"
           style="fill:none;stroke:#000000;stroke-width:0.666667;stroke-linecap:butt;stroke-linejoin:round;stroke-miterlimit:10;stroke-dasharray:none;stroke-opacity:1"
           id="path332" /></g><g
         id="g334"
         transform="matrix(6,0,0,6,701.10223,2107.5591)"><path
           d="m 389.45834,69.991638 h 18.08332"
           style="fill:none;stroke:#000000;stroke-width:0.666667;stroke-linecap:butt;stroke-linejoin:round;stroke-miterlimit:10;stroke-dasharray:none;stroke-opacity:1"
           id="path336" /></g><g
         id="g338"
         transform="matrix(6,0,0,6,701.10223,2107.5591)"><path
           d="M 461.79166,70.941063 H 479.875"
           style="fill:none;stroke:#000000;stroke-width:0.666667;stroke-linecap:butt;stroke-linejoin:round;stroke-miterlimit:10;stroke-dasharray:none;stroke-opacity:1"
           id="path340" /></g><g
         id="g342"
         transform="matrix(6,0,0,6,701.10223,2107.5591)"><path
           d="m 100.125,320.90881 h 18.08334"
           style="fill:none;stroke:#000000;stroke-width:0.666667;stroke-linecap:butt;stroke-linejoin:round;stroke-miterlimit:10;stroke-dasharray:none;stroke-opacity:1"
           id="path344" /></g><g
         id="g346"
         transform="matrix(6,0,0,6,701.10223,2107.5591)"><path
           d="m 172.45833,301.89078 h 18.08334"
           style="fill:none;stroke:#000000;stroke-width:0.666667;stroke-linecap:butt;stroke-linejoin:round;stroke-miterlimit:10;stroke-dasharray:none;stroke-opacity:1"
           id="path348" /></g><g
         id="g350"
         transform="matrix(6,0,0,6,701.10223,2107.5591)"><path
           d="M 244.79167,212.76292 H 262.875"
           style="fill:none;stroke:#000000;stroke-width:0.666667;stroke-linecap:butt;stroke-linejoin:round;stroke-miterlimit:10;stroke-dasharray:none;stroke-opacity:1"
           id="path352" /></g><g
         id="g354"
         transform="matrix(6,0,0,6,701.10223,2107.5591)"><path
           d="m 317.125,274.51785 h 18.08334"
           style="fill:none;stroke:#000000;stroke-width:0.666667;stroke-linecap:butt;stroke-linejoin:round;stroke-miterlimit:10;stroke-dasharray:none;stroke-opacity:1"
           id="path356" /></g><g
         id="g358"
         transform="matrix(6,0,0,6,701.10223,2107.5591)"><path
           d="m 389.45834,279.44833 h 18.08332"
           style="fill:none;stroke:#000000;stroke-width:0.666667;stroke-linecap:butt;stroke-linejoin:round;stroke-miterlimit:10;stroke-dasharray:none;stroke-opacity:1"
           id="path360" /></g><g
         id="g362"
         transform="matrix(6,0,0,6,701.10223,2107.5591)"><path
           d="M 461.79166,329.82117 H 479.875"
           style="fill:none;stroke:#000000;stroke-width:0.666667;stroke-linecap:butt;stroke-linejoin:round;stroke-miterlimit:10;stroke-dasharray:none;stroke-opacity:1"
           id="path364" /></g><g
         id="g366"
         transform="matrix(6,0,0,6,701.10223,2107.5591)"><path
           d="M 91.083336,204.14685 V 99.432907 H 127.25 V 204.14685 H 91.083336"
           style="fill:none;stroke:#0000ff;stroke-width:0.666667;stroke-linecap:butt;stroke-linejoin:round;stroke-miterlimit:10;stroke-dasharray:none;stroke-opacity:1"
           id="path368" /></g><g
         id="g370"
         transform="matrix(6,0,0,6,701.10223,2107.5591)"><path
           d="m 163.41667,203.47165 v -73.508 h 36.16666 v 73.508 h -36.16666"
           style="fill:none;stroke:#0000ff;stroke-width:0.666667;stroke-linecap:butt;stroke-linejoin:round;stroke-miterlimit:10;stroke-dasharray:none;stroke-opacity:1"
           id="path372" /></g><g
         id="g374"
         transform="matrix(6,0,0,6,701.10223,2107.5591)"><path
           d="m 235.75,179.51891 v -56.28692 h 36.16666 v 56.28692 H 235.75"
           style="fill:none;stroke:#0000ff;stroke-width:0.666667;stroke-linecap:butt;stroke-linejoin:round;stroke-miterlimit:10;stroke-dasharray:none;stroke-opacity:1"
           id="path376" /></g><g
         id="g378"
         transform="matrix(6,0,0,6,701.10223,2107.5591)"><path
           d="M 308.08334,192.82281 V 129.62355 H 344.25 v 63.19926 h -36.16666"
           style="fill:none;stroke:#0000ff;stroke-width:0.666667;stroke-linecap:butt;stroke-linejoin:round;stroke-miterlimit:10;stroke-dasharray:none;stroke-opacity:1"
           id="path380" /></g><g
         id="g382"
         transform="matrix(6,0,0,6,701.10223,2107.5591)"><path
           d="M 380.41666,213.24353 V 128.1778 h 36.16668 v 85.06573 h -36.16668"
           style="fill:none;stroke:#0000ff;stroke-width:0.666667;stroke-linecap:butt;stroke-linejoin:round;stroke-miterlimit:10;stroke-dasharray:none;stroke-opacity:1"
           id="path384" /></g><g
         id="g386"
         transform="matrix(6,0,0,6,701.10223,2107.5591)"><path
           d="m 452.75,244.11189 v -82.73701 h 36.16666 v 82.73701 H 452.75"
           style="fill:none;stroke:#0000ff;stroke-width:0.666667;stroke-linecap:butt;stroke-linejoin:round;stroke-miterlimit:10;stroke-dasharray:none;stroke-opacity:1"
           id="path388" /></g><g
         id="g390"
         transform="matrix(6,0,0,6,701.10223,2107.5591)"><path
           d="M 91.083336,150.53519 H 127.25"
           style="fill:none;stroke:#ff0000;stroke-width:0.666667;stroke-linecap:butt;stroke-linejoin:round;stroke-miterlimit:10;stroke-dasharray:none;stroke-opacity:1"
           id="path392" /></g><g
         id="g394"
         transform="matrix(6,0,0,6,701.10223,2107.5591)"><path
           d="m 163.41667,182.49673 h 36.16666"
           style="fill:none;stroke:#ff0000;stroke-width:0.666667;stroke-linecap:butt;stroke-linejoin:round;stroke-miterlimit:10;stroke-dasharray:none;stroke-opacity:1"
           id="path396" /></g><g
         id="g398"
         transform="matrix(6,0,0,6,701.10223,2107.5591)"><path
           d="m 235.75,154.54321 h 36.16666"
           style="fill:none;stroke:#ff0000;stroke-width:0.666667;stroke-linecap:butt;stroke-linejoin:round;stroke-miterlimit:10;stroke-dasharray:none;stroke-opacity:1"
           id="path400" /></g><g
         id="g402"
         transform="matrix(6,0,0,6,701.10223,2107.5591)"><path
           d="M 308.08334,177.85973 H 344.25"
           style="fill:none;stroke:#ff0000;stroke-width:0.666667;stroke-linecap:butt;stroke-linejoin:round;stroke-miterlimit:10;stroke-dasharray:none;stroke-opacity:1"
           id="path404" /></g><g
         id="g406"
         transform="matrix(6,0,0,6,701.10223,2107.5591)"><path
           d="m 380.41666,169.28497 h 36.16668"
           style="fill:none;stroke:#ff0000;stroke-width:0.666667;stroke-linecap:butt;stroke-linejoin:round;stroke-miterlimit:10;stroke-dasharray:none;stroke-opacity:1"
           id="path408" /></g><g
         id="g410"
         transform="matrix(6,0,0,6,701.10223,2107.5591)"><path
           d="m 452.75,210.28087 h 36.16666"
           style="fill:none;stroke:#ff0000;stroke-width:0.666667;stroke-linecap:butt;stroke-linejoin:round;stroke-miterlimit:10;stroke-dasharray:none;stroke-opacity:1"
           id="path412" /></g><g
         id="g414"
         transform="matrix(6,0,0,6,1790.1022,4015.9026)"><path
           d="M 0,-4 V 4 M -4,0 h 8"
           style="fill:none;stroke:#ff0000;stroke-width:0.666667;stroke-linecap:butt;stroke-linejoin:miter;stroke-miterlimit:10;stroke-dasharray:none;stroke-opacity:1"
           id="path416" /></g><g
         id="g418"
         transform="matrix(6,0,0,6,2224.1022,3904.2365)"><path
           d="M 0,-4 V 4 M -4,0 h 8"
           style="fill:none;stroke:#ff0000;stroke-width:0.666667;stroke-linecap:butt;stroke-linejoin:miter;stroke-miterlimit:10;stroke-dasharray:none;stroke-opacity:1"
           id="path420" /></g><g
         id="g422"
         transform="matrix(6,0,0,6,2224.1022,3750.504)"><path
           d="M 0,-4 V 4 M -4,0 h 8"
           style="fill:none;stroke:#ff0000;stroke-width:0.666667;stroke-linecap:butt;stroke-linejoin:miter;stroke-miterlimit:10;stroke-dasharray:none;stroke-opacity:1"
           id="path424" /></g><g
         id="g426"
         transform="matrix(6,0,0,6,3092.1022,4258.0136)"><path
           d="M 0,-4 V 4 M -4,0 h 8"
           style="fill:none;stroke:#ff0000;stroke-width:0.666667;stroke-linecap:butt;stroke-linejoin:miter;stroke-miterlimit:10;stroke-dasharray:none;stroke-opacity:1"
           id="path428" /></g></g></g></svg>
