<?xml version="1.0" encoding="UTF-8" standalone="no"?>
<!-- Created with Inkscape (http://www.inkscape.org/) -->

<svg
   version="1.1"
   id="svg2"
   xml:space="preserve"
   width="793.33331"
   height="1122.6667"
   viewBox="0 0 793.33331 1122.6667"
   sodipodi:docname="batch.svg"
   inkscape:version="1.1.1 (3bf5ae0d25, 2021-09-20)"
   xmlns:inkscape="http://www.inkscape.org/namespaces/inkscape"
   xmlns:sodipodi="http://sodipodi.sourceforge.net/DTD/sodipodi-0.dtd"
   xmlns="http://www.w3.org/2000/svg"
   xmlns:svg="http://www.w3.org/2000/svg"><defs
     id="defs6"><clipPath
       clipPathUnits="userSpaceOnUse"
       id="clipPath18"><path
         d="M 0,0 H 560.00001 V 420 H 0 Z"
         id="path16" /></clipPath></defs><sodipodi:namedview
     id="namedview4"
     pagecolor="#ffffff"
     bordercolor="#666666"
     borderopacity="1.0"
     inkscape:pageshadow="2"
     inkscape:pageopacity="0.0"
     inkscape:pagecheckerboard="0"
     showgrid="false"
     inkscape:zoom="1.0997105"
     inkscape:cx="514.6809"
     inkscape:cy="566.96738"
     inkscape:window-width="1920"
     inkscape:window-height="1009"
     inkscape:window-x="3432"
     inkscape:window-y="344"
     inkscape:window-maximized="1"
     inkscape:current-layer="g10" /><g
     id="g8"
     inkscape:groupmode="layer"
     inkscape:label="batch"
     transform="matrix(1.3333333,0,0,-1.3333333,0,1122.6667)"><g
       id="g10"
       transform="matrix(0.125,0,0,-0.125,0,842)"><g
         id="g30"
         transform="matrix(6,0,0,6,701.10223,2107.5591)"><path
           d="M 73,374 H 507"
           style="fill:none;stroke:#262626;stroke-width:0.666667;stroke-linecap:square;stroke-linejoin:round;stroke-miterlimit:10;stroke-dasharray:none;stroke-opacity:1"
           id="path32" /></g><g
         id="g34"
         transform="matrix(6,0,0,6,701.10223,2107.5591)"><path
           d="M 73,31 H 507"
           style="fill:none;stroke:#262626;stroke-width:0.666667;stroke-linecap:square;stroke-linejoin:round;stroke-miterlimit:10;stroke-dasharray:none;stroke-opacity:1"
           id="path36" /></g><g
         id="g38"
         transform="matrix(6,0,0,6,701.10223,2107.5591)"><path
           d="m 73,374 v -4.34"
           style="fill:none;stroke:#262626;stroke-width:0.666667;stroke-linecap:square;stroke-linejoin:round;stroke-miterlimit:10;stroke-dasharray:none;stroke-opacity:1"
           id="path40" /></g><g
         id="g42"
         transform="matrix(6,0,0,6,701.10223,2107.5591)"><path
           d="m 135,374 v -4.34"
           style="fill:none;stroke:#262626;stroke-width:0.666667;stroke-linecap:square;stroke-linejoin:round;stroke-miterlimit:10;stroke-dasharray:none;stroke-opacity:1"
           id="path44" /></g><g
         id="g46"
         transform="matrix(6,0,0,6,701.10223,2107.5591)"><path
           d="m 197,374 v -4.34"
           style="fill:none;stroke:#262626;stroke-width:0.666667;stroke-linecap:square;stroke-linejoin:round;stroke-miterlimit:10;stroke-dasharray:none;stroke-opacity:1"
           id="path48" /></g><g
         id="g50"
         transform="matrix(6,0,0,6,701.10223,2107.5591)"><path
           d="m 259,374 v -4.34"
           style="fill:none;stroke:#262626;stroke-width:0.666667;stroke-linecap:square;stroke-linejoin:round;stroke-miterlimit:10;stroke-dasharray:none;stroke-opacity:1"
           id="path52" /></g><g
         id="g54"
         transform="matrix(6,0,0,6,701.10223,2107.5591)"><path
           d="m 321,374 v -4.34"
           style="fill:none;stroke:#262626;stroke-width:0.666667;stroke-linecap:square;stroke-linejoin:round;stroke-miterlimit:10;stroke-dasharray:none;stroke-opacity:1"
           id="path56" /></g><g
         id="g58"
         transform="matrix(6,0,0,6,701.10223,2107.5591)"><path
           d="m 383,374 v -4.34"
           style="fill:none;stroke:#262626;stroke-width:0.666667;stroke-linecap:square;stroke-linejoin:round;stroke-miterlimit:10;stroke-dasharray:none;stroke-opacity:1"
           id="path60" /></g><g
         id="g62"
         transform="matrix(6,0,0,6,701.10223,2107.5591)"><path
           d="m 445,374 v -4.34"
           style="fill:none;stroke:#262626;stroke-width:0.666667;stroke-linecap:square;stroke-linejoin:round;stroke-miterlimit:10;stroke-dasharray:none;stroke-opacity:1"
           id="path64" /></g><g
         id="g66"
         transform="matrix(6,0,0,6,701.10223,2107.5591)"><path
           d="m 507,374 v -4.34"
           style="fill:none;stroke:#262626;stroke-width:0.666667;stroke-linecap:square;stroke-linejoin:round;stroke-miterlimit:10;stroke-dasharray:none;stroke-opacity:1"
           id="path68" /></g><g
         id="g70"
         transform="matrix(6,0,0,6,701.10223,2107.5591)"><path
           d="m 73,31 v 4.339996"
           style="fill:none;stroke:#262626;stroke-width:0.666667;stroke-linecap:square;stroke-linejoin:round;stroke-miterlimit:10;stroke-dasharray:none;stroke-opacity:1"
           id="path72" /></g><g
         id="g74"
         transform="matrix(6,0,0,6,701.10223,2107.5591)"><path
           d="m 135,31 v 4.339996"
           style="fill:none;stroke:#262626;stroke-width:0.666667;stroke-linecap:square;stroke-linejoin:round;stroke-miterlimit:10;stroke-dasharray:none;stroke-opacity:1"
           id="path76" /></g><g
         id="g78"
         transform="matrix(6,0,0,6,701.10223,2107.5591)"><path
           d="m 197,31 v 4.339996"
           style="fill:none;stroke:#262626;stroke-width:0.666667;stroke-linecap:square;stroke-linejoin:round;stroke-miterlimit:10;stroke-dasharray:none;stroke-opacity:1"
           id="path80" /></g><g
         id="g82"
         transform="matrix(6,0,0,6,701.10223,2107.5591)"><path
           d="m 259,31 v 4.339996"
           style="fill:none;stroke:#262626;stroke-width:0.666667;stroke-linecap:square;stroke-linejoin:round;stroke-miterlimit:10;stroke-dasharray:none;stroke-opacity:1"
           id="path84" /></g><g
         id="g86"
         transform="matrix(6,0,0,6,701.10223,2107.5591)"><path
           d="m 321,31 v 4.339996"
           style="fill:none;stroke:#262626;stroke-width:0.666667;stroke-linecap:square;stroke-linejoin:round;stroke-miterlimit:10;stroke-dasharray:none;stroke-opacity:1"
           id="path88" /></g><g
         id="g90"
         transform="matrix(6,0,0,6,701.10223,2107.5591)"><path
           d="m 383,31 v 4.339996"
           style="fill:none;stroke:#262626;stroke-width:0.666667;stroke-linecap:square;stroke-linejoin:round;stroke-miterlimit:10;stroke-dasharray:none;stroke-opacity:1"
           id="path92" /></g><g
         id="g94"
         transform="matrix(6,0,0,6,701.10223,2107.5591)"><path
           d="m 445,31 v 4.339996"
           style="fill:none;stroke:#262626;stroke-width:0.666667;stroke-linecap:square;stroke-linejoin:round;stroke-miterlimit:10;stroke-dasharray:none;stroke-opacity:1"
           id="path96" /></g><g
         id="g98"
         transform="matrix(6,0,0,6,701.10223,2107.5591)"><path
           d="m 507,31 v 4.339996"
           style="fill:none;stroke:#262626;stroke-width:0.666667;stroke-linecap:square;stroke-linejoin:round;stroke-miterlimit:10;stroke-dasharray:none;stroke-opacity:1"
           id="path100" /></g><g
         id="g102"><g
           id="g104"
           transform="matrix(6,0,0,6,1139.1022,4383.5591)"><text
             transform="translate(-4,14)"
             style="font-variant:normal;font-weight:normal;font-size:13.333px;font-family:Helvetica;-inkscape-font-specification:Helvetica;writing-mode:lr-tb;fill:#262626;fill-opacity:1;fill-rule:nonzero;stroke:none"
             id="text108"><tspan
               x="0"
               y="0"
               id="tspan106">0</tspan></text></g></g><g
         id="g110"><g
           id="g112"
           transform="matrix(6,0,0,6,1511.1022,4383.5591)"><text
             transform="translate(-4,14)"
             style="font-variant:normal;font-weight:normal;font-size:13.333px;font-family:Helvetica;-inkscape-font-specification:Helvetica;writing-mode:lr-tb;fill:#262626;fill-opacity:1;fill-rule:nonzero;stroke:none"
             id="text116"><tspan
               x="0"
               y="0"
               id="tspan114">5</tspan></text></g></g><g
         id="g118"><g
           id="g120"
           transform="matrix(6,0,0,6,1883.1022,4383.5591)"><text
             transform="translate(-7.5,14)"
             style="font-variant:normal;font-weight:normal;font-size:13.333px;font-family:Helvetica;-inkscape-font-specification:Helvetica;writing-mode:lr-tb;fill:#262626;fill-opacity:1;fill-rule:nonzero;stroke:none"
             id="text124"><tspan
               x="0 7.4131479"
               y="0"
               sodipodi:role="line"
               id="tspan122">10</tspan></text></g></g><g
         id="g126"><g
           id="g128"
           transform="matrix(6,0,0,6,2255.1022,4383.5591)"><text
             transform="translate(-7.5,14)"
             style="font-variant:normal;font-weight:normal;font-size:13.333px;font-family:Helvetica;-inkscape-font-specification:Helvetica;writing-mode:lr-tb;fill:#262626;fill-opacity:1;fill-rule:nonzero;stroke:none"
             id="text132"><tspan
               x="0 7.4131479"
               y="0"
               sodipodi:role="line"
               id="tspan130">15</tspan></text></g></g><g
         id="g134"><g
           id="g136"
           transform="matrix(6,0,0,6,2627.1022,4383.5591)"><text
             transform="translate(-7.5,14)"
             style="font-variant:normal;font-weight:normal;font-size:13.333px;font-family:Helvetica;-inkscape-font-specification:Helvetica;writing-mode:lr-tb;fill:#262626;fill-opacity:1;fill-rule:nonzero;stroke:none"
             id="text140"><tspan
               x="0 7.4131479"
               y="0"
               sodipodi:role="line"
               id="tspan138">20</tspan></text></g></g><g
         id="g142"><g
           id="g144"
           transform="matrix(6,0,0,6,2999.1022,4383.5591)"><text
             transform="translate(-7.5,14)"
             style="font-variant:normal;font-weight:normal;font-size:13.333px;font-family:Helvetica;-inkscape-font-specification:Helvetica;writing-mode:lr-tb;fill:#262626;fill-opacity:1;fill-rule:nonzero;stroke:none"
             id="text148"><tspan
               x="0 7.4131479"
               y="0"
               sodipodi:role="line"
               id="tspan146">25</tspan></text></g></g><g
         id="g150"><g
           id="g152"
           transform="matrix(6,0,0,6,3371.1022,4383.5591)"><text
             transform="translate(-7.5,14)"
             style="font-variant:normal;font-weight:normal;font-size:13.333px;font-family:Helvetica;-inkscape-font-specification:Helvetica;writing-mode:lr-tb;fill:#262626;fill-opacity:1;fill-rule:nonzero;stroke:none"
             id="text156"><tspan
               x="0 7.4131479"
               y="0"
               sodipodi:role="line"
               id="tspan154">30</tspan></text></g></g><g
         id="g158"><g
           id="g160"
           transform="matrix(6,0,0,6,3743.1022,4383.5591)"><text
             transform="translate(-7.5,14)"
             style="font-variant:normal;font-weight:normal;font-size:13.333px;font-family:Helvetica;-inkscape-font-specification:Helvetica;writing-mode:lr-tb;fill:#262626;fill-opacity:1;fill-rule:nonzero;stroke:none"
             id="text164"><tspan
               x="0 7.4131479"
               y="0"
               sodipodi:role="line"
               id="tspan162">35</tspan></text></g></g><g
         id="g166"><g
           id="g168"
           transform="matrix(6,0,0,6,2441.1035,4493.559)"><text
             transform="translate(-34,15)"
             style="font-variant:normal;font-weight:normal;font-size:14.667px;font-family:Helvetica;-inkscape-font-specification:Helvetica;writing-mode:lr-tb;fill:#262626;fill-opacity:1;fill-rule:nonzero;stroke:none"
             id="text172"><tspan
               x="0 4.077426 12.232278 19.565779 23.643204 31.798056 39.952908 44.030334 47.286407 59.504021"
               y="0"
               sodipodi:role="line"
               id="tspan170">tested img</tspan></text></g></g><g
         id="g174"
         transform="matrix(6,0,0,6,701.10223,2107.5591)"><path
           d="M 73,374 V 31"
           style="fill:none;stroke:#262626;stroke-width:0.666667;stroke-linecap:square;stroke-linejoin:round;stroke-miterlimit:10;stroke-dasharray:none;stroke-opacity:1"
           id="path176" /></g><g
         id="g178"
         transform="matrix(6,0,0,6,701.10223,2107.5591)"><path
           d="M 507,374 V 31"
           style="fill:none;stroke:#262626;stroke-width:0.666667;stroke-linecap:square;stroke-linejoin:round;stroke-miterlimit:10;stroke-dasharray:none;stroke-opacity:1"
           id="path180" /></g><g
         id="g182"
         transform="matrix(6,0,0,6,701.10223,2107.5591)"><path
           d="m 73,374 h 4.339996"
           style="fill:none;stroke:#262626;stroke-width:0.666667;stroke-linecap:square;stroke-linejoin:round;stroke-miterlimit:10;stroke-dasharray:none;stroke-opacity:1"
           id="path184" /></g><g
         id="g186"
         transform="matrix(6,0,0,6,701.10223,2107.5591)"><path
           d="m 73,339.70001 h 4.339996"
           style="fill:none;stroke:#262626;stroke-width:0.666667;stroke-linecap:square;stroke-linejoin:round;stroke-miterlimit:10;stroke-dasharray:none;stroke-opacity:1"
           id="path188" /></g><g
         id="g190"
         transform="matrix(6,0,0,6,701.10223,2107.5591)"><path
           d="m 73,305.39999 h 4.339996"
           style="fill:none;stroke:#262626;stroke-width:0.666667;stroke-linecap:square;stroke-linejoin:round;stroke-miterlimit:10;stroke-dasharray:none;stroke-opacity:1"
           id="path192" /></g><g
         id="g194"
         transform="matrix(6,0,0,6,701.10223,2107.5591)"><path
           d="m 73,271.10001 h 4.339996"
           style="fill:none;stroke:#262626;stroke-width:0.666667;stroke-linecap:square;stroke-linejoin:round;stroke-miterlimit:10;stroke-dasharray:none;stroke-opacity:1"
           id="path196" /></g><g
         id="g198"
         transform="matrix(6,0,0,6,701.10223,2107.5591)"><path
           d="m 73,236.8 h 4.339996"
           style="fill:none;stroke:#262626;stroke-width:0.666667;stroke-linecap:square;stroke-linejoin:round;stroke-miterlimit:10;stroke-dasharray:none;stroke-opacity:1"
           id="path200" /></g><g
         id="g202"
         transform="matrix(6,0,0,6,701.10223,2107.5591)"><path
           d="m 73,202.5 h 4.339996"
           style="fill:none;stroke:#262626;stroke-width:0.666667;stroke-linecap:square;stroke-linejoin:round;stroke-miterlimit:10;stroke-dasharray:none;stroke-opacity:1"
           id="path204" /></g><g
         id="g206"
         transform="matrix(6,0,0,6,701.10223,2107.5591)"><path
           d="m 73,168.2 h 4.339996"
           style="fill:none;stroke:#262626;stroke-width:0.666667;stroke-linecap:square;stroke-linejoin:round;stroke-miterlimit:10;stroke-dasharray:none;stroke-opacity:1"
           id="path208" /></g><g
         id="g210"
         transform="matrix(6,0,0,6,701.10223,2107.5591)"><path
           d="m 73,133.90001 h 4.339996"
           style="fill:none;stroke:#262626;stroke-width:0.666667;stroke-linecap:square;stroke-linejoin:round;stroke-miterlimit:10;stroke-dasharray:none;stroke-opacity:1"
           id="path212" /></g><g
         id="g214"
         transform="matrix(6,0,0,6,701.10223,2107.5591)"><path
           d="m 73,99.599998 h 4.339996"
           style="fill:none;stroke:#262626;stroke-width:0.666667;stroke-linecap:square;stroke-linejoin:round;stroke-miterlimit:10;stroke-dasharray:none;stroke-opacity:1"
           id="path216" /></g><g
         id="g218"
         transform="matrix(6,0,0,6,701.10223,2107.5591)"><path
           d="m 73,65.300011 h 4.339996"
           style="fill:none;stroke:#262626;stroke-width:0.666667;stroke-linecap:square;stroke-linejoin:round;stroke-miterlimit:10;stroke-dasharray:none;stroke-opacity:1"
           id="path220" /></g><g
         id="g222"
         transform="matrix(6,0,0,6,701.10223,2107.5591)"><path
           d="m 73,31 h 4.339996"
           style="fill:none;stroke:#262626;stroke-width:0.666667;stroke-linecap:square;stroke-linejoin:round;stroke-miterlimit:10;stroke-dasharray:none;stroke-opacity:1"
           id="path224" /></g><g
         id="g226"
         transform="matrix(6,0,0,6,701.10223,2107.5591)"><path
           d="m 507,374 h -4.33997"
           style="fill:none;stroke:#262626;stroke-width:0.666667;stroke-linecap:square;stroke-linejoin:round;stroke-miterlimit:10;stroke-dasharray:none;stroke-opacity:1"
           id="path228" /></g><g
         id="g230"
         transform="matrix(6,0,0,6,701.10223,2107.5591)"><path
           d="m 507,339.70001 h -4.33997"
           style="fill:none;stroke:#262626;stroke-width:0.666667;stroke-linecap:square;stroke-linejoin:round;stroke-miterlimit:10;stroke-dasharray:none;stroke-opacity:1"
           id="path232" /></g><g
         id="g234"
         transform="matrix(6,0,0,6,701.10223,2107.5591)"><path
           d="m 507,305.39999 h -4.33997"
           style="fill:none;stroke:#262626;stroke-width:0.666667;stroke-linecap:square;stroke-linejoin:round;stroke-miterlimit:10;stroke-dasharray:none;stroke-opacity:1"
           id="path236" /></g><g
         id="g238"
         transform="matrix(6,0,0,6,701.10223,2107.5591)"><path
           d="m 507,271.10001 h -4.33997"
           style="fill:none;stroke:#262626;stroke-width:0.666667;stroke-linecap:square;stroke-linejoin:round;stroke-miterlimit:10;stroke-dasharray:none;stroke-opacity:1"
           id="path240" /></g><g
         id="g242"
         transform="matrix(6,0,0,6,701.10223,2107.5591)"><path
           d="m 507,236.8 h -4.33997"
           style="fill:none;stroke:#262626;stroke-width:0.666667;stroke-linecap:square;stroke-linejoin:round;stroke-miterlimit:10;stroke-dasharray:none;stroke-opacity:1"
           id="path244" /></g><g
         id="g246"
         transform="matrix(6,0,0,6,701.10223,2107.5591)"><path
           d="m 507,202.5 h -4.33997"
           style="fill:none;stroke:#262626;stroke-width:0.666667;stroke-linecap:square;stroke-linejoin:round;stroke-miterlimit:10;stroke-dasharray:none;stroke-opacity:1"
           id="path248" /></g><g
         id="g250"
         transform="matrix(6,0,0,6,701.10223,2107.5591)"><path
           d="m 507,168.2 h -4.33997"
           style="fill:none;stroke:#262626;stroke-width:0.666667;stroke-linecap:square;stroke-linejoin:round;stroke-miterlimit:10;stroke-dasharray:none;stroke-opacity:1"
           id="path252" /></g><g
         id="g254"
         transform="matrix(6,0,0,6,701.10223,2107.5591)"><path
           d="m 507,133.90001 h -4.33997"
           style="fill:none;stroke:#262626;stroke-width:0.666667;stroke-linecap:square;stroke-linejoin:round;stroke-miterlimit:10;stroke-dasharray:none;stroke-opacity:1"
           id="path256" /></g><g
         id="g258"
         transform="matrix(6,0,0,6,701.10223,2107.5591)"><path
           d="m 507,99.599998 h -4.33997"
           style="fill:none;stroke:#262626;stroke-width:0.666667;stroke-linecap:square;stroke-linejoin:round;stroke-miterlimit:10;stroke-dasharray:none;stroke-opacity:1"
           id="path260" /></g><g
         id="g262"
         transform="matrix(6,0,0,6,701.10223,2107.5591)"><path
           d="m 507,65.300011 h -4.33997"
           style="fill:none;stroke:#262626;stroke-width:0.666667;stroke-linecap:square;stroke-linejoin:round;stroke-miterlimit:10;stroke-dasharray:none;stroke-opacity:1"
           id="path264" /></g><g
         id="g266"
         transform="matrix(6,0,0,6,701.10223,2107.5591)"><path
           d="m 507,31 h -4.33997"
           style="fill:none;stroke:#262626;stroke-width:0.666667;stroke-linecap:square;stroke-linejoin:round;stroke-miterlimit:10;stroke-dasharray:none;stroke-opacity:1"
           id="path268" /></g><g
         id="g270"><g
           id="g272"
           transform="matrix(6,0,0,6,1107.1022,4351.5591)"><text
             transform="translate(-8,5.5)"
             style="font-variant:normal;font-weight:normal;font-size:13.333px;font-family:Helvetica;-inkscape-font-specification:Helvetica;writing-mode:lr-tb;fill:#262626;fill-opacity:1;fill-rule:nonzero;stroke:none"
             id="text276"><tspan
               x="0"
               y="0"
               id="tspan274">0</tspan></text></g></g><g
         id="g278"><g
           id="g280"
           transform="matrix(6,0,0,6,1107.1022,4145.7592)"><text
             transform="translate(-19,5.5)"
             style="font-variant:normal;font-weight:normal;font-size:13.333px;font-family:Helvetica;-inkscape-font-specification:Helvetica;writing-mode:lr-tb;fill:#262626;fill-opacity:1;fill-rule:nonzero;stroke:none"
             id="text284"><tspan
               x="0 7.4131479 11.119722"
               y="0"
               sodipodi:role="line"
               id="tspan282">0.1</tspan></text></g></g><g
         id="g286"><g
           id="g288"
           transform="matrix(6,0,0,6,1107.1022,3939.959)"><text
             transform="translate(-19,5.5)"
             style="font-variant:normal;font-weight:normal;font-size:13.333px;font-family:Helvetica;-inkscape-font-specification:Helvetica;writing-mode:lr-tb;fill:#262626;fill-opacity:1;fill-rule:nonzero;stroke:none"
             id="text292"><tspan
               x="0 7.4131479 11.119722"
               y="0"
               sodipodi:role="line"
               id="tspan290">0.2</tspan></text></g></g><g
         id="g294"><g
           id="g296"
           transform="matrix(6,0,0,6,1107.1022,3734.1591)"><text
             transform="translate(-19,5.5)"
             style="font-variant:normal;font-weight:normal;font-size:13.333px;font-family:Helvetica;-inkscape-font-specification:Helvetica;writing-mode:lr-tb;fill:#262626;fill-opacity:1;fill-rule:nonzero;stroke:none"
             id="text300"><tspan
               x="0 7.4131479 11.119722"
               y="0"
               sodipodi:role="line"
               id="tspan298">0.3</tspan></text></g></g><g
         id="g302"><g
           id="g304"
           transform="matrix(6,0,0,6,1107.1022,3528.3591)"><text
             transform="translate(-19,5.5)"
             style="font-variant:normal;font-weight:normal;font-size:13.333px;font-family:Helvetica;-inkscape-font-specification:Helvetica;writing-mode:lr-tb;fill:#262626;fill-opacity:1;fill-rule:nonzero;stroke:none"
             id="text308"><tspan
               x="0 7.4131479 11.119722"
               y="0"
               sodipodi:role="line"
               id="tspan306">0.4</tspan></text></g></g><g
         id="g310"><g
           id="g312"
           transform="matrix(6,0,0,6,1107.1022,3322.5591)"><text
             transform="translate(-19,5.5)"
             style="font-variant:normal;font-weight:normal;font-size:13.333px;font-family:Helvetica;-inkscape-font-specification:Helvetica;writing-mode:lr-tb;fill:#262626;fill-opacity:1;fill-rule:nonzero;stroke:none"
             id="text316"><tspan
               x="0 7.4131479 11.119722"
               y="0"
               sodipodi:role="line"
               id="tspan314">0.5</tspan></text></g></g><g
         id="g318"><g
           id="g320"
           transform="matrix(6,0,0,6,1107.1022,3116.7591)"><text
             transform="translate(-19,5.5)"
             style="font-variant:normal;font-weight:normal;font-size:13.333px;font-family:Helvetica;-inkscape-font-specification:Helvetica;writing-mode:lr-tb;fill:#262626;fill-opacity:1;fill-rule:nonzero;stroke:none"
             id="text324"><tspan
               x="0 7.4131479 11.119722"
               y="0"
               sodipodi:role="line"
               id="tspan322">0.6</tspan></text></g></g><g
         id="g326"><g
           id="g328"
           transform="matrix(6,0,0,6,1107.1022,2910.9591)"><text
             transform="translate(-19,5.5)"
             style="font-variant:normal;font-weight:normal;font-size:13.333px;font-family:Helvetica;-inkscape-font-specification:Helvetica;writing-mode:lr-tb;fill:#262626;fill-opacity:1;fill-rule:nonzero;stroke:none"
             id="text332"><tspan
               x="0 7.4131479 11.119722"
               y="0"
               sodipodi:role="line"
               id="tspan330">0.7</tspan></text></g></g><g
         id="g334"><g
           id="g336"
           transform="matrix(6,0,0,6,1107.1022,2705.1591)"><text
             transform="translate(-19,5.5)"
             style="font-variant:normal;font-weight:normal;font-size:13.333px;font-family:Helvetica;-inkscape-font-specification:Helvetica;writing-mode:lr-tb;fill:#262626;fill-opacity:1;fill-rule:nonzero;stroke:none"
             id="text340"><tspan
               x="0 7.4131479 11.119722"
               y="0"
               sodipodi:role="line"
               id="tspan338">0.8</tspan></text></g></g><g
         id="g342"><g
           id="g344"
           transform="matrix(6,0,0,6,1107.1022,2499.3591)"><text
             transform="translate(-19,5.5)"
             style="font-variant:normal;font-weight:normal;font-size:13.333px;font-family:Helvetica;-inkscape-font-specification:Helvetica;writing-mode:lr-tb;fill:#262626;fill-opacity:1;fill-rule:nonzero;stroke:none"
             id="text348"><tspan
               x="0 7.4131479 11.119722"
               y="0"
               sodipodi:role="line"
               id="tspan346">0.9</tspan></text></g></g><g
         id="g350"><g
           id="g352"
           transform="matrix(6,0,0,6,1107.1022,2293.5591)"><text
             transform="translate(-8,5.5)"
             style="font-variant:normal;font-weight:normal;font-size:13.333px;font-family:Helvetica;-inkscape-font-specification:Helvetica;writing-mode:lr-tb;fill:#262626;fill-opacity:1;fill-rule:nonzero;stroke:none"
             id="text356"><tspan
               x="0"
               y="0"
               id="tspan354">1</tspan></text></g></g><g
         id="g358"><g
           id="g360"
           transform="matrix(-2.6e-7,-6,6,-2.6e-7,969.10224,3322.5581)"><text
             transform="translate(-11,-4)"
             style="font-variant:normal;font-weight:normal;font-size:14.667px;font-family:Helvetica;-inkscape-font-specification:Helvetica;writing-mode:lr-tb;fill:#262626;fill-opacity:1;fill-rule:nonzero;stroke:none"
             id="text364"><tspan
               x="0 8.9615374"
               y="0"
               sodipodi:role="line"
               id="tspan362">FM</tspan></text></g></g><g
         id="g366"
         transform="matrix(6,0,0,6,701.10223,2107.5591)"><path
           d="M 85.400002,113.1517 97.800003,172.68858 110.2,135.98326 122.6,113.305 135,181.37097 147.39999,146.87408 159.8,165.29659 172.2,140.09145 184.60001,131.57751 197,236.8365 209.39999,93.147255 221.8,105.09144 234.2,242.91208 246.60001,144.64536 259,169.55785 l 12.39999,0.42958 12.4,-28.94802 12.40002,-21.84097 12.4,51.24391 12.39999,13.08722 12.39999,-92.132681 12.4,12.375751 12.40002,40.54403 12.4,-48.802998 L 383,149.36299 l 12.39999,-58.221327 12.4,-10.154839 12.40002,3.986374 12.4,108.626972 L 445,85.900002 l 12.39999,-14.79538 12.4,54.064558 12.40002,-11.17743 12.4,21.77896"
           style="fill:none;stroke:#0072bd;stroke-width:0.666667;stroke-linecap:butt;stroke-linejoin:round;stroke-miterlimit:10;stroke-dasharray:none;stroke-opacity:1"
           id="path368" /></g><g
         id="g370"
         transform="matrix(6,0,0,6,701.10223,2107.5591)"><path
           d="M 85.400002,162.04298 97.800003,153.52904 110.2,169.13367 122.6,157.86148 135,167.53596 147.39999,146.4482 159.8,161.5817 172.2,148.06036 184.60001,162.70938 197,187.868 209.39999,103.88318 221.8,137.82623 234.2,241.12062 246.60001,171.38365 259,212.19638 l 12.39999,-25.53622 12.4,9.28183 12.40002,-82.03362 12.4,93.47192 12.39999,-51.8823 12.39999,-50.21077 12.4,40.42164 12.40002,11.14922 12.4,-11.2959 12.39999,10.85268 12.39999,-67.876179 12.4,1.869942 12.40002,27.440137 12.4,113.11547 L 445,122.95319 l 12.39999,-52.377873 12.4,30.253963 12.40002,25.01541 12.4,31.91511"
           style="fill:none;stroke:#d95319;stroke-width:0.666667;stroke-linecap:butt;stroke-linejoin:round;stroke-miterlimit:10;stroke-dasharray:none;stroke-opacity:1"
           id="path372" /></g><g
         id="g374"
         transform="matrix(6,0,0,6,701.10223,2107.5591)"><path
           d="M 85.400002,104.11623 97.800003,152.33047 110.2,135.06685 l 12.4,-1.03868 12.4,40.94261 12.39999,-23.83601 12.40001,14.56021 12.4,-16.25655 12.40001,3.45825 L 197,151.70889 209.39999,129.42465 221.8,127.21645 234.2,213.33174 246.60001,144.03311 259,121.89902 l 12.39999,39.57844 12.4,-41.53312 12.40002,10.55325 12.4,38.82828 L 321,229.42848 333.39999,94.015999 l 12.4,50.597301 12.40002,25.34184 12.4,-49.4825 12.39999,33.93598 12.39999,-56.186948 12.4,-3.617287 12.40002,24.119725 12.4,22.99905 12.39999,-41.1722 12.39999,-18.452548 12.4,18.181358 12.40002,-26.419327 12.4,80.225207"
           style="fill:none;stroke:#edb120;stroke-width:0.666667;stroke-linecap:butt;stroke-linejoin:round;stroke-miterlimit:10;stroke-dasharray:none;stroke-opacity:1"
           id="path376" /></g><g
         id="g378"
         transform="matrix(6,0,0,6,701.10223,2107.5591)"><path
           d="M 85.400002,122.98284 97.800003,159.74362 110.2,143.29259 122.6,132.62094 135,157.54164 147.39999,155.79105 159.8,167.16583 172.2,154.54549 184.60001,131.48192 197,162.62411 209.39999,105.56142 221.8,117.24899 234.2,202.60263 246.60001,151.54111 259,183.23387 l 12.39999,-26.72705 12.4,-33.76729 12.40002,34.32308 12.4,56.70492 L 321,183.51106 l 12.39999,-54.84761 12.4,20.03263 12.40002,8.71408 12.4,-33.07703 12.39999,38.11053 12.39999,-75.070964 12.4,16.451504 12.40002,16.988 12.4,85.69725 L 445,92.340828 l 12.39999,-5.103905 12.4,6.597611 12.40002,67.973586 12.4,4.73219"
           style="fill:none;stroke:#7e2f8e;stroke-width:0.666667;stroke-linecap:butt;stroke-linejoin:round;stroke-miterlimit:10;stroke-dasharray:none;stroke-opacity:1"
           id="path380" /></g><g
         id="g382"
         transform="matrix(6,0,0,6,701.10223,2107.5591)"><path
           d="M 85.400002,211.51918 97.800003,172.56129 110.2,136.17186 l 12.4,-15.76189 12.4,27.58484 12.39999,14.3071 12.40001,2.68555 12.4,-23.3302 12.40001,7.25721 12.39999,-2.48019 12.39999,0.88353 12.40001,-2.15706 12.4,71.7043 12.40001,-52.72999 12.39999,25.94239 12.39999,15.48505 12.4,-18.80688 12.40002,-46.6996 12.4,55.41773 12.39999,9.13692 12.39999,-83.02038 12.4,20.5415 12.40002,23.07895 12.4,-43.37949 12.39999,42.84357 12.39999,-54.95591 12.4,-24.442375 12.40002,32.217495 12.4,148.97713 L 445,96.788094 l 12.39999,-6.144051 12.4,-3.78685 12.40002,51.374327 12.4,37.04122"
           style="fill:none;stroke:#77ac30;stroke-width:0.666667;stroke-linecap:butt;stroke-linejoin:round;stroke-miterlimit:10;stroke-dasharray:none;stroke-opacity:1"
           id="path384" /></g><g
         id="g386"
         transform="matrix(6,0,0,6,701.10223,2107.5591)"><path
           d="m 85.400002,178.10899 12.400001,-30.1226 12.399997,24.53372 12.4,-25.46234 12.4,43.89148 12.39999,-16.64641 12.40001,0.0276 12.4,6.56971 12.40001,-12.66779 L 197,248.51115 209.39999,150.7338 221.8,165.37936 234.2,216.8811 246.60001,168.23857 259,209.98552 l 12.39999,-0.0236 12.4,1.9088 12.40002,-62.87716 12.4,80.84736 L 321,210.61478 l 12.39999,-81.12894 12.4,13.20106 12.40002,35.10792 12.4,-47.01677 12.39999,48.59568 12.39999,-81.576886 12.4,7.722106 12.40002,11.93481 12.4,114.91207 L 445,85.872993 l 12.39999,13.134385 12.4,31.947772 12.40002,59.65056 12.4,4.05966"
           style="fill:none;stroke:#4dbeee;stroke-width:0.666667;stroke-linecap:butt;stroke-linejoin:round;stroke-miterlimit:10;stroke-dasharray:none;stroke-opacity:1"
           id="path388" /></g><g
         id="g390"
         transform="matrix(6,0,0,6,701.10223,2107.5591)"><path
           d="M 215,361 V 259 H 89 v 102 z"
           style="fill:#ffffff;fill-opacity:1;fill-rule:nonzero;stroke:none"
           id="path392" /></g><g
         id="g394"
         transform="translate(-109.11963)"><g
           id="g396"
           transform="matrix(6,0,0,6,1517.1022,3721.2665)"><text
             transform="translate(0,5)"
             style="font-variant:normal;font-weight:normal;font-size:12px;font-family:Helvetica;-inkscape-font-specification:Helvetica;writing-mode:lr-tb;fill:#000000;fill-opacity:1;fill-rule:nonzero;stroke:none"
             id="text400"><tspan
               x="0 6.6719999 13.344 16.68 22.68 29.351999 32.688 38.688 41.352001 47.352001 54.023998 57.360001 60.695999"
               y="0"
               sodipodi:role="line"
               id="tspan398">batch size: 2</tspan></text></g></g><g
         id="g402"
         transform="matrix(2.5900116,0,0,6,1018.2311,2107.5591)"><path
           d="m 93,268.95123 h 40"
           style="fill:none;stroke:#0072bd;stroke-width:0.666667;stroke-linecap:butt;stroke-linejoin:round;stroke-miterlimit:10;stroke-dasharray:none;stroke-opacity:1"
           id="path404" /></g><g
         id="g406"
         transform="translate(-109.11963)"><g
           id="g408"
           transform="matrix(6,0,0,6,1517.1022,3819.7834)"><text
             transform="translate(0,5)"
             style="font-variant:normal;font-weight:normal;font-size:12px;font-family:Helvetica;-inkscape-font-specification:Helvetica;writing-mode:lr-tb;fill:#000000;fill-opacity:1;fill-rule:nonzero;stroke:none"
             id="text412"><tspan
               x="0 6.6719999 13.344 16.68 22.68 29.351999 32.688 38.688 41.352001 47.352001 54.023998 57.360001 60.695999"
               y="0"
               sodipodi:role="line"
               id="tspan410">batch size: 4</tspan></text></g></g><g
         id="g414"
         transform="matrix(2.5900116,0,0,6,1018.2311,2107.5591)"><path
           d="m 93,285.37073 h 40"
           style="fill:none;stroke:#d95319;stroke-width:0.666667;stroke-linecap:butt;stroke-linejoin:round;stroke-miterlimit:10;stroke-dasharray:none;stroke-opacity:1"
           id="path416" /></g><g
         id="g418"
         transform="translate(-109.11963)"><g
           id="g420"
           transform="matrix(6,0,0,6,1517.1022,3918.3006)"><text
             transform="translate(0,5)"
             style="font-variant:normal;font-weight:normal;font-size:12px;font-family:Helvetica;-inkscape-font-specification:Helvetica;writing-mode:lr-tb;fill:#000000;fill-opacity:1;fill-rule:nonzero;stroke:none"
             id="text424"><tspan
               x="0 6.6719999 13.344 16.68 22.68 29.351999 32.688 38.688 41.352001 47.352001 54.023998 57.360001 60.695999"
               y="0"
               sodipodi:role="line"
               id="tspan422">batch size: 8</tspan></text></g></g><g
         id="g426"
         transform="matrix(2.5900116,0,0,6,1018.2311,2107.5591)"><path
           d="m 93,301.79025 h 40"
           style="fill:none;stroke:#edb120;stroke-width:0.666667;stroke-linecap:butt;stroke-linejoin:round;stroke-miterlimit:10;stroke-dasharray:none;stroke-opacity:1"
           id="path428" /></g><g
         id="g430"
         transform="translate(-109.11963)"><g
           id="g432"
           transform="matrix(6,0,0,6,1517.1022,4016.8176)"><text
             transform="translate(0,5)"
             style="font-variant:normal;font-weight:normal;font-size:12px;font-family:Helvetica;-inkscape-font-specification:Helvetica;writing-mode:lr-tb;fill:#000000;fill-opacity:1;fill-rule:nonzero;stroke:none"
             id="text436"><tspan
               x="0 6.6719999 13.344 16.68 22.68 29.351999 32.688 38.688 41.352001 47.352001 54.023998 57.360001 60.695999 67.367996"
               y="0"
               sodipodi:role="line"
               id="tspan434">batch size: 15</tspan></text></g></g><g
         id="g438"
         transform="matrix(2.5900116,0,0,6,1018.2311,2107.5591)"><path
           d="m 93,318.20975 h 40"
           style="fill:none;stroke:#7e2f8e;stroke-width:0.666667;stroke-linecap:butt;stroke-linejoin:round;stroke-miterlimit:10;stroke-dasharray:none;stroke-opacity:1"
           id="path440" /></g><g
         id="g442"
         transform="translate(-109.11963)"><g
           id="g444"
           transform="matrix(6,0,0,6,1517.1022,4115.3347)"><text
             transform="translate(0,5)"
             style="font-variant:normal;font-weight:normal;font-size:12px;font-family:Helvetica;-inkscape-font-specification:Helvetica;writing-mode:lr-tb;fill:#000000;fill-opacity:1;fill-rule:nonzero;stroke:none"
             id="text448"><tspan
               x="0 6.6719999 13.344 16.68 22.68 29.351999 32.688 38.688 41.352001 47.352001 54.023998 57.360001 60.695999 67.367996"
               y="0"
               sodipodi:role="line"
               id="tspan446">batch size: 20</tspan></text></g></g><g
         id="g450"
         transform="matrix(2.5900116,0,0,6,1018.2311,2107.5591)"><path
           d="m 93,334.62927 h 40"
           style="fill:none;stroke:#77ac30;stroke-width:0.666667;stroke-linecap:butt;stroke-linejoin:round;stroke-miterlimit:10;stroke-dasharray:none;stroke-opacity:1"
           id="path452" /></g><g
         id="g454"
         transform="translate(-109.11963)"><g
           id="g456"
           transform="matrix(6,0,0,6,1517.1022,4213.8517)"><text
             transform="translate(0,5)"
             style="font-variant:normal;font-weight:normal;font-size:12px;font-family:Helvetica;-inkscape-font-specification:Helvetica;writing-mode:lr-tb;fill:#000000;fill-opacity:1;fill-rule:nonzero;stroke:none"
             id="text460"><tspan
               x="0 6.6719999 13.344 16.68 22.68 29.351999 32.688 38.688 41.352001 47.352001 54.023998 57.360001 60.695999 67.367996"
               y="0"
               sodipodi:role="line"
               id="tspan458">batch size: 30</tspan></text></g></g><g
         id="g462"
         transform="matrix(2.5900116,0,0,6,1018.2311,2107.5591)"><path
           d="m 93,351.04877 h 40"
           style="fill:none;stroke:#4dbeee;stroke-width:0.666667;stroke-linecap:butt;stroke-linejoin:round;stroke-miterlimit:10;stroke-dasharray:none;stroke-opacity:1"
           id="path464" /></g><g
         id="g466"
         transform="matrix(6,0,0,6,701.10223,2107.5591)"><path
           d="M 89,361 V 259 h 126 v 102 z"
           style="fill:none;stroke:#262626;stroke-width:0.666667;stroke-linecap:butt;stroke-linejoin:miter;stroke-miterlimit:10;stroke-dasharray:none;stroke-opacity:1"
           id="path468" /></g></g></g></svg>
