<?xml version="1.0" encoding="UTF-8" standalone="no"?>
<!-- Generator: Adobe Illustrator 25.0.0, SVG Export Plug-In . SVG Version: 6.00 Build 0)  -->

<svg
   version="1.1"
   id="Livello_1"
   x="0px"
   y="0px"
   viewBox="0 0 595.3 841.9"
   style="enable-background:new 0 0 595.3 841.9;"
   xml:space="preserve"
   sodipodi:docname="class.svg"
   inkscape:version="1.1.1 (3bf5ae0d25, 2021-09-20)"
   xmlns:inkscape="http://www.inkscape.org/namespaces/inkscape"
   xmlns:sodipodi="http://sodipodi.sourceforge.net/DTD/sodipodi-0.dtd"
   xmlns:xlink="http://www.w3.org/1999/xlink"
   xmlns="http://www.w3.org/2000/svg"
   xmlns:svg="http://www.w3.org/2000/svg"><defs
   id="defs55" /><sodipodi:namedview
   id="namedview53"
   pagecolor="#ffffff"
   bordercolor="#666666"
   borderopacity="1.0"
   inkscape:pageshadow="2"
   inkscape:pageopacity="0.0"
   inkscape:pagecheckerboard="0"
   showgrid="false"
   inkscape:zoom="1.0369402"
   inkscape:cx="297.9921"
   inkscape:cy="420.95001"
   inkscape:window-width="1920"
   inkscape:window-height="1009"
   inkscape:window-x="3432"
   inkscape:window-y="344"
   inkscape:window-maximized="1"
   inkscape:current-layer="Livello_1" />
<style
   type="text/css"
   id="style2">
	.st0{fill:none;stroke:#000000;stroke-width:0.75;stroke-miterlimit:10;}
	.st1{font-family:'MyriadPro-Regular';}
	.st2{font-size:12px;}
	.st3{fill:none;stroke:#F83012;stroke-miterlimit:10;}
	.st4{fill:#F83012;}
</style>
<g
   id="g6">
	
		<image
   style="overflow:visible;"
   width="404"
   height="404"
   xlink:href="E21F3616.jpg"
   transform="matrix(0.451 0 0 -0.4511 317.1046 323.503)"
   id="image4">
	</image>
</g>
<g
   id="g10">
	
		<image
   style="overflow:visible;"
   width="404"
   height="404"
   xlink:href="E21F361A.jpg"
   transform="matrix(0.451 0 0 -0.4511 9.7835 323.503)"
   id="image8">
	</image>
</g>
<g
   id="g26">
	<line
   x1="317.1"
   y1="341.6"
   x2="499.3"
   y2="341.6"
   id="line12" />
	<g
   id="g24">
		<line
   class="st0"
   x1="322.7"
   y1="341.6"
   x2="493.7"
   y2="341.6"
   id="line14" />
		<g
   id="g18">
			<polygon
   points="317.1,345.3 323.4,341.5 317.1,337.8    "
   id="polygon16" />
		</g>
		<g
   id="g22">
			<polygon
   points="499.3,345.3 493,341.5 499.3,337.8    "
   id="polygon20" />
		</g>
	</g>
</g>
<text
   class="st1 st2"
   id="text28"
   x="353.50247"
   y="359.6163">\texttt{outputSize}</text>
<g
   id="g38">
	<g
   id="g36">
		<line
   class="st3"
   x1="204.7"
   y1="232.4"
   x2="295"
   y2="232.4"
   id="line30" />
		<g
   id="g34">
			<path
   class="st4"
   d="M293.2,232.4l-2.2-3.6l0.1-0.1l5.9,2.3c2,0.5,4.1,0.9,6.1,1.4c-2,0.5-4.1,0.9-6.1,1.4l-5.9,2.3L291,236     L293.2,232.4z"
   id="path32" />
		</g>
	</g>
</g>
<g
   id="g48">
	<g
   id="g46">
		<path
   class="st3"
   d="M473.7,264.1l9.2-16.2c14.9-24.5,43.5-37.8,70.1-30.1"
   id="path40" />
		<g
   id="g44">
			<path
   class="st4"
   d="M551.3,217.4l-0.9-4.1l0.1,0l4.8,4.1c1.8,1.1,3.6,2.2,5.4,3.3c-2.1-0.3-4.2-0.5-6.2-0.7l-6.3,0.3l-0.1-0.1     L551.3,217.4z"
   id="path42" />
		</g>
	</g>
</g>
<rect
   x="454.7"
   y="264.1"
   class="st3"
   width="23.1"
   height="17.3"
   id="rect50" />
</svg>
