<?xml version="1.0" encoding="utf-8"?>
<!-- Generator: Adobe Illustrator 25.2.3, SVG Export Plug-In . SVG Version: 6.00 Build 0)  -->
<svg version="1.1" id="Livello_1" xmlns="http://www.w3.org/2000/svg" xmlns:xlink="http://www.w3.org/1999/xlink" x="0px" y="0px"
	 viewBox="0 0 1467.3 490.8" style="enable-background:new 0 0 1467.3 490.8;" xml:space="preserve">
<style type="text/css">
	.st0{fill:#FFFFFF;stroke:#1B1464;stroke-miterlimit:10;}
	.st1{opacity:0.8;}
	.st2{fill:none;stroke:#FCEE21;stroke-miterlimit:10;}
	.st3{fill:none;stroke:#FCEE21;stroke-miterlimit:10;stroke-dasharray:1.9898,1.9898;}
	.st4{fill:none;stroke:#FF0000;stroke-miterlimit:10;}
	.st5{fill:none;stroke:#FF0000;stroke-miterlimit:10;stroke-dasharray:2.037,2.037;}
	.st6{fill:none;stroke:#FF0000;stroke-miterlimit:10;stroke-dasharray:2.202,2.202;}
	.st7{fill:none;stroke:#FF0000;stroke-miterlimit:10;stroke-dasharray:2;}
	.st8{font-family:'MyriadPro-Regular';}
	.st9{font-size:30px;}
	.st10{fill:none;stroke:#FF0000;stroke-miterlimit:10;stroke-dasharray:1.8782,1.8782;}
	.st11{fill:none;stroke:#FF0000;stroke-miterlimit:10;stroke-dasharray:2.0173,2.0173;}
	.st12{fill:none;stroke:#F7931E;stroke-miterlimit:10;stroke-dasharray:2;}
	.st13{fill:none;stroke:#000000;stroke-width:0.5;stroke-miterlimit:10;}
	.st14{fill:#8C6239;stroke:#8C6239;stroke-miterlimit:10;}
	.st15{fill:none;stroke:#534741;stroke-width:2;stroke-miterlimit:10;}
	.st16{font-size:20px;}
</style>
<g>
	<rect x="329.8" y="120.1" class="st0" width="148.3" height="148.3"/>
	<rect x="338.5" y="128.3" class="st0" width="148.3" height="148.3"/>
	<rect x="347.2" y="138.3" class="st0" width="148.3" height="148.3"/>
	<rect x="355.9" y="146.6" class="st0" width="148.3" height="148.3"/>
	<rect x="364.6" y="154.3" class="st0" width="148.3" height="148.3"/>
	<rect x="373.3" y="162.5" class="st0" width="148.3" height="148.3"/>
	<rect x="382" y="170.3" class="st0" width="148.3" height="148.3"/>
	<rect x="390.7" y="178.5" class="st0" width="148.3" height="148.3"/>
</g>
<g id="frame_x5F_0_x5F_027.tiff">
	<defs>
		<polygon id="SVGID_1_" points="35.2,147.1 35.2,287.2 175.3,169.7 175.3,29.6 		"/>
	</defs>
	<clipPath id="SVGID_2_">
		<use xlink:href="#SVGID_1_"  style="overflow:visible;"/>
	</clipPath>
	<g style="clip-path:url(#SVGID_2_);">
		
			<image style="overflow:visible;" width="256" height="256" id="frame_x5F_0_x5F_027_1_" xlink:href="2D32A681ED5E3F8A.jpg"  transform="matrix(0.5469 -0.4589 0 0.5469 35.2443 147.1391)">
		</image>
	</g>
</g>
<g class="st1">
	<g>
		<path class="st2" d="M119,115.5c0-0.3,0.1-0.7,0.1-1c-0.3,0.1-0.6,0.2-0.9,0.5"/>
		<path class="st3" d="M116.8,116.3c-2.9,3-6.5,8.6-7,10.1c-2,5.9-3.2,4.8-5,10.7c-1.7,5.5-4.9,10.5-7.8,15.5
			c-2.1,3.6-3.4,7.5-5,11.2c-2.5,5.9-4.4,8.2-4.3,14.5c0,0.9,1.6,3.8,2.5,4.2c1,0.5,2.8,1.8,3.9,1.7c4.7-0.6,10-4.8,12.3-9.5
			c3.7-7.5,4.7-16.7,6.4-24.8c2.3-10.7,4.6-22.2,6.1-33.4"/>
	</g>
</g>
<g id="gt_x5F_0_x5F_027.tiff">
	<defs>
		<polygon id="SVGID_3_" points="33.8,264.1 33.8,403.2 172.9,286.5 172.9,147.5 		"/>
	</defs>
	<clipPath id="SVGID_4_">
		<use xlink:href="#SVGID_3_"  style="overflow:visible;"/>
	</clipPath>
	<g style="clip-path:url(#SVGID_4_);">
		
			<image style="overflow:visible;" width="256" height="256" id="gt_x5F_0_x5F_027_1_" xlink:href="2D32A681ED5E3F8E.png"  transform="matrix(0.5432 -0.4558 0 0.5432 33.845 264.1336)">
		</image>
	</g>
</g>
<g>
	<g>
		<polyline class="st4" points="166.6,89 166.6,90 165.9,90.7 		"/>
		<line class="st5" x1="164.3" y1="92" x2="146.4" y2="107.1"/>
		<polyline class="st4" points="145.6,107.7 144.8,108.4 144.8,107.4 		"/>
		<line class="st6" x1="144.8" y1="105.2" x2="144.8" y2="88.6"/>
		<polyline class="st4" points="144.8,87.5 144.8,86.5 145.6,85.9 		"/>
		<line class="st5" x1="147.2" y1="84.6" x2="165.1" y2="69.5"/>
		<polyline class="st4" points="165.9,68.9 166.6,68.2 166.6,69.2 		"/>
		<line class="st6" x1="166.6" y1="71.4" x2="166.6" y2="87.9"/>
	</g>
</g>
<g>
	<g>
		<polyline class="st4" points="166.6,204.2 166.6,205.2 165.9,205.8 		"/>
		<line class="st5" x1="164.3" y1="207.1" x2="146.4" y2="222.2"/>
		<polyline class="st4" points="145.6,222.8 144.8,223.5 144.8,222.5 		"/>
		<line class="st6" x1="144.8" y1="220.3" x2="144.8" y2="203.8"/>
		<polyline class="st4" points="144.8,202.7 144.8,201.7 145.6,201 		"/>
		<line class="st5" x1="147.2" y1="199.7" x2="165.1" y2="184.6"/>
		<polyline class="st4" points="165.9,184 166.6,183.4 166.6,184.4 		"/>
		<line class="st6" x1="166.6" y1="186.6" x2="166.6" y2="203.1"/>
	</g>
</g>
<circle cx="416.5" cy="239.3" r="5.9"/>
<polyline class="st7" points="172.9,196.4 415,239.3 172.9,82.7 "/>
<g>
	<rect x="643.5" y="162.1" class="st0" width="91.2" height="91.2"/>
	<rect x="648.8" y="167.1" class="st0" width="91.2" height="91.2"/>
	<rect x="654.2" y="173.3" class="st0" width="91.2" height="91.2"/>
	<rect x="659.5" y="178.3" class="st0" width="91.2" height="91.2"/>
	<rect x="664.9" y="183.1" class="st0" width="91.2" height="91.2"/>
	<rect x="670.2" y="188.2" class="st0" width="91.2" height="91.2"/>
	<rect x="675.6" y="192.9" class="st0" width="91.2" height="91.2"/>
	<rect x="680.9" y="198" class="st0" width="91.2" height="91.2"/>
</g>
<g>
	<g>
		<rect x="830.4" y="149.8" class="st0" width="54.8" height="54.8"/>
		<rect x="833.6" y="152.8" class="st0" width="54.8" height="54.8"/>
		<rect x="836.8" y="156.5" class="st0" width="54.8" height="54.8"/>
		<rect x="840" y="159.5" class="st0" width="54.8" height="54.8"/>
		<rect x="843.2" y="162.4" class="st0" width="54.8" height="54.8"/>
		<rect x="846.4" y="165.4" class="st0" width="54.8" height="54.8"/>
		<rect x="849.7" y="168.3" class="st0" width="54.8" height="54.8"/>
		<rect x="852.9" y="171.4" class="st0" width="54.8" height="54.8"/>
	</g>
	<g>
		<rect x="856.2" y="173.1" class="st0" width="54.8" height="54.8"/>
		<rect x="859.4" y="176.2" class="st0" width="54.8" height="54.8"/>
		<rect x="862.6" y="179.9" class="st0" width="54.8" height="54.8"/>
		<rect x="865.8" y="182.9" class="st0" width="54.8" height="54.8"/>
		<rect x="869" y="185.8" class="st0" width="54.8" height="54.8"/>
		<rect x="872.2" y="188.8" class="st0" width="54.8" height="54.8"/>
		<rect x="875.5" y="191.7" class="st0" width="54.8" height="54.8"/>
		<rect x="878.7" y="194.7" class="st0" width="54.8" height="54.8"/>
	</g>
	<g>
		<rect x="882" y="196.5" class="st0" width="54.8" height="54.8"/>
		<rect x="885.2" y="199.5" class="st0" width="54.8" height="54.8"/>
		<rect x="888.4" y="203.2" class="st0" width="54.8" height="54.8"/>
		<rect x="891.6" y="206.3" class="st0" width="54.8" height="54.8"/>
		<rect x="894.8" y="209.1" class="st0" width="54.8" height="54.8"/>
		<rect x="898.1" y="212.2" class="st0" width="54.8" height="54.8"/>
		<rect x="901.3" y="215.1" class="st0" width="54.8" height="54.8"/>
		<rect x="904.5" y="218.1" class="st0" width="54.8" height="54.8"/>
	</g>
</g>
<g>
	<rect x="1034.8" y="157.7" class="st0" width="30.4" height="30.4"/>
	<rect x="1036.6" y="159.3" class="st0" width="30.4" height="30.4"/>
	<rect x="1038.4" y="161" class="st0" width="30.4" height="30.4"/>
	<rect x="1040.1" y="162.6" class="st0" width="30.4" height="30.4"/>
	<rect x="1041.9" y="164.3" class="st0" width="30.4" height="30.4"/>
	<rect x="1043.7" y="165.9" class="st0" width="30.4" height="30.4"/>
	<rect x="1045.5" y="167.6" class="st0" width="30.4" height="30.4"/>
	<rect x="1047.2" y="169.2" class="st0" width="30.4" height="30.4"/>
	<rect x="1049" y="170.9" class="st0" width="30.4" height="30.4"/>
	<rect x="1050.8" y="172.5" class="st0" width="30.4" height="30.4"/>
	<rect x="1052.5" y="174.2" class="st0" width="30.4" height="30.4"/>
	<rect x="1054.3" y="175.8" class="st0" width="30.4" height="30.4"/>
	<rect x="1056.1" y="177.5" class="st0" width="30.4" height="30.4"/>
	<rect x="1057.8" y="179.1" class="st0" width="30.4" height="30.4"/>
	<rect x="1059.6" y="180.8" class="st0" width="30.4" height="30.4"/>
	<rect x="1061.4" y="182.4" class="st0" width="30.4" height="30.4"/>
	<rect x="1063.1" y="184.1" class="st0" width="30.4" height="30.4"/>
	<rect x="1064.9" y="185.7" class="st0" width="30.4" height="30.4"/>
	<rect x="1066.7" y="187.4" class="st0" width="30.4" height="30.4"/>
	<rect x="1068.5" y="189" class="st0" width="30.4" height="30.4"/>
	<rect x="1070.2" y="190.7" class="st0" width="30.4" height="30.4"/>
	<rect x="1072" y="192.3" class="st0" width="30.4" height="30.4"/>
	<rect x="1073.8" y="194" class="st0" width="30.4" height="30.4"/>
	<rect x="1075.5" y="195.7" class="st0" width="30.4" height="30.4"/>
	<rect x="1077.3" y="197.3" class="st0" width="30.4" height="30.4"/>
	<rect x="1079.1" y="199" class="st0" width="30.4" height="30.4"/>
	<rect x="1080.8" y="200.6" class="st0" width="30.4" height="30.4"/>
	<rect x="1082.6" y="202.3" class="st0" width="30.4" height="30.4"/>
	<rect x="1084.4" y="203.9" class="st0" width="30.4" height="30.4"/>
	<rect x="1086.1" y="205.6" class="st0" width="30.4" height="30.4"/>
	<rect x="1087.9" y="207.2" class="st0" width="30.4" height="30.4"/>
	<rect x="1089.7" y="208.9" class="st0" width="30.4" height="30.4"/>
	<rect x="1091.5" y="210.5" class="st0" width="30.4" height="30.4"/>
	<rect x="1093.2" y="212.2" class="st0" width="30.4" height="30.4"/>
	<rect x="1095" y="213.8" class="st0" width="30.4" height="30.4"/>
	<rect x="1096.8" y="215.5" class="st0" width="30.4" height="30.4"/>
	<rect x="1098.5" y="217.1" class="st0" width="30.4" height="30.4"/>
	<rect x="1100.3" y="218.8" class="st0" width="30.4" height="30.4"/>
	<rect x="1102.1" y="220.4" class="st0" width="30.4" height="30.4"/>
	<rect x="1103.8" y="222.1" class="st0" width="30.4" height="30.4"/>
	<rect x="1105.6" y="223.7" class="st0" width="30.4" height="30.4"/>
	<rect x="1107.4" y="225.4" class="st0" width="30.4" height="30.4"/>
	<rect x="1109.1" y="227" class="st0" width="30.4" height="30.4"/>
	<rect x="1110.9" y="228.7" class="st0" width="30.4" height="30.4"/>
	<rect x="1112.7" y="230.3" class="st0" width="30.4" height="30.4"/>
	<rect x="1114.5" y="232" class="st0" width="30.4" height="30.4"/>
	<rect x="1116.2" y="233.6" class="st0" width="30.4" height="30.4"/>
	<rect x="1118" y="235.3" class="st0" width="30.4" height="30.4"/>
</g>
<text transform="matrix(1 0 0 1 1228.8544 301.5167)" class="st8 st9">...</text>
<text transform="matrix(1 0 0 1 1348.9418 250.2163)" class="st8 st9">...</text>
<circle cx="699.8" cy="272.9" r="5.9"/>
<circle cx="915.8" cy="231" r="3"/>
<circle cx="1126.1" cy="257.4" r="3"/>
<g>
	<g>
		<polyline class="st4" points="515.2,297.1 515.2,298.1 514.2,298.1 		"/>
		<line class="st6" x1="512" y1="298.1" x2="495.5" y2="298.1"/>
		<polyline class="st4" points="494.4,298.1 493.4,298.1 493.4,297.1 		"/>
		<line class="st6" x1="493.4" y1="294.9" x2="493.4" y2="278.4"/>
		<polyline class="st4" points="493.4,277.2 493.4,276.2 494.4,276.2 		"/>
		<line class="st6" x1="496.6" y1="276.2" x2="513.1" y2="276.2"/>
		<polyline class="st4" points="514.2,276.2 515.2,276.2 515.2,277.2 		"/>
		<line class="st6" x1="515.2" y1="279.5" x2="515.2" y2="296"/>
	</g>
</g>
<polyline class="st7" points="493.4,298.1 699.8,272.9 515.2,276.2 "/>
<g>
	<g>
		<polyline class="st4" points="758.6,224.4 758.6,225.4 757.6,225.4 		"/>
		<line class="st10" x1="755.7" y1="225.4" x2="745.4" y2="225.4"/>
		<polyline class="st4" points="744.5,225.4 743.5,225.4 743.5,224.4 		"/>
		<line class="st10" x1="743.5" y1="222.5" x2="743.5" y2="212.2"/>
		<polyline class="st4" points="743.5,211.2 743.5,210.2 744.5,210.2 		"/>
		<line class="st10" x1="746.3" y1="210.2" x2="756.7" y2="210.2"/>
		<polyline class="st4" points="757.6,210.2 758.6,210.2 758.6,211.2 		"/>
		<line class="st10" x1="758.6" y1="213.1" x2="758.6" y2="223.4"/>
	</g>
</g>
<polyline class="st7" points="743.5,225.4 915.8,231 758.6,210.2 "/>
<g>
	<g>
		<polyline class="st4" points="948.9,266 948.9,267 947.9,267 		"/>
		<line class="st11" x1="945.9" y1="267" x2="938.8" y2="267"/>
		<polyline class="st4" points="937.8,267 936.8,267 936.8,266 		"/>
		<line class="st11" x1="936.8" y1="264" x2="936.8" y2="257"/>
		<polyline class="st4" points="936.8,256 936.8,255 937.8,255 		"/>
		<line class="st11" x1="939.8" y1="255" x2="946.9" y2="255"/>
		<polyline class="st4" points="947.9,255 948.9,255 948.9,256 		"/>
		<line class="st11" x1="948.9" y1="258" x2="948.9" y2="265"/>
	</g>
</g>
<polyline class="st7" points="936.8,267 1126.1,257.4 948.9,255 "/>
<line class="st12" x1="1134.3" y1="276.2" x2="1210.1" y2="346.3"/>
<polyline class="st12" points="1050.1,149.8 1050.1,134.9 1210.1,134.9 "/>
<polyline class="st13" points="1250.6,240.6 1346.9,199.7 1250.6,346.3 1344.4,294.6 1250.6,189 1346.9,199.7 1250.6,134.9 "/>
<circle class="st14" cx="1238.2" cy="134.9" r="14.8"/>
<circle class="st14" cx="1238.2" cy="187" r="14.8"/>
<circle class="st14" cx="1238.2" cy="239.1" r="14.8"/>
<circle class="st14" cx="1238.2" cy="346.3" r="14.8"/>
<circle class="st0" cx="1358.7" cy="199.5" r="14.8"/>
<circle class="st0" cx="1359.2" cy="295.3" r="14.8"/>
<text transform="matrix(1 0 0 1 1389.0647 208.3498)" class="st8 st9">cat 1</text>
<text transform="matrix(1 0 0 1 1389.5063 304.098)" class="st8 st9">cat n</text>
<polyline class="st15" points="11.2,411.6 11.2,429.6 191.6,429.6 191.6,411.6 "/>
<polyline class="st15" points="1127.7,411.6 1127.7,429.6 1415.3,429.6 1415.3,411.6 "/>
<polyline class="st15" points="203.8,411.6 203.8,429.6 1115.5,429.6 1115.5,411.6 "/>
<text transform="matrix(1 0 0 1 76.7373 463.4622)" class="st8 st9">input</text>
<text transform="matrix(1 0 0 1 492.8872 463.4622)" class="st8 st9">feature learning</text>
<text transform="matrix(1 0 0 1 1185.9248 463.4622)" class="st8 st9">classification</text>
<text transform="matrix(1 0 0 1 191.5563 334.6568)" class="st8 st16">convolution</text>
<text transform="matrix(1 0 0 1 571.2715 334.6563)" class="st8 st16">polling</text>
<text transform="matrix(1 0 0 1 772.0909 334.6564)" class="st8 st16">convolution</text>
<text transform="matrix(1 0 0 1 1004.6985 334.657)" class="st8 st16">polling</text>
<text transform="matrix(1 0 0 1 1252.999 387.8731)" class="st8 st16">fully connected</text>
</svg>
