<?xml version="1.0" encoding="UTF-8" standalone="no"?>
<!-- Created with Inkscape (http://www.inkscape.org/) -->

<svg
   version="1.1"
   id="svg2"
   xml:space="preserve"
   width="793.33331"
   height="1122.6667"
   viewBox="0 0 793.33331 1122.6667"
   sodipodi:docname="epoche.svg"
   inkscape:version="1.1.1 (3bf5ae0d25, 2021-09-20)"
   xmlns:inkscape="http://www.inkscape.org/namespaces/inkscape"
   xmlns:sodipodi="http://sodipodi.sourceforge.net/DTD/sodipodi-0.dtd"
   xmlns="http://www.w3.org/2000/svg"
   xmlns:svg="http://www.w3.org/2000/svg"><defs
     id="defs6"><clipPath
       clipPathUnits="userSpaceOnUse"
       id="clipPath18"><path
         d="M 0,0 H 560.00001 V 420 H 0 Z"
         id="path16" /></clipPath></defs><sodipodi:namedview
     id="namedview4"
     pagecolor="#ffffff"
     bordercolor="#666666"
     borderopacity="1.0"
     inkscape:pageshadow="2"
     inkscape:pageopacity="0.0"
     inkscape:pagecheckerboard="0"
     showgrid="false"
     inkscape:zoom="3.1104511"
     inkscape:cx="300.92098"
     inkscape:cy="649.58424"
     inkscape:window-width="1920"
     inkscape:window-height="1009"
     inkscape:window-x="3432"
     inkscape:window-y="344"
     inkscape:window-maximized="1"
     inkscape:current-layer="g10" /><g
     id="g8"
     inkscape:groupmode="layer"
     inkscape:label="epoche"
     transform="matrix(1.3333333,0,0,-1.3333333,0,1122.6667)"><g
       id="g10"
       transform="matrix(0.125,0,0,-0.125,0,842)"><g
         id="g30"
         transform="matrix(6,0,0,6,701.10223,2107.5591)"><path
           d="M 73,374 H 507"
           style="fill:none;stroke:#262626;stroke-width:0.666667;stroke-linecap:square;stroke-linejoin:round;stroke-miterlimit:10;stroke-dasharray:none;stroke-opacity:1"
           id="path32" /></g><g
         id="g34"
         transform="matrix(6,0,0,6,701.10223,2107.5591)"><path
           d="M 73,31 H 507"
           style="fill:none;stroke:#262626;stroke-width:0.666667;stroke-linecap:square;stroke-linejoin:round;stroke-miterlimit:10;stroke-dasharray:none;stroke-opacity:1"
           id="path36" /></g><g
         id="g38"
         transform="matrix(6,0,0,6,701.10223,2107.5591)"><path
           d="m 73,374 v -4.34"
           style="fill:none;stroke:#262626;stroke-width:0.666667;stroke-linecap:square;stroke-linejoin:round;stroke-miterlimit:10;stroke-dasharray:none;stroke-opacity:1"
           id="path40" /></g><g
         id="g42"
         transform="matrix(6,0,0,6,701.10223,2107.5591)"><path
           d="m 135,374 v -4.34"
           style="fill:none;stroke:#262626;stroke-width:0.666667;stroke-linecap:square;stroke-linejoin:round;stroke-miterlimit:10;stroke-dasharray:none;stroke-opacity:1"
           id="path44" /></g><g
         id="g46"
         transform="matrix(6,0,0,6,701.10223,2107.5591)"><path
           d="m 197,374 v -4.34"
           style="fill:none;stroke:#262626;stroke-width:0.666667;stroke-linecap:square;stroke-linejoin:round;stroke-miterlimit:10;stroke-dasharray:none;stroke-opacity:1"
           id="path48" /></g><g
         id="g50"
         transform="matrix(6,0,0,6,701.10223,2107.5591)"><path
           d="m 259,374 v -4.34"
           style="fill:none;stroke:#262626;stroke-width:0.666667;stroke-linecap:square;stroke-linejoin:round;stroke-miterlimit:10;stroke-dasharray:none;stroke-opacity:1"
           id="path52" /></g><g
         id="g54"
         transform="matrix(6,0,0,6,701.10223,2107.5591)"><path
           d="m 321,374 v -4.34"
           style="fill:none;stroke:#262626;stroke-width:0.666667;stroke-linecap:square;stroke-linejoin:round;stroke-miterlimit:10;stroke-dasharray:none;stroke-opacity:1"
           id="path56" /></g><g
         id="g58"
         transform="matrix(6,0,0,6,701.10223,2107.5591)"><path
           d="m 383,374 v -4.34"
           style="fill:none;stroke:#262626;stroke-width:0.666667;stroke-linecap:square;stroke-linejoin:round;stroke-miterlimit:10;stroke-dasharray:none;stroke-opacity:1"
           id="path60" /></g><g
         id="g62"
         transform="matrix(6,0,0,6,701.10223,2107.5591)"><path
           d="m 445,374 v -4.34"
           style="fill:none;stroke:#262626;stroke-width:0.666667;stroke-linecap:square;stroke-linejoin:round;stroke-miterlimit:10;stroke-dasharray:none;stroke-opacity:1"
           id="path64" /></g><g
         id="g66"
         transform="matrix(6,0,0,6,701.10223,2107.5591)"><path
           d="m 507,374 v -4.34"
           style="fill:none;stroke:#262626;stroke-width:0.666667;stroke-linecap:square;stroke-linejoin:round;stroke-miterlimit:10;stroke-dasharray:none;stroke-opacity:1"
           id="path68" /></g><g
         id="g70"
         transform="matrix(6,0,0,6,701.10223,2107.5591)"><path
           d="m 73,31 v 4.340012"
           style="fill:none;stroke:#262626;stroke-width:0.666667;stroke-linecap:square;stroke-linejoin:round;stroke-miterlimit:10;stroke-dasharray:none;stroke-opacity:1"
           id="path72" /></g><g
         id="g74"
         transform="matrix(6,0,0,6,701.10223,2107.5591)"><path
           d="m 135,31 v 4.340012"
           style="fill:none;stroke:#262626;stroke-width:0.666667;stroke-linecap:square;stroke-linejoin:round;stroke-miterlimit:10;stroke-dasharray:none;stroke-opacity:1"
           id="path76" /></g><g
         id="g78"
         transform="matrix(6,0,0,6,701.10223,2107.5591)"><path
           d="m 197,31 v 4.340012"
           style="fill:none;stroke:#262626;stroke-width:0.666667;stroke-linecap:square;stroke-linejoin:round;stroke-miterlimit:10;stroke-dasharray:none;stroke-opacity:1"
           id="path80" /></g><g
         id="g82"
         transform="matrix(6,0,0,6,701.10223,2107.5591)"><path
           d="m 259,31 v 4.340012"
           style="fill:none;stroke:#262626;stroke-width:0.666667;stroke-linecap:square;stroke-linejoin:round;stroke-miterlimit:10;stroke-dasharray:none;stroke-opacity:1"
           id="path84" /></g><g
         id="g86"
         transform="matrix(6,0,0,6,701.10223,2107.5591)"><path
           d="m 321,31 v 4.340012"
           style="fill:none;stroke:#262626;stroke-width:0.666667;stroke-linecap:square;stroke-linejoin:round;stroke-miterlimit:10;stroke-dasharray:none;stroke-opacity:1"
           id="path88" /></g><g
         id="g90"
         transform="matrix(6,0,0,6,701.10223,2107.5591)"><path
           d="m 383,31 v 4.340012"
           style="fill:none;stroke:#262626;stroke-width:0.666667;stroke-linecap:square;stroke-linejoin:round;stroke-miterlimit:10;stroke-dasharray:none;stroke-opacity:1"
           id="path92" /></g><g
         id="g94"
         transform="matrix(6,0,0,6,701.10223,2107.5591)"><path
           d="m 445,31 v 4.340012"
           style="fill:none;stroke:#262626;stroke-width:0.666667;stroke-linecap:square;stroke-linejoin:round;stroke-miterlimit:10;stroke-dasharray:none;stroke-opacity:1"
           id="path96" /></g><g
         id="g98"
         transform="matrix(6,0,0,6,701.10223,2107.5591)"><path
           d="m 507,31 v 4.340012"
           style="fill:none;stroke:#262626;stroke-width:0.666667;stroke-linecap:square;stroke-linejoin:round;stroke-miterlimit:10;stroke-dasharray:none;stroke-opacity:1"
           id="path100" /></g><g
         id="g102"><g
           id="g104"
           transform="matrix(6,0,0,6,1139.1022,4383.5591)"><text
             transform="translate(-4,14)"
             style="font-variant:normal;font-weight:normal;font-size:13.333px;font-family:Helvetica;-inkscape-font-specification:Helvetica;writing-mode:lr-tb;fill:#262626;fill-opacity:1;fill-rule:nonzero;stroke:none"
             id="text108"><tspan
               x="0"
               y="0"
               id="tspan106">0</tspan></text></g></g><g
         id="g110"><g
           id="g112"
           transform="matrix(6,0,0,6,1511.1022,4383.5591)"><text
             transform="translate(-4,14)"
             style="font-variant:normal;font-weight:normal;font-size:13.333px;font-family:Helvetica;-inkscape-font-specification:Helvetica;writing-mode:lr-tb;fill:#262626;fill-opacity:1;fill-rule:nonzero;stroke:none"
             id="text116"><tspan
               x="0"
               y="0"
               id="tspan114">5</tspan></text></g></g><g
         id="g118"><g
           id="g120"
           transform="matrix(6,0,0,6,1883.1022,4383.5591)"><text
             transform="translate(-7.5,14)"
             style="font-variant:normal;font-weight:normal;font-size:13.333px;font-family:Helvetica;-inkscape-font-specification:Helvetica;writing-mode:lr-tb;fill:#262626;fill-opacity:1;fill-rule:nonzero;stroke:none"
             id="text124"><tspan
               x="0 7.4131479"
               y="0"
               sodipodi:role="line"
               id="tspan122">10</tspan></text></g></g><g
         id="g126"><g
           id="g128"
           transform="matrix(6,0,0,6,2255.1022,4383.5591)"><text
             transform="translate(-7.5,14)"
             style="font-variant:normal;font-weight:normal;font-size:13.333px;font-family:Helvetica;-inkscape-font-specification:Helvetica;writing-mode:lr-tb;fill:#262626;fill-opacity:1;fill-rule:nonzero;stroke:none"
             id="text132"><tspan
               x="0 7.4131479"
               y="0"
               sodipodi:role="line"
               id="tspan130">15</tspan></text></g></g><g
         id="g134"><g
           id="g136"
           transform="matrix(6,0,0,6,2627.1022,4383.5591)"><text
             transform="translate(-7.5,14)"
             style="font-variant:normal;font-weight:normal;font-size:13.333px;font-family:Helvetica;-inkscape-font-specification:Helvetica;writing-mode:lr-tb;fill:#262626;fill-opacity:1;fill-rule:nonzero;stroke:none"
             id="text140"><tspan
               x="0 7.4131479"
               y="0"
               sodipodi:role="line"
               id="tspan138">20</tspan></text></g></g><g
         id="g142"><g
           id="g144"
           transform="matrix(6,0,0,6,2999.1022,4383.5591)"><text
             transform="translate(-7.5,14)"
             style="font-variant:normal;font-weight:normal;font-size:13.333px;font-family:Helvetica;-inkscape-font-specification:Helvetica;writing-mode:lr-tb;fill:#262626;fill-opacity:1;fill-rule:nonzero;stroke:none"
             id="text148"><tspan
               x="0 7.4131479"
               y="0"
               sodipodi:role="line"
               id="tspan146">25</tspan></text></g></g><g
         id="g150"><g
           id="g152"
           transform="matrix(6,0,0,6,3371.1022,4383.5591)"><text
             transform="translate(-7.5,14)"
             style="font-variant:normal;font-weight:normal;font-size:13.333px;font-family:Helvetica;-inkscape-font-specification:Helvetica;writing-mode:lr-tb;fill:#262626;fill-opacity:1;fill-rule:nonzero;stroke:none"
             id="text156"><tspan
               x="0 7.4131479"
               y="0"
               sodipodi:role="line"
               id="tspan154">30</tspan></text></g></g><g
         id="g158"><g
           id="g160"
           transform="matrix(6,0,0,6,3743.1022,4383.5591)"><text
             transform="translate(-7.5,14)"
             style="font-variant:normal;font-weight:normal;font-size:13.333px;font-family:Helvetica;-inkscape-font-specification:Helvetica;writing-mode:lr-tb;fill:#262626;fill-opacity:1;fill-rule:nonzero;stroke:none"
             id="text164"><tspan
               x="0 7.4131479"
               y="0"
               sodipodi:role="line"
               id="tspan162">35</tspan></text></g></g><g
         id="g166"><g
           id="g168"
           transform="matrix(6,0,0,6,2441.1035,4493.559)"><text
             transform="translate(-34,15)"
             style="font-variant:normal;font-weight:normal;font-size:14.667px;font-family:Helvetica;-inkscape-font-specification:Helvetica;writing-mode:lr-tb;fill:#262626;fill-opacity:1;fill-rule:nonzero;stroke:none"
             id="text172"><tspan
               x="0 4.077426 12.232278 19.565779 23.643204 31.798056 39.952908 44.030334 47.286407 59.504021"
               y="0"
               sodipodi:role="line"
               id="tspan170">tested img</tspan></text></g></g><g
         id="g174"
         transform="matrix(6,0,0,6,701.10223,2107.5591)"><path
           d="M 73,374 V 31"
           style="fill:none;stroke:#262626;stroke-width:0.666667;stroke-linecap:square;stroke-linejoin:round;stroke-miterlimit:10;stroke-dasharray:none;stroke-opacity:1"
           id="path176" /></g><g
         id="g178"
         transform="matrix(6,0,0,6,701.10223,2107.5591)"><path
           d="M 507,374 V 31"
           style="fill:none;stroke:#262626;stroke-width:0.666667;stroke-linecap:square;stroke-linejoin:round;stroke-miterlimit:10;stroke-dasharray:none;stroke-opacity:1"
           id="path180" /></g><g
         id="g182"
         transform="matrix(6,0,0,6,701.10223,2107.5591)"><path
           d="m 73,374 h 4.339996"
           style="fill:none;stroke:#262626;stroke-width:0.666667;stroke-linecap:square;stroke-linejoin:round;stroke-miterlimit:10;stroke-dasharray:none;stroke-opacity:1"
           id="path184" /></g><g
         id="g186"
         transform="matrix(6,0,0,6,701.10223,2107.5591)"><path
           d="m 73,331.125 h 4.339996"
           style="fill:none;stroke:#262626;stroke-width:0.666667;stroke-linecap:square;stroke-linejoin:round;stroke-miterlimit:10;stroke-dasharray:none;stroke-opacity:1"
           id="path188" /></g><g
         id="g190"
         transform="matrix(6,0,0,6,701.10223,2107.5591)"><path
           d="m 73,288.25 h 4.339996"
           style="fill:none;stroke:#262626;stroke-width:0.666667;stroke-linecap:square;stroke-linejoin:round;stroke-miterlimit:10;stroke-dasharray:none;stroke-opacity:1"
           id="path192" /></g><g
         id="g194"
         transform="matrix(6,0,0,6,701.10223,2107.5591)"><path
           d="m 73,245.375 h 4.339996"
           style="fill:none;stroke:#262626;stroke-width:0.666667;stroke-linecap:square;stroke-linejoin:round;stroke-miterlimit:10;stroke-dasharray:none;stroke-opacity:1"
           id="path196" /></g><g
         id="g198"
         transform="matrix(6,0,0,6,701.10223,2107.5591)"><path
           d="m 73,202.49998 h 4.339996"
           style="fill:none;stroke:#262626;stroke-width:0.666667;stroke-linecap:square;stroke-linejoin:round;stroke-miterlimit:10;stroke-dasharray:none;stroke-opacity:1"
           id="path200" /></g><g
         id="g202"
         transform="matrix(6,0,0,6,701.10223,2107.5591)"><path
           d="m 73,159.625 h 4.339996"
           style="fill:none;stroke:#262626;stroke-width:0.666667;stroke-linecap:square;stroke-linejoin:round;stroke-miterlimit:10;stroke-dasharray:none;stroke-opacity:1"
           id="path204" /></g><g
         id="g206"
         transform="matrix(6,0,0,6,701.10223,2107.5591)"><path
           d="m 73,116.74999 h 4.339996"
           style="fill:none;stroke:#262626;stroke-width:0.666667;stroke-linecap:square;stroke-linejoin:round;stroke-miterlimit:10;stroke-dasharray:none;stroke-opacity:1"
           id="path208" /></g><g
         id="g210"
         transform="matrix(6,0,0,6,701.10223,2107.5591)"><path
           d="m 73,73.875008 h 4.339996"
           style="fill:none;stroke:#262626;stroke-width:0.666667;stroke-linecap:square;stroke-linejoin:round;stroke-miterlimit:10;stroke-dasharray:none;stroke-opacity:1"
           id="path212" /></g><g
         id="g214"
         transform="matrix(6,0,0,6,701.10223,2107.5591)"><path
           d="m 73,31 h 4.339996"
           style="fill:none;stroke:#262626;stroke-width:0.666667;stroke-linecap:square;stroke-linejoin:round;stroke-miterlimit:10;stroke-dasharray:none;stroke-opacity:1"
           id="path216" /></g><g
         id="g218"
         transform="matrix(6,0,0,6,701.10223,2107.5591)"><path
           d="m 507,374 h -4.33997"
           style="fill:none;stroke:#262626;stroke-width:0.666667;stroke-linecap:square;stroke-linejoin:round;stroke-miterlimit:10;stroke-dasharray:none;stroke-opacity:1"
           id="path220" /></g><g
         id="g222"
         transform="matrix(6,0,0,6,701.10223,2107.5591)"><path
           d="m 507,331.125 h -4.33997"
           style="fill:none;stroke:#262626;stroke-width:0.666667;stroke-linecap:square;stroke-linejoin:round;stroke-miterlimit:10;stroke-dasharray:none;stroke-opacity:1"
           id="path224" /></g><g
         id="g226"
         transform="matrix(6,0,0,6,701.10223,2107.5591)"><path
           d="m 507,288.25 h -4.33997"
           style="fill:none;stroke:#262626;stroke-width:0.666667;stroke-linecap:square;stroke-linejoin:round;stroke-miterlimit:10;stroke-dasharray:none;stroke-opacity:1"
           id="path228" /></g><g
         id="g230"
         transform="matrix(6,0,0,6,701.10223,2107.5591)"><path
           d="m 507,245.375 h -4.33997"
           style="fill:none;stroke:#262626;stroke-width:0.666667;stroke-linecap:square;stroke-linejoin:round;stroke-miterlimit:10;stroke-dasharray:none;stroke-opacity:1"
           id="path232" /></g><g
         id="g234"
         transform="matrix(6,0,0,6,701.10223,2107.5591)"><path
           d="m 507,202.49998 h -4.33997"
           style="fill:none;stroke:#262626;stroke-width:0.666667;stroke-linecap:square;stroke-linejoin:round;stroke-miterlimit:10;stroke-dasharray:none;stroke-opacity:1"
           id="path236" /></g><g
         id="g238"
         transform="matrix(6,0,0,6,701.10223,2107.5591)"><path
           d="m 507,159.625 h -4.33997"
           style="fill:none;stroke:#262626;stroke-width:0.666667;stroke-linecap:square;stroke-linejoin:round;stroke-miterlimit:10;stroke-dasharray:none;stroke-opacity:1"
           id="path240" /></g><g
         id="g242"
         transform="matrix(6,0,0,6,701.10223,2107.5591)"><path
           d="m 507,116.74999 h -4.33997"
           style="fill:none;stroke:#262626;stroke-width:0.666667;stroke-linecap:square;stroke-linejoin:round;stroke-miterlimit:10;stroke-dasharray:none;stroke-opacity:1"
           id="path244" /></g><g
         id="g246"
         transform="matrix(6,0,0,6,701.10223,2107.5591)"><path
           d="m 507,73.875008 h -4.33997"
           style="fill:none;stroke:#262626;stroke-width:0.666667;stroke-linecap:square;stroke-linejoin:round;stroke-miterlimit:10;stroke-dasharray:none;stroke-opacity:1"
           id="path248" /></g><g
         id="g250"
         transform="matrix(6,0,0,6,701.10223,2107.5591)"><path
           d="m 507,31 h -4.33997"
           style="fill:none;stroke:#262626;stroke-width:0.666667;stroke-linecap:square;stroke-linejoin:round;stroke-miterlimit:10;stroke-dasharray:none;stroke-opacity:1"
           id="path252" /></g><g
         id="g254"><g
           id="g256"
           transform="matrix(6,0,0,6,1107.1022,4351.5591)"><text
             transform="translate(-19,5.5)"
             style="font-variant:normal;font-weight:normal;font-size:13.333px;font-family:Helvetica;-inkscape-font-specification:Helvetica;writing-mode:lr-tb;fill:#262626;fill-opacity:1;fill-rule:nonzero;stroke:none"
             id="text260"><tspan
               x="0 7.4131479 11.119722"
               y="0"
               sodipodi:role="line"
               id="tspan258">0.2</tspan></text></g></g><g
         id="g262"><g
           id="g264"
           transform="matrix(6,0,0,6,1107.1022,4094.3091)"><text
             transform="translate(-19,5.5)"
             style="font-variant:normal;font-weight:normal;font-size:13.333px;font-family:Helvetica;-inkscape-font-specification:Helvetica;writing-mode:lr-tb;fill:#262626;fill-opacity:1;fill-rule:nonzero;stroke:none"
             id="text268"><tspan
               x="0 7.4131479 11.119722"
               y="0"
               sodipodi:role="line"
               id="tspan266">0.3</tspan></text></g></g><g
         id="g270"><g
           id="g272"
           transform="matrix(6,0,0,6,1107.1022,3837.0591)"><text
             transform="translate(-19,5.5)"
             style="font-variant:normal;font-weight:normal;font-size:13.333px;font-family:Helvetica;-inkscape-font-specification:Helvetica;writing-mode:lr-tb;fill:#262626;fill-opacity:1;fill-rule:nonzero;stroke:none"
             id="text276"><tspan
               x="0 7.4131479 11.119722"
               y="0"
               sodipodi:role="line"
               id="tspan274">0.4</tspan></text></g></g><g
         id="g278"><g
           id="g280"
           transform="matrix(6,0,0,6,1107.1022,3579.8091)"><text
             transform="translate(-19,5.5)"
             style="font-variant:normal;font-weight:normal;font-size:13.333px;font-family:Helvetica;-inkscape-font-specification:Helvetica;writing-mode:lr-tb;fill:#262626;fill-opacity:1;fill-rule:nonzero;stroke:none"
             id="text284"><tspan
               x="0 7.4131479 11.119722"
               y="0"
               sodipodi:role="line"
               id="tspan282">0.5</tspan></text></g></g><g
         id="g286"><g
           id="g288"
           transform="matrix(6,0,0,6,1107.1022,3322.559)"><text
             transform="translate(-19,5.5)"
             style="font-variant:normal;font-weight:normal;font-size:13.333px;font-family:Helvetica;-inkscape-font-specification:Helvetica;writing-mode:lr-tb;fill:#262626;fill-opacity:1;fill-rule:nonzero;stroke:none"
             id="text292"><tspan
               x="0 7.4131479 11.119722"
               y="0"
               sodipodi:role="line"
               id="tspan290">0.6</tspan></text></g></g><g
         id="g294"><g
           id="g296"
           transform="matrix(6,0,0,6,1107.1022,3065.3091)"><text
             transform="translate(-19,5.5)"
             style="font-variant:normal;font-weight:normal;font-size:13.333px;font-family:Helvetica;-inkscape-font-specification:Helvetica;writing-mode:lr-tb;fill:#262626;fill-opacity:1;fill-rule:nonzero;stroke:none"
             id="text300"><tspan
               x="0 7.4131479 11.119722"
               y="0"
               sodipodi:role="line"
               id="tspan298">0.7</tspan></text></g></g><g
         id="g302"><g
           id="g304"
           transform="matrix(6,0,0,6,1107.1022,2808.059)"><text
             transform="translate(-19,5.5)"
             style="font-variant:normal;font-weight:normal;font-size:13.333px;font-family:Helvetica;-inkscape-font-specification:Helvetica;writing-mode:lr-tb;fill:#262626;fill-opacity:1;fill-rule:nonzero;stroke:none"
             id="text308"><tspan
               x="0 7.4131479 11.119722"
               y="0"
               sodipodi:role="line"
               id="tspan306">0.8</tspan></text></g></g><g
         id="g310"><g
           id="g312"
           transform="matrix(6,0,0,6,1107.1022,2550.8091)"><text
             transform="translate(-19,5.5)"
             style="font-variant:normal;font-weight:normal;font-size:13.333px;font-family:Helvetica;-inkscape-font-specification:Helvetica;writing-mode:lr-tb;fill:#262626;fill-opacity:1;fill-rule:nonzero;stroke:none"
             id="text316"><tspan
               x="0 7.4131479 11.119722"
               y="0"
               sodipodi:role="line"
               id="tspan314">0.9</tspan></text></g></g><g
         id="g318"><g
           id="g320"
           transform="matrix(6,0,0,6,1107.1022,2293.5591)"><text
             transform="translate(-8,5.5)"
             style="font-variant:normal;font-weight:normal;font-size:13.333px;font-family:Helvetica;-inkscape-font-specification:Helvetica;writing-mode:lr-tb;fill:#262626;fill-opacity:1;fill-rule:nonzero;stroke:none"
             id="text324"><tspan
               x="0"
               y="0"
               id="tspan322">1</tspan></text></g></g><g
         id="g326"><g
           id="g328"
           transform="matrix(-2.6e-7,-6,6,-2.6e-7,969.10224,3322.5581)"><text
             transform="translate(-11,-4)"
             style="font-variant:normal;font-weight:normal;font-size:14.667px;font-family:Helvetica;-inkscape-font-specification:Helvetica;writing-mode:lr-tb;fill:#262626;fill-opacity:1;fill-rule:nonzero;stroke:none"
             id="text332"><tspan
               x="0 8.9615374"
               y="0"
               sodipodi:role="line"
               id="tspan330">FM</tspan></text></g></g><g
         id="g334"
         transform="matrix(6,0,0,6,701.10223,2107.5591)"><path
           d="M 85.400002,246.42776 97.800003,235.65489 110.2,194.04276 122.6,150.19746 135,247.3485 147.39999,198.08939 159.8,216.19096 172.2,207.05028 184.60001,249.50194 197,341.12042 209.39999,268.04178 221.8,249.89629 234.2,322.72031 246.60001,299.54913 259,283.27945 l 12.39999,31.05304 12.4,0.29779 12.40002,-136.84935 12.4,144.61418 L 321,310.82565 l 12.39999,-158.18069 12.4,38.809 12.40002,51.90126 12.4,-76.62287 12.39999,64.19174 12.39999,-85.81928 12.4,-23.54686 12.40002,60.49466 12.4,178.10764 L 445,137.04417 l 12.39999,-48.399593 12.4,75.592483 12.40002,127.64722 12.4,15.21954"
           style="fill:none;stroke:#0072bd;stroke-width:0.666667;stroke-linecap:butt;stroke-linejoin:round;stroke-miterlimit:10;stroke-dasharray:none;stroke-opacity:1"
           id="path336" /></g><g
         id="g338"
         transform="matrix(6,0,0,6,701.10223,2107.5591)"><path
           d="M 85.400002,178.68851 97.800003,130.96657 110.2,186.97391 l 12.4,-17.136 12.4,71.54921 12.39999,-70.04035 12.40001,31.87302 12.4,-49.56677 12.40001,30.77006 L 197,272.20541 209.39999,175.68768 221.8,186.09084 234.2,274.38708 246.60001,220.55594 259,239.15262 l 12.39999,-16.86601 12.4,11.81941 12.40002,-67.75223 12.4,73.78661 12.39999,27.97413 12.39999,-126.96696 12.4,23.4629 12.40002,37.84244 12.4,-69.09387 L 383,179.446 l 12.39999,-51.83949 12.4,-30.587269 12.40002,40.602799 12.4,128.80011 L 445,115.9818 l 12.39999,-35.254444 12.4,32.841264 12.40002,37.34613 12.4,38.42457"
           style="fill:none;stroke:#d95319;stroke-width:0.666667;stroke-linecap:butt;stroke-linejoin:round;stroke-miterlimit:10;stroke-dasharray:none;stroke-opacity:1"
           id="path340" /></g><g
         id="g342"
         transform="matrix(6,0,0,6,701.10223,2107.5591)"><path
           d="M 85.400002,126.66373 97.800003,213.98749 110.2,170.37766 l 12.4,-20.88213 12.4,39.45801 12.39999,-3.54749 12.40001,-7.50969 12.4,8.19705 12.40001,-21.57815 L 197,251.21809 209.39999,154.38748 221.8,164.03786 234.2,261.47174 246.60001,188.58691 259,164.39651 l 12.39999,49.07929 12.4,-46.4109 12.40002,-3.67772 12.4,83.83957 L 321,181.49619 l 12.39999,-48.82081 12.4,23.26435 12.40002,63.08996 12.4,-64.22793 12.39999,-0.98033 12.39999,-32.47934 12.4,-30.444568 12.40002,44.151248 12.4,87.03537 L 445,112.77793 l 12.39999,-29.715056 12.4,4.793747 12.40002,48.383659 12.4,27.06477"
           style="fill:none;stroke:#edb120;stroke-width:0.666667;stroke-linecap:butt;stroke-linejoin:round;stroke-miterlimit:10;stroke-dasharray:none;stroke-opacity:1"
           id="path344" /></g><g
         id="g346"
         transform="matrix(6,0,0,6,701.10223,2107.5591)"><path
           d="m 85.400002,155.44797 12.400001,4.63997 12.399997,-29.21399 12.4,4.30096 12.4,33.7825 12.39999,-8.17361 L 159.8,197.14174 172.2,245.192 184.60001,148.80042 197,260.94562 209.39999,111.5504 221.8,125.37689 234.2,272.59238 246.60001,155.43507 259,199.14189 l 12.39999,19.55359 12.4,-72.50891 12.40002,35.89563 12.4,43.28398 12.39999,-49.5954 12.39999,-64.90652 12.4,41.86766 12.40002,29.00451 12.4,-74.41048 12.39999,76.05143 12.39999,-64.13348 12.4,-4.5444 12.40002,21.31489 12.4,61.15926 L 445,76.160927 l 12.39999,13.13427 12.4,44.665373 12.40002,-31.58043 12.4,106.96474"
           style="fill:none;stroke:#7e2f8e;stroke-width:0.666667;stroke-linecap:butt;stroke-linejoin:round;stroke-miterlimit:10;stroke-dasharray:none;stroke-opacity:1"
           id="path348" /></g><g
         id="g350"
         transform="matrix(6,0,0,6,701.10223,2107.5591)"><path
           d="M 85.400002,160.84503 97.800003,159.75883 110.2,194.32841 122.6,141.42139 135,198.51251 147.39999,239.75336 159.8,196.67439 172.2,179.18362 184.60001,171.68768 197,233.58611 209.39999,131.70267 221.8,147.03716 l 12.4,86.0285 12.40001,-93.11258 12.39999,12.97848 12.39999,23.50661 12.4,-33.30165 12.40002,6.61835 12.4,73.44082 L 321,154.2422 l 12.39999,-47.52179 12.4,54.991 12.40002,-1.72351 12.4,-41.99394 12.39999,37.05589 12.39999,-44.46008 12.4,-8.06977 12.40002,-0.97059 12.4,116.95967 L 445,131.59874 l 12.39999,-46.026825 12.4,40.217795 12.40002,28.1106 12.4,9.04891"
           style="fill:none;stroke:#77ac30;stroke-width:0.666667;stroke-linecap:butt;stroke-linejoin:round;stroke-miterlimit:10;stroke-dasharray:none;stroke-opacity:1"
           id="path352" /></g><g
         id="g354"
         transform="matrix(6,0,0,6,701.10223,2107.5591)"><path
           d="M 85.400002,119.4451 97.800003,160.97771 110.2,126.73943 l 12.4,-0.41985 12.4,38.32805 12.39999,-21.48351 12.40001,19.73755 12.4,-4.23208 12.40001,-3.83258 L 197,223.42735 209.39999,105.69592 221.8,118.37289 l 12.4,65.57302 12.40001,-69.27598 12.39999,6.18108 12.39999,19.6684 12.4,22.60818 12.40002,-21.03086 12.4,19.7552 12.39999,19.52069 12.39999,-94.963662 12.4,51.231382 12.40002,31.33892 12.4,-24.18689 12.39999,12.63527 12.39999,-76.594098 12.4,8.139091 12.40002,9.955086 12.4,95.736691 L 445,162.01076 l 12.39999,-72.01517 12.4,58.07266 12.40002,-4.07037 12.4,25.44572"
           style="fill:none;stroke:#4dbeee;stroke-width:0.666667;stroke-linecap:butt;stroke-linejoin:round;stroke-miterlimit:10;stroke-dasharray:none;stroke-opacity:1"
           id="path356" /></g><g
         id="g358"
         transform="matrix(6,0,0,6,701.10223,2107.5591)"><path
           d="M 85.400002,96.854507 97.800003,166.60658 110.2,120.99987 122.6,118.10998 135,118.564 147.39999,154.21024 159.8,164.92787 172.2,166.0943 184.60001,88.428886 197,225.44075 209.39999,95.733185 221.8,96.567856 234.2,159.23927 246.60001,96.686714 259,136.5444 l 12.39999,-35.18395 12.4,-4.714881 12.40002,36.808971 12.4,137.35173 L 321,144.1485 l 12.39999,-72.461732 12.4,58.139662 12.40002,49.30779 12.4,-83.447315 L 383,109.80554 l 12.39999,-7.65619 12.4,2.76278 12.40002,-19.736967 12.4,20.671607 L 445,70.510551 l 12.39999,10.990754 12.4,63.236705 12.40002,-39.46315 12.4,18.30671"
           style="fill:none;stroke:#a2142f;stroke-width:0.666667;stroke-linecap:butt;stroke-linejoin:round;stroke-miterlimit:10;stroke-dasharray:none;stroke-opacity:1"
           id="path360" /></g><g
         id="g450"
         transform="matrix(5.6330471,0,0,6.001042,730.01466,2107.2355)"
         style="fill:#ffffff;fill-opacity:1"><path
           d="M 79,370 V 251 h 131 v 119 z"
           style="fill:#ffffff;stroke:#262626;stroke-width:0.666667;stroke-linecap:butt;stroke-linejoin:miter;stroke-miterlimit:10;stroke-dasharray:none;stroke-opacity:1;fill-opacity:1"
           id="path452" /></g><g
         id="g366"
         transform="translate(-136.95763,-9.6449036)"><g
           id="g368"
           transform="matrix(6,0,0,6,1457.1022,3673.5591)"><text
             transform="translate(0,5)"
             style="font-variant:normal;font-weight:normal;font-size:12px;font-family:Helvetica;-inkscape-font-specification:Helvetica;writing-mode:lr-tb;fill:#000000;fill-opacity:1;fill-rule:nonzero;stroke:none"
             id="text372"><tspan
               x="0 6.6719999 10.008 13.344 20.016001 23.351999 26.688 33.360001 40.032001 46.703999 52.703999 59.375999 62.712002 66.047997"
               y="0"
               sodipodi:role="line"
               id="tspan370">n. of epoch: 5</tspan></text></g></g><g
         id="g374"
         transform="matrix(2.2867121,0,0,6,1009.3051,2107.5591)"><path
           d="m 83,261 h 40"
           style="fill:none;stroke:#0072bd;stroke-width:0.666667;stroke-linecap:butt;stroke-linejoin:round;stroke-miterlimit:10;stroke-dasharray:none;stroke-opacity:1"
           id="path376" /></g><g
         id="g378"
         transform="translate(-136.95763,-9.6449036)"><g
           id="g380"
           transform="matrix(6,0,0,6,1457.1022,3772.5591)"><text
             transform="translate(0,5)"
             style="font-variant:normal;font-weight:normal;font-size:12px;font-family:Helvetica;-inkscape-font-specification:Helvetica;writing-mode:lr-tb;fill:#000000;fill-opacity:1;fill-rule:nonzero;stroke:none"
             id="text384"><tspan
               x="0 6.6719999 10.008 13.344 20.016001 23.351999 26.688 33.360001 40.032001 46.703999 52.703999 59.375999 62.712002 66.047997 72.720001"
               y="0"
               sodipodi:role="line"
               id="tspan382">n. of epoch: 10</tspan></text></g></g><g
         id="g386"
         transform="matrix(2.2867121,0,0,6,1009.3051,2107.5591)"><path
           d="m 83,277.5 h 40"
           style="fill:none;stroke:#d95319;stroke-width:0.666667;stroke-linecap:butt;stroke-linejoin:round;stroke-miterlimit:10;stroke-dasharray:none;stroke-opacity:1"
           id="path388" /></g><g
         id="g390"
         transform="translate(-136.95763,-9.6449036)"><g
           id="g392"
           transform="matrix(6,0,0,6,1457.1022,3871.5591)"><text
             transform="translate(0,5)"
             style="font-variant:normal;font-weight:normal;font-size:12px;font-family:Helvetica;-inkscape-font-specification:Helvetica;writing-mode:lr-tb;fill:#000000;fill-opacity:1;fill-rule:nonzero;stroke:none"
             id="text396"><tspan
               x="0 6.6719999 10.008 13.344 20.016001 23.351999 26.688 33.360001 40.032001 46.703999 52.703999 59.375999 62.712002 66.047997 72.720001"
               y="0"
               sodipodi:role="line"
               id="tspan394">n. of epoch: 20</tspan></text></g></g><g
         id="g398"
         transform="matrix(2.2867121,0,0,6,1009.3051,2107.5591)"><path
           d="m 83,294 h 40"
           style="fill:none;stroke:#edb120;stroke-width:0.666667;stroke-linecap:butt;stroke-linejoin:round;stroke-miterlimit:10;stroke-dasharray:none;stroke-opacity:1"
           id="path400" /></g><g
         id="g402"
         transform="translate(-136.95763,-9.6449036)"><g
           id="g404"
           transform="matrix(6,0,0,6,1457.1022,3970.5591)"><text
             transform="translate(0,5)"
             style="font-variant:normal;font-weight:normal;font-size:12px;font-family:Helvetica;-inkscape-font-specification:Helvetica;writing-mode:lr-tb;fill:#000000;fill-opacity:1;fill-rule:nonzero;stroke:none"
             id="text408"><tspan
               x="0 6.6719999 10.008 13.344 20.016001 23.351999 26.688 33.360001 40.032001 46.703999 52.703999 59.375999 62.712002 66.047997 72.720001"
               y="0"
               sodipodi:role="line"
               id="tspan406">n. of epoch: 30</tspan></text></g></g><g
         id="g410"
         transform="matrix(2.2867121,0,0,6,1009.3051,2107.5591)"><path
           d="m 83,310.5 h 40"
           style="fill:none;stroke:#7e2f8e;stroke-width:0.666667;stroke-linecap:butt;stroke-linejoin:round;stroke-miterlimit:10;stroke-dasharray:none;stroke-opacity:1"
           id="path412" /></g><g
         id="g414"
         transform="translate(-136.95763,-9.6449036)"><g
           id="g416"
           transform="matrix(6,0,0,6,1457.1022,4069.5591)"><text
             transform="translate(0,5)"
             style="font-variant:normal;font-weight:normal;font-size:12px;font-family:Helvetica;-inkscape-font-specification:Helvetica;writing-mode:lr-tb;fill:#000000;fill-opacity:1;fill-rule:nonzero;stroke:none"
             id="text420"><tspan
               x="0 6.6719999 10.008 13.344 20.016001 23.351999 26.688 33.360001 40.032001 46.703999 52.703999 59.375999 62.712002 66.047997 72.720001"
               y="0"
               sodipodi:role="line"
               id="tspan418">n. of epoch: 40</tspan></text></g></g><g
         id="g422"
         transform="matrix(2.2867121,0,0,6,1009.3051,2107.5591)"><path
           d="m 83,327 h 40"
           style="fill:none;stroke:#77ac30;stroke-width:0.666667;stroke-linecap:butt;stroke-linejoin:round;stroke-miterlimit:10;stroke-dasharray:none;stroke-opacity:1"
           id="path424" /></g><g
         id="g426"
         transform="translate(-136.95763,-9.6449036)"><g
           id="g428"
           transform="matrix(6,0,0,6,1457.1022,4168.5591)"><text
             transform="translate(0,5)"
             style="font-variant:normal;font-weight:normal;font-size:12px;font-family:Helvetica;-inkscape-font-specification:Helvetica;writing-mode:lr-tb;fill:#000000;fill-opacity:1;fill-rule:nonzero;stroke:none"
             id="text432"><tspan
               x="0 6.6719999 10.008 13.344 20.016001 23.351999 26.688 33.360001 40.032001 46.703999 52.703999 59.375999 62.712002 66.047997 72.720001"
               y="0"
               sodipodi:role="line"
               id="tspan430">n. of epoch: 50</tspan></text></g></g><g
         id="g434"
         transform="matrix(2.2867121,0,0,6,1009.3051,2107.5591)"><path
           d="m 83,343.5 h 40"
           style="fill:none;stroke:#4dbeee;stroke-width:0.666667;stroke-linecap:butt;stroke-linejoin:round;stroke-miterlimit:10;stroke-dasharray:none;stroke-opacity:1"
           id="path436" /></g><g
         id="g438"
         transform="translate(-136.95763,-9.6449036)"><g
           id="g440"
           transform="matrix(6,0,0,6,1457.1022,4267.5591)"><text
             transform="translate(0,5)"
             style="font-variant:normal;font-weight:normal;font-size:12px;font-family:Helvetica;-inkscape-font-specification:Helvetica;writing-mode:lr-tb;fill:#000000;fill-opacity:1;fill-rule:nonzero;stroke:none"
             id="text444"><tspan
               x="0 6.6719999 10.008 13.344 20.016001 23.351999 26.688 33.360001 40.032001 46.703999 52.703999 59.375999 62.712002 66.047997 72.720001"
               y="0"
               sodipodi:role="line"
               id="tspan442">n. of epoch: 60</tspan></text></g></g><g
         id="g446"
         transform="matrix(2.2867121,0,0,6,1009.3051,2107.5591)"><path
           d="m 83,360 h 40"
           style="fill:none;stroke:#a2142f;stroke-width:0.666667;stroke-linecap:butt;stroke-linejoin:round;stroke-miterlimit:10;stroke-dasharray:none;stroke-opacity:1"
           id="path448" /></g></g></g></svg>
