<?xml version="1.0" encoding="UTF-8" standalone="no"?>
<!-- Generator: Adobe Illustrator 25.0.0, SVG Export Plug-In . SVG Version: 6.00 Build 0)  -->

<svg
   version="1.1"
   id="Livello_1"
   x="0px"
   y="0px"
   viewBox="0 0 595.3 841.9"
   style="enable-background:new 0 0 595.3 841.9;"
   xml:space="preserve"
   sodipodi:docname="gpu.svg"
   inkscape:version="1.1.1 (3bf5ae0d25, 2021-09-20)"
   xmlns:inkscape="http://www.inkscape.org/namespaces/inkscape"
   xmlns:sodipodi="http://sodipodi.sourceforge.net/DTD/sodipodi-0.dtd"
   xmlns="http://www.w3.org/2000/svg"
   xmlns:svg="http://www.w3.org/2000/svg"><defs
   id="defs39" /><sodipodi:namedview
   id="namedview37"
   pagecolor="#ffffff"
   bordercolor="#666666"
   borderopacity="1.0"
   inkscape:pageshadow="2"
   inkscape:pageopacity="0.0"
   inkscape:pagecheckerboard="0"
   showgrid="false"
   inkscape:zoom="4.1477609"
   inkscape:cx="142.9687"
   inkscape:cy="498.22062"
   inkscape:window-width="3440"
   inkscape:window-height="1369"
   inkscape:window-x="-8"
   inkscape:window-y="-8"
   inkscape:window-maximized="1"
   inkscape:current-layer="Livello_1" />
<style
   type="text/css"
   id="style2">
	.st0{fill:#7E0C07;}
	.st1{fill:#1B58A5;}
	.st2{fill:#088936;}
	.st3{font-family:'MyriadPro-Regular';}
	.st4{font-size:12px;}
	.st5{fill:none;stroke:#000000;stroke-width:0.5;stroke-miterlimit:10;}
</style>
<rect
   x="83"
   y="285.8"
   class="st0"
   width="17"
   height="243.8"
   id="rect4" />
<rect
   x="125.5"
   y="495.5"
   class="st1"
   width="17"
   height="34"
   id="rect6" />
<rect
   x="167.9"
   y="518.2"
   class="st2"
   width="17"
   height="11.3"
   id="rect8" />
<text
   transform="matrix(0.5 -0.866 0.866 0.5 93.943 281.9432)"
   class="st3 st4"
   id="text10">macOS Iris 650</text>
<text
   transform="matrix(0.5 -0.866 0.866 0.5 133.9584 491.0288)"
   class="st3 st4"
   id="text12">windows Quadro P620</text>
<text
   transform="matrix(0.5 -0.866 0.866 0.5 176.408 514.4922)"
   class="st3 st4"
   id="text14">windows RTX GeForce 3060</text>
<g
   id="g28">
	<g
   id="g26">
		<polyline
   class="st5"
   points="54.5,221.5 54.5,529.6 209.4,529.6   "
   id="polyline16" />
		<g
   id="g20">
			<path
   d="M54.5,222.3l1.8,1.1l0-0.1l-1.2-2.9c-0.2-1-0.5-2-0.7-3.1c-0.2,1-0.5,2-0.7,3.1l-1.2,2.9l0,0.1L54.5,222.3z"
   id="path18" />
		</g>
		<g
   id="g24">
			<path
   d="M208.5,529.6l-1.1-1.8l0.1,0l2.9,1.2c1,0.2,2,0.5,3.1,0.7c-1,0.2-2,0.5-3.1,0.7l-2.9,1.2l-0.1,0L208.5,529.6z"
   id="path22" />
		</g>
	</g>
</g>
<text
   transform="matrix(1 0 0 1 79.5367 541.6182)"
   class="st3 st4"
   id="text30">43:01</text>
<text
   transform="matrix(1 0 0 1 122.9679 541.6182)"
   class="st3 st4"
   id="text32">6:26</text>
<text
   transform="matrix(1 0 0 1 166.0909 541.6182)"
   class="st3 st4"
   id="text34">1:58</text>
<text
   xml:space="preserve"
   style="font-size:16px;line-height:1.25;font-family:sans-serif"
   x="47.736599"
   y="212.88594"
   id="text1296"><tspan
     sodipodi:role="line"
     id="tspan1294"
     x="47.736599"
     y="212.88594">time</tspan></text><text
   xml:space="preserve"
   style="font-size:16px;line-height:1.25;font-family:sans-serif"
   x="53.040665"
   y="562.23108"
   id="text2782"><tspan
     sodipodi:role="line"
     id="tspan2780"
     x="53.040665"
     y="562.23108">iterations = 210</tspan></text></svg>
