<?xml version="1.0" encoding="UTF-8" standalone="no"?>
<!-- Created with Inkscape (http://www.inkscape.org/) -->

<svg
   version="1.1"
   id="svg2"
   xml:space="preserve"
   width="793.33331"
   height="1122.6667"
   viewBox="0 0 793.33331 1122.6667"
   sodipodi:docname="loss.svg"
   inkscape:version="1.1.1 (3bf5ae0d25, 2021-09-20)"
   xmlns:inkscape="http://www.inkscape.org/namespaces/inkscape"
   xmlns:sodipodi="http://sodipodi.sourceforge.net/DTD/sodipodi-0.dtd"
   xmlns="http://www.w3.org/2000/svg"
   xmlns:svg="http://www.w3.org/2000/svg"><defs
     id="defs6"><clipPath
       clipPathUnits="userSpaceOnUse"
       id="clipPath18"><path
         d="M 0,0 H 3437.9999 V 702.00002 H 0 Z"
         id="path16" /></clipPath></defs><sodipodi:namedview
     id="namedview4"
     pagecolor="#ffffff"
     bordercolor="#666666"
     borderopacity="1.0"
     inkscape:pageshadow="2"
     inkscape:pageopacity="0.0"
     inkscape:pagecheckerboard="0"
     showgrid="false"
     inkscape:zoom="0.77761277"
     inkscape:cx="300.92098"
     inkscape:cy="315.70984"
     inkscape:window-width="3440"
     inkscape:window-height="1369"
     inkscape:window-x="-8"
     inkscape:window-y="-8"
     inkscape:window-maximized="1"
     inkscape:current-layer="g10" /><g
     id="g8"
     inkscape:groupmode="layer"
     inkscape:label="loss"
     transform="matrix(1.3333333,0,0,-1.3333333,0,1122.6667)"><g
       id="g10"
       transform="matrix(0.125,0,0,-0.125,0,842)"><g
         id="g26"
         transform="matrix(6,0,0,5.9957265,-7932.8979,1263.059)"><path
           d="M 447,624 H 3111 V 53 H 447 Z"
           style="fill:#ffffff;fill-opacity:1;fill-rule:nonzero;stroke:none"
           id="path28" /></g><g
         id="g30"
         transform="matrix(6,0,0,5.9957265,-7932.8979,1263.059)"><path
           d="M 447,624 H 3111"
           style="fill:none;stroke:#262626;stroke-width:0.666667;stroke-linecap:square;stroke-linejoin:round;stroke-miterlimit:10;stroke-dasharray:none;stroke-opacity:1"
           id="path32" /></g><g
         id="g34"
         transform="matrix(6,0,0,5.9957265,-7932.8979,1263.059)"><path
           d="M 447,52.999989 H 3111"
           style="fill:none;stroke:#262626;stroke-width:0.666667;stroke-linecap:square;stroke-linejoin:round;stroke-miterlimit:10;stroke-dasharray:none;stroke-opacity:1"
           id="path36" /></g><g
         id="g42"
         transform="matrix(6,0,0,5.9957265,-7932.8979,1263.059)"><path
           d="M 780,624 V 597.35999"
           style="fill:none;stroke:#262626;stroke-width:0.666667;stroke-linecap:square;stroke-linejoin:round;stroke-miterlimit:10;stroke-dasharray:none;stroke-opacity:1"
           id="path44" /></g><g
         id="g46"
         transform="matrix(6,0,0,5.9957265,-7932.8979,1263.059)"><path
           d="M 1113,624 V 597.35999"
           style="fill:none;stroke:#262626;stroke-width:0.666667;stroke-linecap:square;stroke-linejoin:round;stroke-miterlimit:10;stroke-dasharray:none;stroke-opacity:1"
           id="path48" /></g><g
         id="g50"
         transform="matrix(6,0,0,5.9957265,-7932.8979,1263.059)"><path
           d="M 1446,624 V 597.35999"
           style="fill:none;stroke:#262626;stroke-width:0.666667;stroke-linecap:square;stroke-linejoin:round;stroke-miterlimit:10;stroke-dasharray:none;stroke-opacity:1"
           id="path52" /></g><g
         id="g54"
         transform="matrix(6,0,0,5.9957265,-7932.8979,1263.059)"><path
           d="M 1779,624 V 597.35999"
           style="fill:none;stroke:#262626;stroke-width:0.666667;stroke-linecap:square;stroke-linejoin:round;stroke-miterlimit:10;stroke-dasharray:none;stroke-opacity:1"
           id="path56" /></g><g
         id="g58"
         transform="matrix(6,0,0,5.9957265,-7932.8979,1263.059)"><path
           d="M 2112,624 V 597.35999"
           style="fill:none;stroke:#262626;stroke-width:0.666667;stroke-linecap:square;stroke-linejoin:round;stroke-miterlimit:10;stroke-dasharray:none;stroke-opacity:1"
           id="path60" /></g><g
         id="g62"
         transform="matrix(6,0,0,5.9957265,-7932.8979,1263.059)"><path
           d="M 2445,624 V 597.35999"
           style="fill:none;stroke:#262626;stroke-width:0.666667;stroke-linecap:square;stroke-linejoin:round;stroke-miterlimit:10;stroke-dasharray:none;stroke-opacity:1"
           id="path64" /></g><g
         id="g66"
         transform="matrix(6,0,0,5.9957265,-7932.8979,1263.059)"><path
           d="M 2778,624 V 597.35999"
           style="fill:none;stroke:#262626;stroke-width:0.666667;stroke-linecap:square;stroke-linejoin:round;stroke-miterlimit:10;stroke-dasharray:none;stroke-opacity:1"
           id="path68" /></g><g
         id="g70"
         transform="matrix(6,0,0,5.9957265,-7932.8979,1263.059)"><path
           d="M 3111,624 V 597.35999"
           style="fill:none;stroke:#262626;stroke-width:0.666667;stroke-linecap:square;stroke-linejoin:round;stroke-miterlimit:10;stroke-dasharray:none;stroke-opacity:1"
           id="path72" /></g><g
         id="g78"
         transform="matrix(6,0,0,5.9957265,-7932.8979,1263.059)"><path
           d="M 780,52.999989 V 79.640007"
           style="fill:none;stroke:#262626;stroke-width:0.666667;stroke-linecap:square;stroke-linejoin:round;stroke-miterlimit:10;stroke-dasharray:none;stroke-opacity:1"
           id="path80" /></g><g
         id="g82"
         transform="matrix(6,0,0,5.9957265,-7932.8979,1263.059)"><path
           d="M 1113,52.999989 V 79.640007"
           style="fill:none;stroke:#262626;stroke-width:0.666667;stroke-linecap:square;stroke-linejoin:round;stroke-miterlimit:10;stroke-dasharray:none;stroke-opacity:1"
           id="path84" /></g><g
         id="g86"
         transform="matrix(6,0,0,5.9957265,-7932.8979,1263.059)"><path
           d="M 1446,52.999989 V 79.640007"
           style="fill:none;stroke:#262626;stroke-width:0.666667;stroke-linecap:square;stroke-linejoin:round;stroke-miterlimit:10;stroke-dasharray:none;stroke-opacity:1"
           id="path88" /></g><g
         id="g90"
         transform="matrix(6,0,0,5.9957265,-7932.8979,1263.059)"><path
           d="M 1779,52.999989 V 79.640007"
           style="fill:none;stroke:#262626;stroke-width:0.666667;stroke-linecap:square;stroke-linejoin:round;stroke-miterlimit:10;stroke-dasharray:none;stroke-opacity:1"
           id="path92" /></g><g
         id="g94"
         transform="matrix(6,0,0,5.9957265,-7932.8979,1263.059)"><path
           d="M 2112,52.999989 V 79.640007"
           style="fill:none;stroke:#262626;stroke-width:0.666667;stroke-linecap:square;stroke-linejoin:round;stroke-miterlimit:10;stroke-dasharray:none;stroke-opacity:1"
           id="path96" /></g><g
         id="g98"
         transform="matrix(6,0,0,5.9957265,-7932.8979,1263.059)"><path
           d="M 2445,52.999989 V 79.640007"
           style="fill:none;stroke:#262626;stroke-width:0.666667;stroke-linecap:square;stroke-linejoin:round;stroke-miterlimit:10;stroke-dasharray:none;stroke-opacity:1"
           id="path100" /></g><g
         id="g102"
         transform="matrix(6,0,0,5.9957265,-7932.8979,1263.059)"><path
           d="M 2778,52.999989 V 79.640007"
           style="fill:none;stroke:#262626;stroke-width:0.666667;stroke-linecap:square;stroke-linejoin:round;stroke-miterlimit:10;stroke-dasharray:none;stroke-opacity:1"
           id="path104" /></g><g
         id="g106"
         transform="matrix(6,0,0,5.9957265,-7932.8979,1263.059)"><path
           d="M 3111,52.999989 V 79.640007"
           style="fill:none;stroke:#262626;stroke-width:0.666667;stroke-linecap:square;stroke-linejoin:round;stroke-miterlimit:10;stroke-dasharray:none;stroke-opacity:1"
           id="path108" /></g><g
         id="g110"
         transform="translate(-54.01146,123.45477)"><g
           id="g112"
           transform="matrix(6,0,0,5.9957265,-5250.8979,5036.3694)"><text
             transform="translate(-4,14)"
             style="font-variant:normal;font-weight:normal;font-size:13.333px;font-family:Helvetica;-inkscape-font-specification:Helvetica;writing-mode:lr-tb;fill:#262626;fill-opacity:1;fill-rule:nonzero;stroke:none"
             id="text116"><tspan
               x="0"
               y="0"
               id="tspan114">0</tspan></text></g></g><g
         id="g118"
         transform="translate(-54.01146,123.45477)"><g
           id="g120"
           transform="matrix(6,0,0,5.9957265,-3252.8979,5036.3694)"><text
             transform="translate(-4,14)"
             style="font-variant:normal;font-weight:normal;font-size:13.333px;font-family:Helvetica;-inkscape-font-specification:Helvetica;writing-mode:lr-tb;fill:#262626;fill-opacity:1;fill-rule:nonzero;stroke:none"
             id="text124"><tspan
               x="0"
               y="0"
               id="tspan122">5</tspan></text></g></g><g
         id="g126"
         transform="translate(-54.01146,123.45477)"><g
           id="g128"
           transform="matrix(6,0,0,5.9957265,-1254.8979,5036.3694)"><text
             transform="translate(-7.5,14)"
             style="font-variant:normal;font-weight:normal;font-size:13.333px;font-family:Helvetica;-inkscape-font-specification:Helvetica;writing-mode:lr-tb;fill:#262626;fill-opacity:1;fill-rule:nonzero;stroke:none"
             id="text132"><tspan
               x="0 7.4131479"
               y="0"
               sodipodi:role="line"
               id="tspan130">10</tspan></text></g></g><g
         id="g134"
         transform="translate(-54.01146,123.45477)"><g
           id="g136"
           transform="matrix(6,0,0,5.9957265,743.10205,5036.3694)"><text
             transform="translate(-7.5,14)"
             style="font-variant:normal;font-weight:normal;font-size:13.333px;font-family:Helvetica;-inkscape-font-specification:Helvetica;writing-mode:lr-tb;fill:#262626;fill-opacity:1;fill-rule:nonzero;stroke:none"
             id="text140"><tspan
               x="0 7.4131479"
               y="0"
               sodipodi:role="line"
               id="tspan138">15</tspan></text></g></g><g
         id="g142"
         transform="translate(-54.01146,123.45477)"><g
           id="g144"
           transform="matrix(6,0,0,5.9957265,2741.1021,5036.3694)"><text
             transform="translate(-7.5,14)"
             style="font-variant:normal;font-weight:normal;font-size:13.333px;font-family:Helvetica;-inkscape-font-specification:Helvetica;writing-mode:lr-tb;fill:#262626;fill-opacity:1;fill-rule:nonzero;stroke:none"
             id="text148"><tspan
               x="0 7.4131479"
               y="0"
               sodipodi:role="line"
               id="tspan146">20</tspan></text></g></g><g
         id="g150"
         transform="translate(-54.01146,123.45477)"><g
           id="g152"
           transform="matrix(6,0,0,5.9957265,4739.1021,5036.3694)"><text
             transform="translate(-7.5,14)"
             style="font-variant:normal;font-weight:normal;font-size:13.333px;font-family:Helvetica;-inkscape-font-specification:Helvetica;writing-mode:lr-tb;fill:#262626;fill-opacity:1;fill-rule:nonzero;stroke:none"
             id="text156"><tspan
               x="0 7.4131479"
               y="0"
               sodipodi:role="line"
               id="tspan154">25</tspan></text></g></g><g
         id="g158"
         transform="translate(-54.01146,123.45477)"><g
           id="g160"
           transform="matrix(6,0,0,5.9957265,6737.1021,5036.3694)"><text
             transform="translate(-7.5,14)"
             style="font-variant:normal;font-weight:normal;font-size:13.333px;font-family:Helvetica;-inkscape-font-specification:Helvetica;writing-mode:lr-tb;fill:#262626;fill-opacity:1;fill-rule:nonzero;stroke:none"
             id="text164"><tspan
               x="0 7.4131479"
               y="0"
               sodipodi:role="line"
               id="tspan162">30</tspan></text></g></g><g
         id="g166"
         transform="translate(-54.01146,123.45477)"><g
           id="g168"
           transform="matrix(6,0,0,5.9957265,8735.1021,5036.3694)"><text
             transform="translate(-7.5,14)"
             style="font-variant:normal;font-weight:normal;font-size:13.333px;font-family:Helvetica;-inkscape-font-specification:Helvetica;writing-mode:lr-tb;fill:#262626;fill-opacity:1;fill-rule:nonzero;stroke:none"
             id="text172"><tspan
               x="0 7.4131479"
               y="0"
               sodipodi:role="line"
               id="tspan170">35</tspan></text></g></g><g
         id="g174"
         transform="translate(-54.01146,123.45477)"><g
           id="g176"
           transform="matrix(6,0,0,5.9957265,10733.102,5036.3694)"><text
             transform="translate(-7.5,14)"
             style="font-variant:normal;font-weight:normal;font-size:13.333px;font-family:Helvetica;-inkscape-font-specification:Helvetica;writing-mode:lr-tb;fill:#262626;fill-opacity:1;fill-rule:nonzero;stroke:none"
             id="text180"><tspan
               x="0 7.4131479"
               y="0"
               sodipodi:role="line"
               id="tspan178">40</tspan></text></g></g><g
         id="g182"
         transform="matrix(6,0,0,5.9957265,-7932.8979,1263.059)"><path
           d="M 447,624 V 52.999989"
           style="fill:none;stroke:#262626;stroke-width:0.666667;stroke-linecap:square;stroke-linejoin:round;stroke-miterlimit:10;stroke-dasharray:none;stroke-opacity:1"
           id="path184" /></g><g
         id="g186"
         transform="matrix(6,0,0,5.9957265,-7932.8979,1263.059)"><path
           d="M 3111,624 V 52.999989"
           style="fill:none;stroke:#262626;stroke-width:0.666667;stroke-linecap:square;stroke-linejoin:round;stroke-miterlimit:10;stroke-dasharray:none;stroke-opacity:1"
           id="path188" /></g><g
         id="g190"
         transform="matrix(6,0,0,5.9957265,-7932.8979,1263.059)"><path
           d="m 447,624 h 26.64001"
           style="fill:none;stroke:#262626;stroke-width:0.666667;stroke-linecap:square;stroke-linejoin:round;stroke-miterlimit:10;stroke-dasharray:none;stroke-opacity:1"
           id="path192" /></g><g
         id="g194"
         transform="matrix(6,0,0,5.9957265,-7932.8979,1263.059)"><path
           d="m 447,542.42859 h 26.64001"
           style="fill:none;stroke:#262626;stroke-width:0.666667;stroke-linecap:square;stroke-linejoin:round;stroke-miterlimit:10;stroke-dasharray:none;stroke-opacity:1"
           id="path196" /></g><g
         id="g198"
         transform="matrix(6,0,0,5.9957265,-7932.8979,1263.059)"><path
           d="m 447,460.85715 h 26.64001"
           style="fill:none;stroke:#262626;stroke-width:0.666667;stroke-linecap:square;stroke-linejoin:round;stroke-miterlimit:10;stroke-dasharray:none;stroke-opacity:1"
           id="path200" /></g><g
         id="g202"
         transform="matrix(6,0,0,5.9957265,-7932.8979,1263.059)"><path
           d="m 447,379.28571 h 26.64001"
           style="fill:none;stroke:#262626;stroke-width:0.666667;stroke-linecap:square;stroke-linejoin:round;stroke-miterlimit:10;stroke-dasharray:none;stroke-opacity:1"
           id="path204" /></g><g
         id="g206"
         transform="matrix(6,0,0,5.9957265,-7932.8979,1263.059)"><path
           d="m 447,297.71429 h 26.64001"
           style="fill:none;stroke:#262626;stroke-width:0.666667;stroke-linecap:square;stroke-linejoin:round;stroke-miterlimit:10;stroke-dasharray:none;stroke-opacity:1"
           id="path208" /></g><g
         id="g210"
         transform="matrix(6,0,0,5.9957265,-7932.8979,1263.059)"><path
           d="m 447,216.14284 h 26.64001"
           style="fill:none;stroke:#262626;stroke-width:0.666667;stroke-linecap:square;stroke-linejoin:round;stroke-miterlimit:10;stroke-dasharray:none;stroke-opacity:1"
           id="path212" /></g><g
         id="g214"
         transform="matrix(6,0,0,5.9957265,-7932.8979,1263.059)"><path
           d="m 447,134.57144 h 26.64001"
           style="fill:none;stroke:#262626;stroke-width:0.666667;stroke-linecap:square;stroke-linejoin:round;stroke-miterlimit:10;stroke-dasharray:none;stroke-opacity:1"
           id="path216" /></g><g
         id="g218"
         transform="matrix(6,0,0,5.9957265,-7932.8979,1263.059)"><path
           d="m 447,52.999989 h 26.64001"
           style="fill:none;stroke:#262626;stroke-width:0.666667;stroke-linecap:square;stroke-linejoin:round;stroke-miterlimit:10;stroke-dasharray:none;stroke-opacity:1"
           id="path220" /></g><g
         id="g222"
         transform="matrix(6,0,0,5.9957265,-7932.8979,1263.059)"><path
           d="m 3111,624 h -26.6401"
           style="fill:none;stroke:#262626;stroke-width:0.666667;stroke-linecap:square;stroke-linejoin:round;stroke-miterlimit:10;stroke-dasharray:none;stroke-opacity:1"
           id="path224" /></g><g
         id="g226"
         transform="matrix(6,0,0,5.9957265,-7932.8979,1263.059)"><path
           d="m 3111,542.42859 h -26.6401"
           style="fill:none;stroke:#262626;stroke-width:0.666667;stroke-linecap:square;stroke-linejoin:round;stroke-miterlimit:10;stroke-dasharray:none;stroke-opacity:1"
           id="path228" /></g><g
         id="g230"
         transform="matrix(6,0,0,5.9957265,-7932.8979,1263.059)"><path
           d="m 3111,460.85715 h -26.6401"
           style="fill:none;stroke:#262626;stroke-width:0.666667;stroke-linecap:square;stroke-linejoin:round;stroke-miterlimit:10;stroke-dasharray:none;stroke-opacity:1"
           id="path232" /></g><g
         id="g234"
         transform="matrix(6,0,0,5.9957265,-7932.8979,1263.059)"><path
           d="m 3111,379.28571 h -26.6401"
           style="fill:none;stroke:#262626;stroke-width:0.666667;stroke-linecap:square;stroke-linejoin:round;stroke-miterlimit:10;stroke-dasharray:none;stroke-opacity:1"
           id="path236" /></g><g
         id="g238"
         transform="matrix(6,0,0,5.9957265,-7932.8979,1263.059)"><path
           d="m 3111,297.71429 h -26.6401"
           style="fill:none;stroke:#262626;stroke-width:0.666667;stroke-linecap:square;stroke-linejoin:round;stroke-miterlimit:10;stroke-dasharray:none;stroke-opacity:1"
           id="path240" /></g><g
         id="g242"
         transform="matrix(6,0,0,5.9957265,-7932.8979,1263.059)"><path
           d="m 3111,216.14284 h -26.6401"
           style="fill:none;stroke:#262626;stroke-width:0.666667;stroke-linecap:square;stroke-linejoin:round;stroke-miterlimit:10;stroke-dasharray:none;stroke-opacity:1"
           id="path244" /></g><g
         id="g246"
         transform="matrix(6,0,0,5.9957265,-7932.8979,1263.059)"><path
           d="m 3111,134.57144 h -26.6401"
           style="fill:none;stroke:#262626;stroke-width:0.666667;stroke-linecap:square;stroke-linejoin:round;stroke-miterlimit:10;stroke-dasharray:none;stroke-opacity:1"
           id="path248" /></g><g
         id="g250"
         transform="matrix(6,0,0,5.9957265,-7932.8979,1263.059)"><path
           d="m 3111,52.999989 h -26.6401"
           style="fill:none;stroke:#262626;stroke-width:0.666667;stroke-linecap:square;stroke-linejoin:round;stroke-miterlimit:10;stroke-dasharray:none;stroke-opacity:1"
           id="path252" /></g><g
         id="g254"
         transform="translate(-295.13405,-3.8579614)"><g
           id="g256"
           transform="matrix(6,0,0,5.9957265,-5282.898,5004.3923)"><text
             transform="translate(-19,5.5)"
             style="font-variant:normal;font-weight:normal;font-size:13.333px;font-family:Helvetica;-inkscape-font-specification:Helvetica;writing-mode:lr-tb;fill:#262626;fill-opacity:1;fill-rule:nonzero;stroke:none"
             id="text260"><tspan
               x="0 7.4131479 11.119722"
               y="0"
               sodipodi:role="line"
               id="tspan258">0.1</tspan></text></g></g><g
         id="g262"
         transform="translate(-295.13405,-3.8579614)"><g
           id="g264"
           transform="matrix(6,0,0,5.9957265,-5282.898,4515.3124)"><text
             transform="translate(-19,5.5)"
             style="font-variant:normal;font-weight:normal;font-size:13.333px;font-family:Helvetica;-inkscape-font-specification:Helvetica;writing-mode:lr-tb;fill:#262626;fill-opacity:1;fill-rule:nonzero;stroke:none"
             id="text268"><tspan
               x="0 7.4131479 11.119722"
               y="0"
               sodipodi:role="line"
               id="tspan266">0.2</tspan></text></g></g><g
         id="g270"
         transform="translate(-295.13405,-3.8579614)"><g
           id="g272"
           transform="matrix(6,0,0,5.9957265,-5282.898,4026.2324)"><text
             transform="translate(-19,5.5)"
             style="font-variant:normal;font-weight:normal;font-size:13.333px;font-family:Helvetica;-inkscape-font-specification:Helvetica;writing-mode:lr-tb;fill:#262626;fill-opacity:1;fill-rule:nonzero;stroke:none"
             id="text276"><tspan
               x="0 7.4131479 11.119722"
               y="0"
               sodipodi:role="line"
               id="tspan274">0.3</tspan></text></g></g><g
         id="g278"
         transform="translate(-295.13405,-3.8579614)"><g
           id="g280"
           transform="matrix(6,0,0,5.9957265,-5282.898,3537.1523)"><text
             transform="translate(-19,5.5)"
             style="font-variant:normal;font-weight:normal;font-size:13.333px;font-family:Helvetica;-inkscape-font-specification:Helvetica;writing-mode:lr-tb;fill:#262626;fill-opacity:1;fill-rule:nonzero;stroke:none"
             id="text284"><tspan
               x="0 7.4131479 11.119722"
               y="0"
               sodipodi:role="line"
               id="tspan282">0.4</tspan></text></g></g><g
         id="g286"
         transform="translate(-295.13405,-3.8579614)"><g
           id="g288"
           transform="matrix(6,0,0,5.9957265,-5282.898,3048.0724)"><text
             transform="translate(-19,5.5)"
             style="font-variant:normal;font-weight:normal;font-size:13.333px;font-family:Helvetica;-inkscape-font-specification:Helvetica;writing-mode:lr-tb;fill:#262626;fill-opacity:1;fill-rule:nonzero;stroke:none"
             id="text292"><tspan
               x="0 7.4131479 11.119722"
               y="0"
               sodipodi:role="line"
               id="tspan290">0.5</tspan></text></g></g><g
         id="g294"
         transform="translate(-295.13405,-3.8579614)"><g
           id="g296"
           transform="matrix(6,0,0,5.9957265,-5282.898,2558.9923)"><text
             transform="translate(-19,5.5)"
             style="font-variant:normal;font-weight:normal;font-size:13.333px;font-family:Helvetica;-inkscape-font-specification:Helvetica;writing-mode:lr-tb;fill:#262626;fill-opacity:1;fill-rule:nonzero;stroke:none"
             id="text300"><tspan
               x="0 7.4131479 11.119722"
               y="0"
               sodipodi:role="line"
               id="tspan298">0.6</tspan></text></g></g><g
         id="g302"
         transform="translate(-295.13405,-3.8579614)"><g
           id="g304"
           transform="matrix(6,0,0,5.9957265,-5282.898,2069.9125)"><text
             transform="translate(-19,5.5)"
             style="font-variant:normal;font-weight:normal;font-size:13.333px;font-family:Helvetica;-inkscape-font-specification:Helvetica;writing-mode:lr-tb;fill:#262626;fill-opacity:1;fill-rule:nonzero;stroke:none"
             id="text308"><tspan
               x="0 7.4131479 11.119722"
               y="0"
               sodipodi:role="line"
               id="tspan306">0.7</tspan></text></g></g><g
         id="g310"
         transform="translate(-287.41813,-3.8579614)"><g
           id="g312"
           transform="matrix(6,0,0,5.9957265,-5282.898,1580.8324)"><text
             transform="translate(-19,5.5)"
             style="font-variant:normal;font-weight:normal;font-size:13.333px;font-family:Helvetica;-inkscape-font-specification:Helvetica;writing-mode:lr-tb;fill:#262626;fill-opacity:1;fill-rule:nonzero;stroke:none"
             id="text316"><tspan
               x="0 7.4131479 11.119722"
               y="0"
               sodipodi:role="line"
               id="tspan314">0.8</tspan></text></g></g><g
         id="g318"><g
           id="g320"
           transform="matrix(6,0,0,5.9957265,2741.1123,1564.3441)"><text
             transform="translate(-48.5,-4)"
             style="font-variant:normal;font-weight:bold;font-size:14.667px;font-family:Helvetica;-inkscape-font-specification:Helvetica-Bold;writing-mode:lr-tb;fill:#000000;fill-opacity:1;fill-rule:nonzero;stroke:none"
             id="text324"><tspan
               x="0 8.9615374 14.667 22.821852 26.899279 35.860813 39.93824 48.899776 57.861317 61.93874 70.900276 79.861816 88.01667"
               y="0"
               sodipodi:role="line"
               id="tspan322">Training Loss</tspan></text></g></g><g
         id="g326"
         transform="matrix(6,0,0,5.9957265,-7932.8979,1263.059)"><path
           d="m 513.59998,70.894279 66.60003,95.932781 66.59998,96.37747 66.60003,145.75018 66.59998,20.03537 66.59998,6.38507 66.60003,-16.22976 66.59998,-56.52524 66.60001,49.68066 66.6,39.6185 66.6,-119.10687 66.6,17.8305 66.6,-74.57269 66.6,-12.69668 66.6,112.74737 66.6,68.14954 66.6,47.12399 66.6,-102.0889 66.6,129.77787 66.6,-34.68461 66.6,2.76377 66.6,-11.7486 66.6,33.54556 66.6,21.75632 66.6,5.4643 66.6001,12.86779 66.5999,15.50702 66.6,-19.1159 66.5999,24.7268 66.6001,1.04078 66.6001,6.74163 66.5999,-1.35266 66.6,-1.65704 66.5999,1.23456 66.6001,2.90393 66.6001,-4.2804 66.5999,9.21918 66.6,-3.76819 66.5999,12.50653 L 3111,576.66644"
           style="fill:none;stroke:#d95319;stroke-width:0.666667;stroke-linecap:butt;stroke-linejoin:round;stroke-miterlimit:10;stroke-dasharray:none;stroke-opacity:1"
           id="path328" /></g></g></g></svg>
