<?xml version="1.0" encoding="UTF-8" standalone="no"?>
<!-- Created with Inkscape (http://www.inkscape.org/) -->

<svg
   version="1.1"
   id="svg2"
   xml:space="preserve"
   width="793.33331"
   height="1122.6667"
   viewBox="0 0 793.33331 1122.6667"
   sodipodi:docname="lr.svg"
   inkscape:version="1.1.1 (3bf5ae0d25, 2021-09-20)"
   xmlns:inkscape="http://www.inkscape.org/namespaces/inkscape"
   xmlns:sodipodi="http://sodipodi.sourceforge.net/DTD/sodipodi-0.dtd"
   xmlns="http://www.w3.org/2000/svg"
   xmlns:svg="http://www.w3.org/2000/svg"><defs
     id="defs6"><clipPath
       clipPathUnits="userSpaceOnUse"
       id="clipPath18"><path
         d="M 0,0 H 560.00001 V 420 H 0 Z"
         id="path16" /></clipPath></defs><sodipodi:namedview
     id="namedview4"
     pagecolor="#ffffff"
     bordercolor="#666666"
     borderopacity="1.0"
     inkscape:pageshadow="2"
     inkscape:pageopacity="0.0"
     inkscape:pagecheckerboard="0"
     showgrid="false"
     inkscape:zoom="3.1104511"
     inkscape:cx="289.99009"
     inkscape:cy="648.61975"
     inkscape:window-width="1920"
     inkscape:window-height="1009"
     inkscape:window-x="3432"
     inkscape:window-y="344"
     inkscape:window-maximized="1"
     inkscape:current-layer="g10" /><g
     id="g8"
     inkscape:groupmode="layer"
     inkscape:label="lr"
     transform="matrix(1.3333333,0,0,-1.3333333,0,1122.6667)"><g
       id="g10"
       transform="matrix(0.125,0,0,-0.125,0,842)"><g
         id="g26"
         transform="matrix(6,0,0,6,701.10223,2107.5591)"><path
           d="M 73,374 H 507 V 31 H 73 Z"
           style="fill:#ffffff;fill-opacity:1;fill-rule:nonzero;stroke:none"
           id="path28" /></g><g
         id="g30"
         transform="matrix(6,0,0,6,701.10223,2107.5591)"><path
           d="M 73,374 H 507"
           style="fill:none;stroke:#262626;stroke-width:0.666667;stroke-linecap:square;stroke-linejoin:round;stroke-miterlimit:10;stroke-dasharray:none;stroke-opacity:1"
           id="path32" /></g><g
         id="g34"
         transform="matrix(6,0,0,6,701.10223,2107.5591)"><path
           d="M 73,31.00001 H 507"
           style="fill:none;stroke:#262626;stroke-width:0.666667;stroke-linecap:square;stroke-linejoin:round;stroke-miterlimit:10;stroke-dasharray:none;stroke-opacity:1"
           id="path36" /></g><g
         id="g38"
         transform="matrix(6,0,0,6,701.10223,2107.5591)"><path
           d="m 73,374 v -4.34"
           style="fill:none;stroke:#262626;stroke-width:0.666667;stroke-linecap:square;stroke-linejoin:round;stroke-miterlimit:10;stroke-dasharray:none;stroke-opacity:1"
           id="path40" /></g><g
         id="g42"
         transform="matrix(6,0,0,6,701.10223,2107.5591)"><path
           d="m 135,374 v -4.34"
           style="fill:none;stroke:#262626;stroke-width:0.666667;stroke-linecap:square;stroke-linejoin:round;stroke-miterlimit:10;stroke-dasharray:none;stroke-opacity:1"
           id="path44" /></g><g
         id="g46"
         transform="matrix(6,0,0,6,701.10223,2107.5591)"><path
           d="m 197,374 v -4.34"
           style="fill:none;stroke:#262626;stroke-width:0.666667;stroke-linecap:square;stroke-linejoin:round;stroke-miterlimit:10;stroke-dasharray:none;stroke-opacity:1"
           id="path48" /></g><g
         id="g50"
         transform="matrix(6,0,0,6,701.10223,2107.5591)"><path
           d="m 259,374 v -4.34"
           style="fill:none;stroke:#262626;stroke-width:0.666667;stroke-linecap:square;stroke-linejoin:round;stroke-miterlimit:10;stroke-dasharray:none;stroke-opacity:1"
           id="path52" /></g><g
         id="g54"
         transform="matrix(6,0,0,6,701.10223,2107.5591)"><path
           d="m 321,374 v -4.34"
           style="fill:none;stroke:#262626;stroke-width:0.666667;stroke-linecap:square;stroke-linejoin:round;stroke-miterlimit:10;stroke-dasharray:none;stroke-opacity:1"
           id="path56" /></g><g
         id="g58"
         transform="matrix(6,0,0,6,701.10223,2107.5591)"><path
           d="m 383,374 v -4.34"
           style="fill:none;stroke:#262626;stroke-width:0.666667;stroke-linecap:square;stroke-linejoin:round;stroke-miterlimit:10;stroke-dasharray:none;stroke-opacity:1"
           id="path60" /></g><g
         id="g62"
         transform="matrix(6,0,0,6,701.10223,2107.5591)"><path
           d="m 445,374 v -4.34"
           style="fill:none;stroke:#262626;stroke-width:0.666667;stroke-linecap:square;stroke-linejoin:round;stroke-miterlimit:10;stroke-dasharray:none;stroke-opacity:1"
           id="path64" /></g><g
         id="g66"
         transform="matrix(6,0,0,6,701.10223,2107.5591)"><path
           d="m 507,374 v -4.34"
           style="fill:none;stroke:#262626;stroke-width:0.666667;stroke-linecap:square;stroke-linejoin:round;stroke-miterlimit:10;stroke-dasharray:none;stroke-opacity:1"
           id="path68" /></g><g
         id="g70"
         transform="matrix(6,0,0,6,701.10223,2107.5591)"><path
           d="m 73,31.00001 v 4.340013"
           style="fill:none;stroke:#262626;stroke-width:0.666667;stroke-linecap:square;stroke-linejoin:round;stroke-miterlimit:10;stroke-dasharray:none;stroke-opacity:1"
           id="path72" /></g><g
         id="g74"
         transform="matrix(6,0,0,6,701.10223,2107.5591)"><path
           d="m 135,31.00001 v 4.340013"
           style="fill:none;stroke:#262626;stroke-width:0.666667;stroke-linecap:square;stroke-linejoin:round;stroke-miterlimit:10;stroke-dasharray:none;stroke-opacity:1"
           id="path76" /></g><g
         id="g78"
         transform="matrix(6,0,0,6,701.10223,2107.5591)"><path
           d="m 197,31.00001 v 4.340013"
           style="fill:none;stroke:#262626;stroke-width:0.666667;stroke-linecap:square;stroke-linejoin:round;stroke-miterlimit:10;stroke-dasharray:none;stroke-opacity:1"
           id="path80" /></g><g
         id="g82"
         transform="matrix(6,0,0,6,701.10223,2107.5591)"><path
           d="m 259,31.00001 v 4.340013"
           style="fill:none;stroke:#262626;stroke-width:0.666667;stroke-linecap:square;stroke-linejoin:round;stroke-miterlimit:10;stroke-dasharray:none;stroke-opacity:1"
           id="path84" /></g><g
         id="g86"
         transform="matrix(6,0,0,6,701.10223,2107.5591)"><path
           d="m 321,31.00001 v 4.340013"
           style="fill:none;stroke:#262626;stroke-width:0.666667;stroke-linecap:square;stroke-linejoin:round;stroke-miterlimit:10;stroke-dasharray:none;stroke-opacity:1"
           id="path88" /></g><g
         id="g90"
         transform="matrix(6,0,0,6,701.10223,2107.5591)"><path
           d="m 383,31.00001 v 4.340013"
           style="fill:none;stroke:#262626;stroke-width:0.666667;stroke-linecap:square;stroke-linejoin:round;stroke-miterlimit:10;stroke-dasharray:none;stroke-opacity:1"
           id="path92" /></g><g
         id="g94"
         transform="matrix(6,0,0,6,701.10223,2107.5591)"><path
           d="m 445,31.00001 v 4.340013"
           style="fill:none;stroke:#262626;stroke-width:0.666667;stroke-linecap:square;stroke-linejoin:round;stroke-miterlimit:10;stroke-dasharray:none;stroke-opacity:1"
           id="path96" /></g><g
         id="g98"
         transform="matrix(6,0,0,6,701.10223,2107.5591)"><path
           d="m 507,31.00001 v 4.340013"
           style="fill:none;stroke:#262626;stroke-width:0.666667;stroke-linecap:square;stroke-linejoin:round;stroke-miterlimit:10;stroke-dasharray:none;stroke-opacity:1"
           id="path100" /></g><g
         id="g102"><g
           id="g104"
           transform="matrix(6,0,0,6,1139.1022,4383.5591)"><text
             transform="translate(-4,14)"
             style="font-variant:normal;font-weight:normal;font-size:13.333px;font-family:Helvetica;-inkscape-font-specification:Helvetica;writing-mode:lr-tb;fill:#262626;fill-opacity:1;fill-rule:nonzero;stroke:none"
             id="text108"><tspan
               x="0"
               y="0"
               id="tspan106">0</tspan></text></g></g><g
         id="g110"><g
           id="g112"
           transform="matrix(6,0,0,6,1511.1022,4383.5591)"><text
             transform="translate(-4,14)"
             style="font-variant:normal;font-weight:normal;font-size:13.333px;font-family:Helvetica;-inkscape-font-specification:Helvetica;writing-mode:lr-tb;fill:#262626;fill-opacity:1;fill-rule:nonzero;stroke:none"
             id="text116"><tspan
               x="0"
               y="0"
               id="tspan114">5</tspan></text></g></g><g
         id="g118"><g
           id="g120"
           transform="matrix(6,0,0,6,1883.1022,4383.5591)"><text
             transform="translate(-7.5,14)"
             style="font-variant:normal;font-weight:normal;font-size:13.333px;font-family:Helvetica;-inkscape-font-specification:Helvetica;writing-mode:lr-tb;fill:#262626;fill-opacity:1;fill-rule:nonzero;stroke:none"
             id="text124"><tspan
               x="0 7.4131479"
               y="0"
               sodipodi:role="line"
               id="tspan122">10</tspan></text></g></g><g
         id="g126"><g
           id="g128"
           transform="matrix(6,0,0,6,2255.1022,4383.5591)"><text
             transform="translate(-7.5,14)"
             style="font-variant:normal;font-weight:normal;font-size:13.333px;font-family:Helvetica;-inkscape-font-specification:Helvetica;writing-mode:lr-tb;fill:#262626;fill-opacity:1;fill-rule:nonzero;stroke:none"
             id="text132"><tspan
               x="0 7.4131479"
               y="0"
               sodipodi:role="line"
               id="tspan130">15</tspan></text></g></g><g
         id="g134"><g
           id="g136"
           transform="matrix(6,0,0,6,2627.1022,4383.5591)"><text
             transform="translate(-7.5,14)"
             style="font-variant:normal;font-weight:normal;font-size:13.333px;font-family:Helvetica;-inkscape-font-specification:Helvetica;writing-mode:lr-tb;fill:#262626;fill-opacity:1;fill-rule:nonzero;stroke:none"
             id="text140"><tspan
               x="0 7.4131479"
               y="0"
               sodipodi:role="line"
               id="tspan138">20</tspan></text></g></g><g
         id="g142"><g
           id="g144"
           transform="matrix(6,0,0,6,2999.1022,4383.5591)"><text
             transform="translate(-7.5,14)"
             style="font-variant:normal;font-weight:normal;font-size:13.333px;font-family:Helvetica;-inkscape-font-specification:Helvetica;writing-mode:lr-tb;fill:#262626;fill-opacity:1;fill-rule:nonzero;stroke:none"
             id="text148"><tspan
               x="0 7.4131479"
               y="0"
               sodipodi:role="line"
               id="tspan146">25</tspan></text></g></g><g
         id="g150"><g
           id="g152"
           transform="matrix(6,0,0,6,3371.1022,4383.5591)"><text
             transform="translate(-7.5,14)"
             style="font-variant:normal;font-weight:normal;font-size:13.333px;font-family:Helvetica;-inkscape-font-specification:Helvetica;writing-mode:lr-tb;fill:#262626;fill-opacity:1;fill-rule:nonzero;stroke:none"
             id="text156"><tspan
               x="0 7.4131479"
               y="0"
               sodipodi:role="line"
               id="tspan154">30</tspan></text></g></g><g
         id="g158"><g
           id="g160"
           transform="matrix(6,0,0,6,3743.1022,4383.5591)"><text
             transform="translate(-7.5,14)"
             style="font-variant:normal;font-weight:normal;font-size:13.333px;font-family:Helvetica;-inkscape-font-specification:Helvetica;writing-mode:lr-tb;fill:#262626;fill-opacity:1;fill-rule:nonzero;stroke:none"
             id="text164"><tspan
               x="0 7.4131479"
               y="0"
               sodipodi:role="line"
               id="tspan162">35</tspan></text></g></g><g
         id="g166"><g
           id="g168"
           transform="matrix(6,0,0,6,2441.1035,4493.559)"><text
             transform="translate(-34,15)"
             style="font-variant:normal;font-weight:normal;font-size:14.667px;font-family:Helvetica;-inkscape-font-specification:Helvetica;writing-mode:lr-tb;fill:#262626;fill-opacity:1;fill-rule:nonzero;stroke:none"
             id="text172"><tspan
               x="0 4.077426 12.232278 19.565779 23.643204 31.798056 39.952908 44.030334 47.286407 59.504021"
               y="0"
               sodipodi:role="line"
               id="tspan170">tested img</tspan></text></g></g><g
         id="g174"
         transform="matrix(6,0,0,6,701.10223,2107.5591)"><path
           d="M 73,374 V 31.00001"
           style="fill:none;stroke:#262626;stroke-width:0.666667;stroke-linecap:square;stroke-linejoin:round;stroke-miterlimit:10;stroke-dasharray:none;stroke-opacity:1"
           id="path176" /></g><g
         id="g178"
         transform="matrix(6,0,0,6,701.10223,2107.5591)"><path
           d="M 507,374 V 31.00001"
           style="fill:none;stroke:#262626;stroke-width:0.666667;stroke-linecap:square;stroke-linejoin:round;stroke-miterlimit:10;stroke-dasharray:none;stroke-opacity:1"
           id="path180" /></g><g
         id="g182"
         transform="matrix(6,0,0,6,701.10223,2107.5591)"><path
           d="m 73,374 h 4.339996"
           style="fill:none;stroke:#262626;stroke-width:0.666667;stroke-linecap:square;stroke-linejoin:round;stroke-miterlimit:10;stroke-dasharray:none;stroke-opacity:1"
           id="path184" /></g><g
         id="g186"
         transform="matrix(6,0,0,6,701.10223,2107.5591)"><path
           d="m 73,331.125 h 4.339996"
           style="fill:none;stroke:#262626;stroke-width:0.666667;stroke-linecap:square;stroke-linejoin:round;stroke-miterlimit:10;stroke-dasharray:none;stroke-opacity:1"
           id="path188" /></g><g
         id="g190"
         transform="matrix(6,0,0,6,701.10223,2107.5591)"><path
           d="m 73,288.25 h 4.339996"
           style="fill:none;stroke:#262626;stroke-width:0.666667;stroke-linecap:square;stroke-linejoin:round;stroke-miterlimit:10;stroke-dasharray:none;stroke-opacity:1"
           id="path192" /></g><g
         id="g194"
         transform="matrix(6,0,0,6,701.10223,2107.5591)"><path
           d="m 73,245.375 h 4.339996"
           style="fill:none;stroke:#262626;stroke-width:0.666667;stroke-linecap:square;stroke-linejoin:round;stroke-miterlimit:10;stroke-dasharray:none;stroke-opacity:1"
           id="path196" /></g><g
         id="g198"
         transform="matrix(6,0,0,6,701.10223,2107.5591)"><path
           d="m 73,202.5 h 4.339996"
           style="fill:none;stroke:#262626;stroke-width:0.666667;stroke-linecap:square;stroke-linejoin:round;stroke-miterlimit:10;stroke-dasharray:none;stroke-opacity:1"
           id="path200" /></g><g
         id="g202"
         transform="matrix(6,0,0,6,701.10223,2107.5591)"><path
           d="m 73,159.62498 h 4.339996"
           style="fill:none;stroke:#262626;stroke-width:0.666667;stroke-linecap:square;stroke-linejoin:round;stroke-miterlimit:10;stroke-dasharray:none;stroke-opacity:1"
           id="path204" /></g><g
         id="g206"
         transform="matrix(6,0,0,6,701.10223,2107.5591)"><path
           d="m 73,116.75001 h 4.339996"
           style="fill:none;stroke:#262626;stroke-width:0.666667;stroke-linecap:square;stroke-linejoin:round;stroke-miterlimit:10;stroke-dasharray:none;stroke-opacity:1"
           id="path208" /></g><g
         id="g210"
         transform="matrix(6,0,0,6,701.10223,2107.5591)"><path
           d="m 73,73.874992 h 4.339996"
           style="fill:none;stroke:#262626;stroke-width:0.666667;stroke-linecap:square;stroke-linejoin:round;stroke-miterlimit:10;stroke-dasharray:none;stroke-opacity:1"
           id="path212" /></g><g
         id="g214"
         transform="matrix(6,0,0,6,701.10223,2107.5591)"><path
           d="m 73,31.00001 h 4.339996"
           style="fill:none;stroke:#262626;stroke-width:0.666667;stroke-linecap:square;stroke-linejoin:round;stroke-miterlimit:10;stroke-dasharray:none;stroke-opacity:1"
           id="path216" /></g><g
         id="g218"
         transform="matrix(6,0,0,6,701.10223,2107.5591)"><path
           d="m 507,374 h -4.33997"
           style="fill:none;stroke:#262626;stroke-width:0.666667;stroke-linecap:square;stroke-linejoin:round;stroke-miterlimit:10;stroke-dasharray:none;stroke-opacity:1"
           id="path220" /></g><g
         id="g222"
         transform="matrix(6,0,0,6,701.10223,2107.5591)"><path
           d="m 507,331.125 h -4.33997"
           style="fill:none;stroke:#262626;stroke-width:0.666667;stroke-linecap:square;stroke-linejoin:round;stroke-miterlimit:10;stroke-dasharray:none;stroke-opacity:1"
           id="path224" /></g><g
         id="g226"
         transform="matrix(6,0,0,6,701.10223,2107.5591)"><path
           d="m 507,288.25 h -4.33997"
           style="fill:none;stroke:#262626;stroke-width:0.666667;stroke-linecap:square;stroke-linejoin:round;stroke-miterlimit:10;stroke-dasharray:none;stroke-opacity:1"
           id="path228" /></g><g
         id="g230"
         transform="matrix(6,0,0,6,701.10223,2107.5591)"><path
           d="m 507,245.375 h -4.33997"
           style="fill:none;stroke:#262626;stroke-width:0.666667;stroke-linecap:square;stroke-linejoin:round;stroke-miterlimit:10;stroke-dasharray:none;stroke-opacity:1"
           id="path232" /></g><g
         id="g234"
         transform="matrix(6,0,0,6,701.10223,2107.5591)"><path
           d="m 507,202.5 h -4.33997"
           style="fill:none;stroke:#262626;stroke-width:0.666667;stroke-linecap:square;stroke-linejoin:round;stroke-miterlimit:10;stroke-dasharray:none;stroke-opacity:1"
           id="path236" /></g><g
         id="g238"
         transform="matrix(6,0,0,6,701.10223,2107.5591)"><path
           d="m 507,159.62498 h -4.33997"
           style="fill:none;stroke:#262626;stroke-width:0.666667;stroke-linecap:square;stroke-linejoin:round;stroke-miterlimit:10;stroke-dasharray:none;stroke-opacity:1"
           id="path240" /></g><g
         id="g242"
         transform="matrix(6,0,0,6,701.10223,2107.5591)"><path
           d="m 507,116.75001 h -4.33997"
           style="fill:none;stroke:#262626;stroke-width:0.666667;stroke-linecap:square;stroke-linejoin:round;stroke-miterlimit:10;stroke-dasharray:none;stroke-opacity:1"
           id="path244" /></g><g
         id="g246"
         transform="matrix(6,0,0,6,701.10223,2107.5591)"><path
           d="m 507,73.874992 h -4.33997"
           style="fill:none;stroke:#262626;stroke-width:0.666667;stroke-linecap:square;stroke-linejoin:round;stroke-miterlimit:10;stroke-dasharray:none;stroke-opacity:1"
           id="path248" /></g><g
         id="g250"
         transform="matrix(6,0,0,6,701.10223,2107.5591)"><path
           d="m 507,31.00001 h -4.33997"
           style="fill:none;stroke:#262626;stroke-width:0.666667;stroke-linecap:square;stroke-linejoin:round;stroke-miterlimit:10;stroke-dasharray:none;stroke-opacity:1"
           id="path252" /></g><g
         id="g254"><g
           id="g256"
           transform="matrix(6,0,0,6,1107.1022,4351.5591)"><text
             transform="translate(-19,5.5)"
             style="font-variant:normal;font-weight:normal;font-size:13.333px;font-family:Helvetica;-inkscape-font-specification:Helvetica;writing-mode:lr-tb;fill:#262626;fill-opacity:1;fill-rule:nonzero;stroke:none"
             id="text260"><tspan
               x="0 7.4131479 11.119722"
               y="0"
               sodipodi:role="line"
               id="tspan258">0.1</tspan></text></g></g><g
         id="g262"><g
           id="g264"
           transform="matrix(6,0,0,6,1107.1022,4094.3091)"><text
             transform="translate(-19,5.5)"
             style="font-variant:normal;font-weight:normal;font-size:13.333px;font-family:Helvetica;-inkscape-font-specification:Helvetica;writing-mode:lr-tb;fill:#262626;fill-opacity:1;fill-rule:nonzero;stroke:none"
             id="text268"><tspan
               x="0 7.4131479 11.119722"
               y="0"
               sodipodi:role="line"
               id="tspan266">0.2</tspan></text></g></g><g
         id="g270"><g
           id="g272"
           transform="matrix(6,0,0,6,1107.1022,3837.0591)"><text
             transform="translate(-19,5.5)"
             style="font-variant:normal;font-weight:normal;font-size:13.333px;font-family:Helvetica;-inkscape-font-specification:Helvetica;writing-mode:lr-tb;fill:#262626;fill-opacity:1;fill-rule:nonzero;stroke:none"
             id="text276"><tspan
               x="0 7.4131479 11.119722"
               y="0"
               sodipodi:role="line"
               id="tspan274">0.3</tspan></text></g></g><g
         id="g278"><g
           id="g280"
           transform="matrix(6,0,0,6,1107.1022,3579.8091)"><text
             transform="translate(-19,5.5)"
             style="font-variant:normal;font-weight:normal;font-size:13.333px;font-family:Helvetica;-inkscape-font-specification:Helvetica;writing-mode:lr-tb;fill:#262626;fill-opacity:1;fill-rule:nonzero;stroke:none"
             id="text284"><tspan
               x="0 7.4131479 11.119722"
               y="0"
               sodipodi:role="line"
               id="tspan282">0.4</tspan></text></g></g><g
         id="g286"><g
           id="g288"
           transform="matrix(6,0,0,6,1107.1022,3322.5591)"><text
             transform="translate(-19,5.5)"
             style="font-variant:normal;font-weight:normal;font-size:13.333px;font-family:Helvetica;-inkscape-font-specification:Helvetica;writing-mode:lr-tb;fill:#262626;fill-opacity:1;fill-rule:nonzero;stroke:none"
             id="text292"><tspan
               x="0 7.4131479 11.119722"
               y="0"
               sodipodi:role="line"
               id="tspan290">0.5</tspan></text></g></g><g
         id="g294"><g
           id="g296"
           transform="matrix(6,0,0,6,1107.1022,3065.309)"><text
             transform="translate(-19,5.5)"
             style="font-variant:normal;font-weight:normal;font-size:13.333px;font-family:Helvetica;-inkscape-font-specification:Helvetica;writing-mode:lr-tb;fill:#262626;fill-opacity:1;fill-rule:nonzero;stroke:none"
             id="text300"><tspan
               x="0 7.4131479 11.119722"
               y="0"
               sodipodi:role="line"
               id="tspan298">0.6</tspan></text></g></g><g
         id="g302"><g
           id="g304"
           transform="matrix(6,0,0,6,1107.1022,2808.0591)"><text
             transform="translate(-19,5.5)"
             style="font-variant:normal;font-weight:normal;font-size:13.333px;font-family:Helvetica;-inkscape-font-specification:Helvetica;writing-mode:lr-tb;fill:#262626;fill-opacity:1;fill-rule:nonzero;stroke:none"
             id="text308"><tspan
               x="0 7.4131479 11.119722"
               y="0"
               sodipodi:role="line"
               id="tspan306">0.7</tspan></text></g></g><g
         id="g310"><g
           id="g312"
           transform="matrix(6,0,0,6,1107.1022,2550.809)"><text
             transform="translate(-19,5.5)"
             style="font-variant:normal;font-weight:normal;font-size:13.333px;font-family:Helvetica;-inkscape-font-specification:Helvetica;writing-mode:lr-tb;fill:#262626;fill-opacity:1;fill-rule:nonzero;stroke:none"
             id="text316"><tspan
               x="0 7.4131479 11.119722"
               y="0"
               sodipodi:role="line"
               id="tspan314">0.8</tspan></text></g></g><g
         id="g318"><g
           id="g320"
           transform="matrix(6,0,0,6,1107.1022,2293.5591)"><text
             transform="translate(-19,5.5)"
             style="font-variant:normal;font-weight:normal;font-size:13.333px;font-family:Helvetica;-inkscape-font-specification:Helvetica;writing-mode:lr-tb;fill:#262626;fill-opacity:1;fill-rule:nonzero;stroke:none"
             id="text324"><tspan
               x="0 7.4131479 11.119722"
               y="0"
               sodipodi:role="line"
               id="tspan322">0.9</tspan></text></g></g><g
         id="g326"><g
           id="g328"
           transform="matrix(-2.6e-7,-6,6,-2.6e-7,969.10224,3322.5582)"><text
             transform="translate(-11,-4)"
             style="font-variant:normal;font-weight:normal;font-size:14.667px;font-family:Helvetica;-inkscape-font-specification:Helvetica;writing-mode:lr-tb;fill:#262626;fill-opacity:1;fill-rule:nonzero;stroke:none"
             id="text332"><tspan
               x="0 8.9615374"
               y="0"
               sodipodi:role="line"
               id="tspan330">FM</tspan></text></g></g><g
         id="g334"
         transform="matrix(6,0,0,6,701.10223,2107.5591)"><path
           d="M 122.6,140.55498 135,115.3246 147.39999,148.35568 159.8,301.77484 172.2,203.52699 184.60001,257.44189 197,312.35126 209.39999,214.78697 221.8,233.4088 234.2,293.46814 246.60001,262.93945 259,243.20309 l 12.39999,36.87204 12.4,8.3349 12.40002,-195.849704 12.4,221.075874 L 321,164.21089 l 12.39999,-24.81755 12.4,-32.2819 12.40002,36.50325 12.4,-6.77396 L 383,117.53487 l 12.39999,-36.210247 12.4,162.639797 12.40002,-151.630207 12.4,240.652387 L 445,165.1575"
           style="fill:none;stroke:#0072bd;stroke-width:0.666667;stroke-linecap:butt;stroke-linejoin:round;stroke-miterlimit:10;stroke-dasharray:none;stroke-opacity:1"
           id="path336" /></g><g
         id="g338"
         transform="matrix(6,0,0,6,701.10223,2107.5591)"><path
           d="m 469.79999,194.58911 12.40002,23.94682 12.4,63.64434"
           style="fill:none;stroke:#0072bd;stroke-width:0.666667;stroke-linecap:butt;stroke-linejoin:round;stroke-miterlimit:10;stroke-dasharray:none;stroke-opacity:1"
           id="path340" /></g><g
         id="g342"
         transform="matrix(6,0,0,6,701.10223,2107.5591)"><path
           d="M 85.400002,48.465961 97.800003,102.32963 110.2,72.352989 122.6,74.415062 135,74.861336 147.39999,103.67522 159.8,149.2083 172.2,68.215958 184.60001,126.13902 197,93.80365 209.39999,92.504822 221.8,66.110954 234.2,159.10074 246.60001,75.211777 259,160.70399 l 12.39999,-65.432712 12.4,-29.389328 12.40002,31.048775 12.4,39.804475 L 321,89.463791 l 12.39999,-51.232113 12.4,41.160313 12.40002,35.389039 12.4,-62.355142 L 383,109.76203 l 12.39999,-75.036158 12.4,23.437759 12.40002,9.521031 12.4,44.454728 L 445,53.921139 457.39999,41.08942 l 12.4,47.539326 12.40002,-31.318771 12.4,63.540355"
           style="fill:none;stroke:#d95319;stroke-width:0.666667;stroke-linecap:butt;stroke-linejoin:round;stroke-miterlimit:10;stroke-dasharray:none;stroke-opacity:1"
           id="path344" /></g><g
         id="g346"
         transform="matrix(6,0,0,6,701.10223,2107.5591)"><path
           d="M 85.400002,181.34261 97.800003,169.25832 110.2,67.41848 122.6,82.070847 135,88.595802 147.39999,86.639091 159.8,160.71907 172.2,79.226189 184.60001,103.60827 197,77.165932 209.39999,54.299206 221.8,60.576813 234.2,121.68336 246.60001,70.817459 259,72.345268 l 12.39999,14.184166 12.4,-20.118278 12.40002,46.458014 12.4,4.5406 L 321,89.792664 l 12.39999,-56.320645 12.4,70.790651 12.40002,16.51457 12.4,-55.998668 L 383,77.910515 l 12.39999,-30.931908 12.4,3.267986 12.40002,46.986271 12.4,97.106246 L 445,59.134895 l 12.39999,-3.415722 12.4,60.769267 12.40002,-33.656554 12.4,61.596424"
           style="fill:none;stroke:#edb120;stroke-width:0.666667;stroke-linecap:butt;stroke-linejoin:round;stroke-miterlimit:10;stroke-dasharray:none;stroke-opacity:1"
           id="path348" /></g><g
         id="g350"
         transform="matrix(6,0,0,6,701.10223,2107.5591)"><path
           d="M 85.400002,175.11533 97.800003,341.43512 110.2,121.26832 122.6,160.43629 135,108.32952 147.39999,133.98445 159.8,188.88763 172.2,99.516708 184.60001,204.06325 197,108.45911 209.39999,129.85538 221.8,116.52509 234.2,194.02925 246.60001,145.23251 259,195.59189 l 12.39999,-59.1924 12.4,-23.69586 12.40002,43.74435"
           style="fill:none;stroke:#7e2f8e;stroke-width:0.666667;stroke-linecap:butt;stroke-linejoin:round;stroke-miterlimit:10;stroke-dasharray:none;stroke-opacity:1"
           id="path352" /></g><g
         id="g354"
         transform="matrix(6,0,0,6,701.10223,2107.5591)"><path
           d="m 321,155.69026 12.39999,-48.33747 12.4,75.54955 12.40002,-2.85258 12.4,-129.99532 12.39999,91.26917 12.39999,-79.088552 12.4,12.570614 12.40002,64.307988 12.4,-9.3161 L 445,93.306519 l 12.39999,-15.850228 12.4,10.938851 12.40002,64.964248 12.4,13.59828"
           style="fill:none;stroke:#7e2f8e;stroke-width:0.666667;stroke-linecap:butt;stroke-linejoin:round;stroke-miterlimit:10;stroke-dasharray:none;stroke-opacity:1"
           id="path356" /></g><g
         id="g358"
         transform="matrix(6,0,0,6,701.10223,2107.5591)"><path
           d="M 230,363 V 294 H 82 v 69 z"
           style="fill:#ffffff;fill-opacity:1;fill-rule:nonzero;stroke:none"
           id="path360" /></g><g
         id="g362"
         transform="translate(-119.5968,-5.7869422)"><g
           id="g364"
           transform="matrix(6,0,0,6,1475.1022,3931.1275)"><text
             transform="translate(0,5)"
             style="font-variant:normal;font-weight:normal;font-size:12px;font-family:Helvetica;-inkscape-font-specification:Helvetica;writing-mode:lr-tb;fill:#000000;fill-opacity:1;fill-rule:nonzero;stroke:none"
             id="text368"><tspan
               x="0 3.336 10.008 12.672 16.007999 19.344 22.68 25.344 28.68 32.015999 36.012001 42.683998 46.02 52.692001 56.028 59.363998 66.036003 69.372002"
               y="0"
               sodipodi:role="line"
               id="tspan366">Init. l. rate: 0.1</tspan></text></g></g><g
         id="g370"
         transform="matrix(2.2867121,0,0,6,1020.445,2107.5591)"><path
           d="m 86,303.92807 h 40"
           style="fill:none;stroke:#0072bd;stroke-width:0.666667;stroke-linecap:butt;stroke-linejoin:round;stroke-miterlimit:10;stroke-dasharray:none;stroke-opacity:1"
           id="path372" /></g><g
         id="g374"
         transform="translate(-119.5968,-5.7869422)"><g
           id="g376"
           transform="matrix(6,0,0,6,1475.1022,4029.4152)"><text
             transform="translate(0,5)"
             style="font-variant:normal;font-weight:normal;font-size:12px;font-family:Helvetica;-inkscape-font-specification:Helvetica;writing-mode:lr-tb;fill:#000000;fill-opacity:1;fill-rule:nonzero;stroke:none"
             id="text380"><tspan
               x="0 3.336 10.008 12.672 16.007999 19.344 22.68 25.344 28.68 32.015999 36.012001 42.683998 46.02 52.692001 56.028 59.363998 66.036003 69.372002 76.043999"
               y="0"
               sodipodi:role="line"
               id="tspan378">Init. l. rate: 0.01</tspan></text></g></g><g
         id="g382"
         transform="matrix(2.2867121,0,0,6,1020.445,2107.5591)"><path
           d="m 86,320.30936 h 40"
           style="fill:none;stroke:#d95319;stroke-width:0.666667;stroke-linecap:butt;stroke-linejoin:round;stroke-miterlimit:10;stroke-dasharray:none;stroke-opacity:1"
           id="path384" /></g><g
         id="g386"
         transform="translate(-119.5968,-5.7869422)"><g
           id="g388"
           transform="matrix(6,0,0,6,1475.1022,4127.7029)"><text
             transform="translate(0,5)"
             style="font-variant:normal;font-weight:normal;font-size:12px;font-family:Helvetica;-inkscape-font-specification:Helvetica;writing-mode:lr-tb;fill:#000000;fill-opacity:1;fill-rule:nonzero;stroke:none"
             id="text392"><tspan
               x="0 3.336 10.008 12.672 16.007999 19.344 22.68 25.344 28.68 32.015999 36.012001 42.683998 46.02 52.692001 56.028 59.363998 66.036003 69.372002 76.043999 82.716003"
               y="0"
               sodipodi:role="line"
               id="tspan390">Init. l. rate: 0.001</tspan></text></g></g><g
         id="g394"
         transform="matrix(2.2867121,0,0,6,1020.445,2107.5591)"><path
           d="m 86,336.69064 h 40"
           style="fill:none;stroke:#edb120;stroke-width:0.666667;stroke-linecap:butt;stroke-linejoin:round;stroke-miterlimit:10;stroke-dasharray:none;stroke-opacity:1"
           id="path396" /></g><g
         id="g398"
         transform="translate(-119.5968,-5.7869422)"><g
           id="g400"
           transform="matrix(6,0,0,6,1475.1022,4225.9907)"><text
             transform="translate(0,5)"
             style="font-variant:normal;font-weight:normal;font-size:12px;font-family:Helvetica;-inkscape-font-specification:Helvetica;writing-mode:lr-tb;fill:#000000;fill-opacity:1;fill-rule:nonzero;stroke:none"
             id="text404"><tspan
               x="0 3.336 10.008 12.672 16.007999 19.344 22.68 25.344 28.68 32.015999 36.012001 42.683998 46.02 52.692001 56.028 59.363998 66.036003 69.372002 76.043999 82.716003 89.388"
               y="0"
               sodipodi:role="line"
               id="tspan402">Init. l. rate: 0.0001</tspan></text></g></g><g
         id="g406"
         transform="matrix(2.2867121,0,0,6,1020.445,2107.5591)"><path
           d="m 86,353.07193 h 40"
           style="fill:none;stroke:#7e2f8e;stroke-width:0.666667;stroke-linecap:butt;stroke-linejoin:round;stroke-miterlimit:10;stroke-dasharray:none;stroke-opacity:1"
           id="path408" /></g><g
         id="g410"
         transform="matrix(6,0,0,6,701.10223,2107.5591)"><path
           d="m 82,363 v -69 h 148 v 69 z"
           style="fill:none;stroke:#262626;stroke-width:0.666667;stroke-linecap:butt;stroke-linejoin:miter;stroke-miterlimit:10;stroke-dasharray:none;stroke-opacity:1"
           id="path412" /></g></g></g></svg>
