<?xml version="1.0" encoding="UTF-8" standalone="no"?>
<!-- Generator: Adobe Illustrator 25.0.0, SVG Export Plug-In . SVG Version: 6.00 Build 0)  -->

<svg
   version="1.1"
   id="Livello_1"
   x="0px"
   y="0px"
   viewBox="0 0 595.3 841.9"
   style="enable-background:new 0 0 595.3 841.9;"
   xml:space="preserve"
   sodipodi:docname="mole.svg"
   inkscape:version="1.1.1 (3bf5ae0d25, 2021-09-20)"
   xmlns:inkscape="http://www.inkscape.org/namespaces/inkscape"
   xmlns:sodipodi="http://sodipodi.sourceforge.net/DTD/sodipodi-0.dtd"
   xmlns:xlink="http://www.w3.org/1999/xlink"
   xmlns="http://www.w3.org/2000/svg"
   xmlns:svg="http://www.w3.org/2000/svg"><defs
   id="defs51"><marker
     style="overflow:visible;"
     id="Arrow1Mend"
     refX="0.0"
     refY="0.0"
     orient="auto"
     inkscape:stockid="Arrow1Mend"
     inkscape:isstock="true"><path
       transform="scale(0.4) rotate(180) translate(10,0)"
       style="fill-rule:evenodd;fill:context-stroke;stroke:context-stroke;stroke-width:1.0pt;"
       d="M 0.0,0.0 L 5.0,-5.0 L -12.5,0.0 L 5.0,5.0 L 0.0,0.0 z "
       id="path971" /></marker><marker
     style="overflow:visible;"
     id="Arrow2Lend"
     refX="0.0"
     refY="0.0"
     orient="auto"
     inkscape:stockid="Arrow2Lend"
     inkscape:isstock="true"><path
       transform="scale(1.1) rotate(180) translate(1,0)"
       d="M 8.7185878,4.0337352 L -2.2072895,0.016013256 L 8.7185884,-4.0017078 C 6.9730900,-1.6296469 6.9831476,1.6157441 8.7185878,4.0337352 z "
       style="stroke:context-stroke;fill-rule:evenodd;fill:context-stroke;stroke-width:0.62500000;stroke-linejoin:round;"
       id="path983" /></marker><marker
     style="overflow:visible;"
     id="Arrow1Lend"
     refX="0.0"
     refY="0.0"
     orient="auto"
     inkscape:stockid="Arrow1Lend"
     inkscape:isstock="true"><path
       transform="scale(0.8) rotate(180) translate(12.5,0)"
       style="fill-rule:evenodd;fill:context-stroke;stroke:context-stroke;stroke-width:1.0pt;"
       d="M 0.0,0.0 L 5.0,-5.0 L -12.5,0.0 L 5.0,5.0 L 0.0,0.0 z "
       id="path965" /></marker></defs><sodipodi:namedview
   id="namedview49"
   pagecolor="#ffffff"
   bordercolor="#666666"
   borderopacity="1.0"
   inkscape:pageshadow="2"
   inkscape:pageopacity="0.0"
   inkscape:pagecheckerboard="0"
   showgrid="false"
   inkscape:zoom="4.1477609"
   inkscape:cx="181.78483"
   inkscape:cy="317.15907"
   inkscape:window-width="3440"
   inkscape:window-height="1369"
   inkscape:window-x="-8"
   inkscape:window-y="-8"
   inkscape:window-maximized="1"
   inkscape:current-layer="Livello_1" />
<style
   type="text/css"
   id="style2">
	.st0{fill:#FFFFFF;}
	.st1{opacity:0.6;}
	.st2{opacity:0.8;fill:#4FA0CA;stroke:#61B94C;stroke-width:3;stroke-miterlimit:10;}
	.st3{fill:none;stroke:#C2000B;stroke-miterlimit:10;}
	.st4{fill:none;stroke:#C2000B;stroke-miterlimit:10;stroke-dasharray:2.0163,2.0163;}
	.st5{fill:none;stroke:#C2000B;stroke-miterlimit:10;stroke-dasharray:2,2;}
	.st6{fill:#C2000B;}
</style>
<g
   id="g12">
	
		<image
   style="overflow:visible;"
   width="513"
   height="509"
   xlink:href="BBAEE221.png"
   transform="matrix(0.3273 0 0 0.3273 31.1179 267.7091)"
   id="image4">
	</image>
	<g
   id="g8">
		
			<image
   style="overflow:visible;"
   width="513"
   height="509"
   xlink:href="BBAEE223.png"
   transform="matrix(0.3273 0 0 0.3273 277.6234 267.7091)"
   id="image6">
		</image>
	</g>
	<path
   class="st0"
   d="M358.9,356.1"
   id="path10" />
</g>
<path
   class="st1"
   d="M277.6,267.9v166.3h167.9V267.9H277.6z M392.4,325.3c-1.3,12.8-3.3,12-3,20.1c0.3,10,3.6,15.6,0,19.4  c-2.5,2.5-8.3,4.5-8.3,4.5c0,0-5.4,5.1-8.3,10.4c-3.7,6.7-1,9.4-3.8,12.7c-4.7,5.4-16.8,3.3-23.5,0.7c-13.5-5.1-19.4-17.2-21.2-20.8  c-1.6-3.3-5.1-10.7-4.5-20.1c0.6-9,4.2-9.4,7.6-23.1c2.7-10.7,1-12.8,4.5-20.1c1.8-3.6,5.2-10.5,12.1-12.7c1.5-0.5,2.4-0.5,9.1,0  c12.6,0.9,18.9,1.6,24.3,2.2c10.6,1.3,11.3,1.5,12.1,2.2C394.3,304.8,393.6,313.2,392.4,325.3z"
   id="path14" />
<path
   class="st2"
   d="M343.9,296.2c-6.9,2.1-10.4,9-12.1,12.7c-3.5,7.3-1.9,9.4-4.5,20.1c-3.4,13.6-7,14.1-7.6,23.1  c-0.6,9.4,2.9,16.8,4.5,20.1c1.8,3.6,7.7,15.7,21.2,20.8c6.7,2.5,18.8,4.7,23.5-0.7c2.8-3.3,0.1-6,3.8-12.7  c2.9-5.3,8.3-10.4,8.3-10.4c0,0,5.9-1.9,8.3-4.5c3.6-3.7,0.3-9.3,0-19.4c-0.3-8.1,1.8-7.3,3-20.1c1.2-12.1,1.9-20.5-3-24.6  c-0.9-0.7-1.5-1-12.1-2.2c-5.3-0.6-11.7-1.4-24.3-2.2C346.3,295.7,345.4,295.7,343.9,296.2z"
   id="path16" />
<g
   id="g36"
   style="stroke-width:1.5;stroke-miterlimit:10;stroke-dasharray:3,3;stroke-dashoffset:0">
	<g
   id="g34"
   style="stroke-width:1.5;stroke-miterlimit:10;stroke-dasharray:3,3;stroke-dashoffset:0">
		<polyline
   class="st3"
   points="403.3,332.1 403.3,333.1 402.3,333.1   "
   id="polyline18"
   style="stroke-width:1.5;stroke-miterlimit:10;stroke-dasharray:3,3;stroke-dashoffset:0" />
		<line
   class="st4"
   x1="400.3"
   y1="333.1"
   x2="385.2"
   y2="333.1"
   id="line20"
   style="stroke-width:1.5;stroke-miterlimit:10;stroke-dasharray:3,3;stroke-dashoffset:0" />
		<polyline
   class="st3"
   points="384.2,333.1 383.2,333.1 383.2,332.1   "
   id="polyline22"
   style="stroke-width:1.5;stroke-miterlimit:10;stroke-dasharray:3,3;stroke-dashoffset:0" />
		<line
   class="st4"
   x1="383.2"
   y1="330.1"
   x2="383.2"
   y2="314.9"
   id="line24"
   style="stroke-width:1.5;stroke-miterlimit:10;stroke-dasharray:3,3;stroke-dashoffset:0" />
		<polyline
   class="st3"
   points="383.2,313.9 383.2,312.9 384.2,312.9   "
   id="polyline26"
   style="stroke-width:1.5;stroke-miterlimit:10;stroke-dasharray:3,3;stroke-dashoffset:0" />
		<line
   class="st4"
   x1="386.2"
   y1="312.9"
   x2="401.3"
   y2="312.9"
   id="line28"
   style="stroke-width:1.5;stroke-miterlimit:10;stroke-dasharray:3,3;stroke-dashoffset:0" />
		<polyline
   class="st3"
   points="402.3,312.9 403.3,312.9 403.3,313.9   "
   id="polyline30"
   style="stroke-width:1.5;stroke-miterlimit:10;stroke-dasharray:3,3;stroke-dashoffset:0" />
		<line
   class="st4"
   x1="403.3"
   y1="316"
   x2="403.3"
   y2="331.1"
   id="line32"
   style="stroke-width:1.5;stroke-miterlimit:10;stroke-dasharray:3,3;stroke-dashoffset:0" />
	</g>
</g>
<g
   id="g46">
	<g
   id="g44">
		<path
   class="st5"
   d="M404.2,308.8c4.5-6.1,13.1-16,26.9-23.3c16.8-8.9,46.2-16.7,67.4-3.7c24.1,14.7,17.7,44.3,46,59.9    c5.2,2.8,10.2,4.5,14.6,5.5"
   id="path38"
   style="stroke-width:1.5;stroke-miterlimit:10;stroke-dasharray:3,3;stroke-dashoffset:0" />
		<g
   id="g42">
			<path
   class="st6"
   d="M557.3,346.7l-1.5-3.9l0.1-0.1l5.4,3.3c1.9,0.8,3.9,1.6,5.8,2.4c-2.1,0.1-4.2,0.2-6.3,0.3l-6.2,1.3l-0.1-0.1     L557.3,346.7z"
   id="path40" />
		</g>
	</g>
</g>
<path
   style="fill:none;stroke:#000000;stroke-width:1.5;stroke-linecap:butt;stroke-linejoin:miter;stroke-opacity:1;marker-end:url(#Arrow1Mend);stroke-miterlimit:4;stroke-dasharray:none"
   d="m 204.44766,348.86293 h 61.72005"
   id="path960" /><text
   xml:space="preserve"
   style="font-size:16px;line-height:1.25;font-family:sans-serif"
   x="228.07487"
   y="344.28214"
   id="text2755"><tspan
     sodipodi:role="line"
     id="tspan2753"
     x="228.07487"
     y="344.28214">NET</tspan></text></svg>
