<?xml version="1.0" encoding="UTF-8" standalone="no"?>
<!-- Created with Inkscape (http://www.inkscape.org/) -->

<svg
   version="1.1"
   id="svg2"
   xml:space="preserve"
   width="793.33331"
   height="1122.6667"
   viewBox="0 0 793.33331 1122.6667"
   sodipodi:docname="net.svg"
   inkscape:version="1.1.1 (3bf5ae0d25, 2021-09-20)"
   xmlns:inkscape="http://www.inkscape.org/namespaces/inkscape"
   xmlns:sodipodi="http://sodipodi.sourceforge.net/DTD/sodipodi-0.dtd"
   xmlns="http://www.w3.org/2000/svg"
   xmlns:svg="http://www.w3.org/2000/svg"><defs
     id="defs6"><clipPath
       clipPathUnits="userSpaceOnUse"
       id="clipPath20"><path
         d="M 0,842 H 595 V 0 H 0 Z"
         id="path18" /></clipPath><clipPath
       clipPathUnits="userSpaceOnUse"
       id="clipPath76"><path
         d="M 0,842 H 595 V 0 H 0 Z"
         id="path74" /></clipPath><clipPath
       clipPathUnits="userSpaceOnUse"
       id="clipPath184"><path
         d="M 0,842 H 595 V 0 H 0 Z"
         id="path182" /></clipPath></defs><sodipodi:namedview
     id="namedview4"
     pagecolor="#ffffff"
     bordercolor="#666666"
     borderopacity="1.0"
     inkscape:pageshadow="2"
     inkscape:pageopacity="0.0"
     inkscape:pagecheckerboard="0"
     showgrid="false"
     inkscape:zoom="1.5552255"
     inkscape:cx="285.81064"
     inkscape:cy="558.76141"
     inkscape:window-width="2575"
     inkscape:window-height="1142"
     inkscape:window-x="693"
     inkscape:window-y="132"
     inkscape:window-maximized="0"
     inkscape:current-layer="g8" /><g
     id="g8"
     inkscape:groupmode="layer"
     inkscape:label="net"
     transform="matrix(1.3333333,0,0,-1.3333333,0,1122.6667)"><g
       id="g10"
       transform="matrix(0.99742017,0,0,1,142.3877,298.0547)"><path
         d="M 0,0 H 347.968"
         style="fill:none;stroke:#262626;stroke-width:0.5;stroke-linecap:square;stroke-linejoin:round;stroke-miterlimit:4;stroke-dasharray:none;stroke-opacity:1"
         id="path12" /></g><g
       id="g14"><g
         id="g16"
         clip-path="url(#clipPath20)"><g
           id="g22"
           transform="translate(489.458,298.0547)"><path
             d="M 0,0 -1.096,1.802 -1.034,1.843 1.903,0.676 C 2.927,0.451 3.95,0.226 4.974,0 3.95,-0.225 2.927,-0.449 1.903,-0.675 l -2.937,-1.167 -0.062,0.031 z"
             style="fill:#262626;fill-opacity:1;fill-rule:nonzero;stroke:none"
             id="path24" /></g><g
           id="g26"
           transform="translate(142.3877,298.0547)"><path
             d="M 0,0 V 3.256"
             style="fill:none;stroke:#262626;stroke-width:0.5;stroke-linecap:square;stroke-linejoin:round;stroke-miterlimit:10;stroke-dasharray:none;stroke-opacity:1"
             id="path28" /></g><g
           id="g30"
           transform="translate(188.0581,298.0547)"><path
             d="M 0,0 V 3.256"
             style="fill:none;stroke:#262626;stroke-width:0.5;stroke-linecap:square;stroke-linejoin:round;stroke-miterlimit:10;stroke-dasharray:none;stroke-opacity:1"
             id="path32" /></g><g
           id="g34"
           transform="translate(233.729,298.0547)"><path
             d="M 0,0 V 3.256"
             style="fill:none;stroke:#262626;stroke-width:0.5;stroke-linecap:square;stroke-linejoin:round;stroke-miterlimit:10;stroke-dasharray:none;stroke-opacity:1"
             id="path36" /></g><g
           id="g38"
           transform="translate(279.3994,298.0547)"><path
             d="M 0,0 V 3.256"
             style="fill:none;stroke:#262626;stroke-width:0.5;stroke-linecap:square;stroke-linejoin:round;stroke-miterlimit:10;stroke-dasharray:none;stroke-opacity:1"
             id="path40" /></g><g
           id="g42"
           transform="translate(325.0703,298.0547)"><path
             d="M 0,0 V 3.256"
             style="fill:none;stroke:#262626;stroke-width:0.5;stroke-linecap:square;stroke-linejoin:round;stroke-miterlimit:10;stroke-dasharray:none;stroke-opacity:1"
             id="path44" /></g><g
           id="g46"
           transform="translate(370.7402,298.0547)"><path
             d="M 0,0 V 3.256"
             style="fill:none;stroke:#262626;stroke-width:0.5;stroke-linecap:square;stroke-linejoin:round;stroke-miterlimit:10;stroke-dasharray:none;stroke-opacity:1"
             id="path48" /></g><g
           id="g50"
           transform="translate(416.4111,298.0547)"><path
             d="M 0,0 V 3.256"
             style="fill:none;stroke:#262626;stroke-width:0.5;stroke-linecap:square;stroke-linejoin:round;stroke-miterlimit:10;stroke-dasharray:none;stroke-opacity:1"
             id="path52" /></g><g
           id="g54"
           transform="translate(462.0811,298.0547)"><path
             d="M 0,0 V 3.256"
             style="fill:none;stroke:#262626;stroke-width:0.5;stroke-linecap:square;stroke-linejoin:round;stroke-miterlimit:10;stroke-dasharray:none;stroke-opacity:1"
             id="path56" /></g><g
           id="g58"
           transform="translate(142.3877,555.3052)"><path
             d="M 0,0 V -3.255"
             style="fill:none;stroke:#262626;stroke-width:0.5;stroke-linecap:square;stroke-linejoin:round;stroke-miterlimit:10;stroke-dasharray:none;stroke-opacity:1"
             id="path60" /></g></g></g><text
       transform="scale(1,-1)"
       style="font-variant:normal;font-weight:normal;font-stretch:normal;font-size:11.0002px;font-family:Arial;-inkscape-font-specification:ArialMT;writing-mode:lr-tb;fill:#262626;fill-opacity:1;fill-rule:nonzero;stroke:none"
       id="text68"
       x="260.5127"
       y="-270.9837"><tspan
         x="260.5127 263.57077 266.01279 275.17596 281.29208 284.35013 288.01321 293.51331 297.17636 300.23444 305.73453 308.17657 314.29269 320.40878 322.85083 328.96695 332.02499 335.08307 341.19916 344.86224 347.92029 353.42038 359.5365"
         y="-270.9837"
         sodipodi:role="line"
         id="tspan66">time (s) single for seg</tspan></text><g
       id="g70"><g
         id="g72"
         clip-path="url(#clipPath76)"><g
           id="g78"
           transform="translate(142.3877,298.0547)"><path
             d="M 0,0 V 275.814"
             style="fill:none;stroke:#262626;stroke-width:0.5;stroke-linecap:square;stroke-linejoin:round;stroke-miterlimit:4;stroke-dasharray:none;stroke-opacity:1"
             id="path80" /></g><g
           id="g82"
           transform="translate(142.3877,572.9712)"><path
             d="M 0,0 -1.801,-1.096 -1.842,-1.034 -0.675,1.903 0,4.974 C 0.225,3.95 0.45,2.927 0.676,1.903 l 1.166,-2.937 -0.03,-0.062 z"
             style="fill:#262626;fill-opacity:1;fill-rule:nonzero;stroke:none"
             id="path84" /></g><g
           id="g86"
           transform="translate(142.3877,298.0547)"><path
             d="M 0,0 H 3.255"
             style="fill:none;stroke:#262626;stroke-width:0.5;stroke-linecap:square;stroke-linejoin:round;stroke-miterlimit:10;stroke-dasharray:none;stroke-opacity:1"
             id="path88" /></g><g
           id="g90"
           transform="translate(142.3877,323.7803)"><path
             d="M 0,0 H 3.255"
             style="fill:none;stroke:#262626;stroke-width:0.5;stroke-linecap:square;stroke-linejoin:round;stroke-miterlimit:10;stroke-dasharray:none;stroke-opacity:1"
             id="path92" /></g><g
           id="g94"
           transform="translate(142.3877,349.5049)"><path
             d="M 0,0 H 3.255"
             style="fill:none;stroke:#262626;stroke-width:0.5;stroke-linecap:square;stroke-linejoin:round;stroke-miterlimit:10;stroke-dasharray:none;stroke-opacity:1"
             id="path96" /></g><g
           id="g98"
           transform="translate(142.3877,375.2305)"><path
             d="M 0,0 H 3.255"
             style="fill:none;stroke:#262626;stroke-width:0.5;stroke-linecap:square;stroke-linejoin:round;stroke-miterlimit:10;stroke-dasharray:none;stroke-opacity:1"
             id="path100" /></g><g
           id="g102"
           transform="translate(142.3877,400.9551)"><path
             d="M 0,0 H 3.255"
             style="fill:none;stroke:#262626;stroke-width:0.5;stroke-linecap:square;stroke-linejoin:round;stroke-miterlimit:10;stroke-dasharray:none;stroke-opacity:1"
             id="path104" /></g><g
           id="g106"
           transform="translate(142.3877,426.6802)"><path
             d="M 0,0 H 3.255"
             style="fill:none;stroke:#262626;stroke-width:0.5;stroke-linecap:square;stroke-linejoin:round;stroke-miterlimit:10;stroke-dasharray:none;stroke-opacity:1"
             id="path108" /></g><g
           id="g110"
           transform="translate(142.3877,452.4053)"><path
             d="M 0,0 H 3.255"
             style="fill:none;stroke:#262626;stroke-width:0.5;stroke-linecap:square;stroke-linejoin:round;stroke-miterlimit:10;stroke-dasharray:none;stroke-opacity:1"
             id="path112" /></g><g
           id="g114"
           transform="translate(142.3877,478.1299)"><path
             d="M 0,0 H 3.255"
             style="fill:none;stroke:#262626;stroke-width:0.5;stroke-linecap:square;stroke-linejoin:round;stroke-miterlimit:10;stroke-dasharray:none;stroke-opacity:1"
             id="path116" /></g><g
           id="g118"
           transform="translate(142.3877,503.855)"><path
             d="M 0,0 H 3.255"
             style="fill:none;stroke:#262626;stroke-width:0.5;stroke-linecap:square;stroke-linejoin:round;stroke-miterlimit:10;stroke-dasharray:none;stroke-opacity:1"
             id="path120" /></g><g
           id="g122"
           transform="translate(142.3877,529.5801)"><path
             d="M 0,0 H 3.255"
             style="fill:none;stroke:#262626;stroke-width:0.5;stroke-linecap:square;stroke-linejoin:round;stroke-miterlimit:10;stroke-dasharray:none;stroke-opacity:1"
             id="path124" /></g><g
           id="g126"
           transform="translate(142.3877,555.3052)"><path
             d="M 0,0 H 3.255"
             style="fill:none;stroke:#262626;stroke-width:0.5;stroke-linecap:square;stroke-linejoin:round;stroke-miterlimit:10;stroke-dasharray:none;stroke-opacity:1"
             id="path128" /></g><g
           id="g130"
           transform="translate(467.8877,298.0547)"><path
             d="M 0,0 H -3.255"
             style="fill:none;stroke:#262626;stroke-width:0.5;stroke-linecap:square;stroke-linejoin:round;stroke-miterlimit:10;stroke-dasharray:none;stroke-opacity:1"
             id="path132" /></g></g></g><text
       transform="matrix(0,1,1,0,0,0)"
       style="font-variant:normal;font-weight:normal;font-stretch:normal;font-size:11.0002px;font-family:Arial;-inkscape-font-specification:ArialMT;writing-mode:lr-tb;fill:#262626;fill-opacity:1;fill-rule:nonzero;stroke:none"
       id="text164"
       x="403.91223"
       y="106.13667"><tspan
         x="403.91223 413.07541 419.19153 425.30765 431.42374 434.48181 441.20291"
         y="106.13667"
         sodipodi:role="line"
         id="tspan162">mean FM</tspan></text><g
       id="g178"><g
         id="g180"
         clip-path="url(#clipPath184)"><g
           id="g186"
           transform="translate(237.1558,493.5903)"><path
             d="M 0,0 -0.004,0.217 -0.016,0.434 -0.034,0.649 -0.061,0.865 -0.095,1.079 -0.136,1.292 -0.185,1.503 -0.241,1.712 -0.304,1.92 -0.375,2.125 -0.453,2.327 -0.538,2.527 -0.629,2.724 -0.728,2.917 -0.833,3.106 -0.944,3.292 -1.062,3.474 -1.187,3.652 -1.317,3.825 -1.454,3.994 -1.596,4.157 -1.744,4.316 -1.897,4.469 -2.056,4.617 -2.22,4.759 -2.388,4.896 -2.561,5.026 -2.739,5.15 -2.921,5.269 -3.106,5.38 -3.296,5.485 -3.489,5.584 -3.686,5.675 -3.886,5.76 -4.088,5.838 -4.293,5.909 -4.5,5.972 -4.71,6.028 -4.921,6.077 -5.134,6.118 -5.348,6.152 -5.563,6.179 -5.779,6.198 -5.996,6.209 -6.213,6.212 -6.43,6.209 -6.646,6.198 -6.862,6.179 -7.078,6.152 -7.292,6.118 -7.504,6.077 -7.716,6.028 -7.925,5.972 -8.133,5.909 -8.338,5.838 -8.54,5.76 -8.74,5.675 -8.936,5.584 -9.129,5.485 -9.319,5.38 -9.505,5.269 -9.687,5.15 -9.864,5.026 -10.038,4.896 -10.206,4.759 -10.37,4.617 -10.528,4.469 -10.682,4.316 -10.83,4.157 -10.972,3.994 -11.108,3.825 -11.239,3.652 -11.363,3.474 -11.481,3.292 -11.593,3.106 -11.698,2.917 -11.796,2.724 -11.888,2.527 -11.973,2.327 -12.051,2.125 -12.121,1.92 -12.185,1.712 -12.241,1.503 -12.29,1.292 -12.331,1.079 -12.365,0.865 -12.391,0.649 -12.41,0.434 -12.421,0.217 -12.425,0 l 0.004,-0.217 0.011,-0.216 0.019,-0.216 0.026,-0.216 0.034,-0.214 0.041,-0.213 0.049,-0.211 0.056,-0.209 0.064,-0.207 0.07,-0.206 0.078,-0.202 0.085,-0.2 0.092,-0.196 0.098,-0.194 0.105,-0.189 0.112,-0.186 0.118,-0.182 0.124,-0.177 0.131,-0.174 0.136,-0.168 0.142,-0.164 0.148,-0.158 0.154,-0.154 0.158,-0.148 0.164,-0.142 0.168,-0.137 0.174,-0.13 0.177,-0.124 0.182,-0.119 0.186,-0.111 0.19,-0.105 0.193,-0.098 0.196,-0.092 0.2,-0.085 0.202,-0.078 0.205,-0.071 0.208,-0.063 0.209,-0.056 0.212,-0.049 0.212,-0.041 0.214,-0.034 0.216,-0.027 0.216,-0.018 0.216,-0.011 0.217,-0.004 0.217,0.004 0.217,0.011 0.216,0.018 0.215,0.027 0.214,0.034 0.213,0.041 0.211,0.049 0.21,0.056 0.207,0.063 0.205,0.071 0.202,0.078 0.2,0.085 0.197,0.092 0.193,0.098 0.19,0.105 0.185,0.111 0.182,0.119 0.178,0.124 0.173,0.13 0.168,0.137 0.164,0.142 0.159,0.148 0.153,0.154 0.148,0.158 0.142,0.164 0.137,0.168 0.13,0.174 0.125,0.177 0.118,0.182 0.111,0.186 0.105,0.189 0.099,0.194 0.091,0.196 0.085,0.2 0.078,0.202 0.071,0.206 0.063,0.207 0.056,0.209 0.049,0.211 0.041,0.213 0.034,0.214 0.027,0.216 0.018,0.216 0.012,0.216 z"
             style="fill:#844d00;fill-opacity:1;fill-rule:nonzero;stroke:none"
             id="path188" /></g><g
           id="g190"
           transform="translate(196.1982,331.4395)"><path
             d="m 0,0 -0.001,0.105 -0.006,0.105 -0.01,0.105 -0.012,0.105 -0.017,0.103 -0.02,0.104 -0.023,0.102 -0.028,0.102 -0.03,0.101 -0.035,0.099 -0.038,0.099 -0.041,0.097 -0.044,0.095 -0.048,0.094 -0.051,0.092 -0.054,0.09 -0.058,0.089 -0.06,0.085 -0.063,0.084 -0.067,0.082 -0.068,0.08 -0.072,0.077 -0.075,0.074 -0.077,0.072 -0.079,0.07 L -1.159,2.376 -1.243,2.439 -1.329,2.5 -1.417,2.558 -1.508,2.611 -1.6,2.662 -1.693,2.71 -1.789,2.755 -1.886,2.796 -1.984,2.834 -2.084,2.868 -2.185,2.898 -2.286,2.926 -2.389,2.95 -2.492,2.97 -2.596,2.986 -2.701,2.999 -2.805,3.008 -2.911,3.014 -3.016,3.016 -3.121,3.014 -3.226,3.008 -3.331,2.999 -3.436,2.986 -3.54,2.97 -3.643,2.95 -3.746,2.926 -3.847,2.898 -3.948,2.868 -4.047,2.834 -4.146,2.796 -4.242,2.755 -4.338,2.71 -4.432,2.662 -4.523,2.611 -4.614,2.558 -4.702,2.5 -4.789,2.439 -4.873,2.376 -4.954,2.311 -5.034,2.241 -5.111,2.169 -5.185,2.095 -5.257,2.018 -5.326,1.938 -5.392,1.856 -5.456,1.772 -5.516,1.687 -5.573,1.598 -5.627,1.508 -5.679,1.416 -5.726,1.322 -5.771,1.227 -5.812,1.13 -5.85,1.031 -5.884,0.932 -5.915,0.831 -5.942,0.729 -5.966,0.627 -5.986,0.523 -6.002,0.42 -6.015,0.315 -6.024,0.21 -6.03,0.105 -6.031,0 l 10e-4,-0.105 0.006,-0.106 0.009,-0.104 0.013,-0.105 0.016,-0.104 0.02,-0.103 0.024,-0.102 0.027,-0.103 0.031,-0.1 0.034,-0.099 0.038,-0.099 0.041,-0.097 0.045,-0.095 0.047,-0.094 0.052,-0.092 0.054,-0.091 0.057,-0.088 0.06,-0.085 0.064,-0.084 0.066,-0.082 0.069,-0.081 0.072,-0.076 0.074,-0.075 0.077,-0.071 0.08,-0.07 0.081,-0.066 0.084,-0.063 0.087,-0.06 0.088,-0.058 0.091,-0.054 0.091,-0.051 0.094,-0.048 0.096,-0.044 0.096,-0.041 0.099,-0.038 0.099,-0.034 0.101,-0.031 0.101,-0.028 0.103,-0.023 0.103,-0.021 0.104,-0.015 0.105,-0.014 0.105,-0.009 0.105,-0.006 0.105,-10e-4 0.105,10e-4 0.106,0.006 0.104,0.009 0.105,0.014 0.104,0.015 0.103,0.021 0.103,0.023 0.101,0.028 0.101,0.031 0.1,0.034 0.098,0.038 0.097,0.041 0.096,0.044 0.093,0.048 0.092,0.051 0.091,0.054 0.088,0.058 0.086,0.06 0.084,0.063 0.082,0.066 0.079,0.07 0.077,0.071 0.075,0.075 0.072,0.076 0.068,0.081 0.067,0.082 0.063,0.084 0.06,0.085 0.058,0.088 0.054,0.091 0.051,0.092 0.048,0.094 0.044,0.095 0.041,0.097 0.038,0.099 0.035,0.099 0.03,0.1 0.028,0.103 0.023,0.102 0.02,0.103 0.017,0.104 0.012,0.105 0.01,0.104 0.006,0.106 z"
             style="fill:#844d00;fill-opacity:1;fill-rule:nonzero;stroke:none"
             id="path192" /></g><g
           id="g194"
           transform="translate(205.1187,452.019)"><path
             d="m 0,0 -0.003,0.196 -0.011,0.195 -0.017,0.195 -0.024,0.195 -0.03,0.193 -0.038,0.193 -0.044,0.19 -0.05,0.189 -0.057,0.187 -0.064,0.185 -0.071,0.183 -0.076,0.18 -0.083,0.178 -0.089,0.174 -0.094,0.172 -0.102,0.168 -0.106,0.164 -0.112,0.16 -0.118,0.157 -0.123,0.151 -0.129,0.148 -0.134,0.143 -0.138,0.139 -0.143,0.133 -0.148,0.129 -0.152,0.123 -0.157,0.118 -0.16,0.112 -0.164,0.107 -0.168,0.101 -0.171,0.095 -0.174,0.089 -0.178,0.083 -0.18,0.076 -0.183,0.07 -0.185,0.064 -0.187,0.057 -0.189,0.051 -0.191,0.044 -0.193,0.037 -0.193,0.031 -0.194,0.024 -0.195,0.017 -0.196,0.01 L -5.61,5.609 -5.805,5.606 -6.001,5.596 -6.196,5.579 -6.39,5.555 -6.583,5.524 -6.776,5.487 -6.967,5.443 -7.156,5.392 -7.343,5.335 -7.528,5.271 -7.711,5.201 -7.891,5.125 -8.069,5.042 -8.243,4.953 -8.415,4.858 -8.583,4.757 -8.746,4.65 -8.907,4.538 -9.063,4.42 -9.215,4.297 -9.363,4.168 -9.506,4.035 -9.645,3.896 -9.778,3.753 -9.907,3.605 -10.03,3.454 l -0.118,-0.157 -0.112,-0.16 -0.107,-0.164 -0.101,-0.168 -0.095,-0.172 -0.088,-0.174 -0.083,-0.178 -0.077,-0.18 -0.07,-0.183 -0.063,-0.185 -0.058,-0.187 -0.05,-0.189 -0.045,-0.19 -0.037,-0.193 -0.031,-0.193 -0.023,-0.195 -0.018,-0.195 -0.01,-0.195 -0.003,-0.196 0.003,-0.196 0.01,-0.196 0.018,-0.194 0.023,-0.195 0.031,-0.193 0.037,-0.193 0.045,-0.19 0.05,-0.189 0.058,-0.187 0.063,-0.185 0.07,-0.184 0.077,-0.18 0.083,-0.177 0.088,-0.174 0.095,-0.172 0.101,-0.168 0.107,-0.164 0.112,-0.16 0.118,-0.157 0.123,-0.152 0.129,-0.147 0.133,-0.144 0.139,-0.138 0.143,-0.133 0.148,-0.129 0.152,-0.123 0.156,-0.118 0.161,-0.112 0.163,-0.107 0.168,-0.101 0.172,-0.095 0.174,-0.089 0.178,-0.083 0.18,-0.076 0.183,-0.07 0.185,-0.064 0.187,-0.057 0.189,-0.051 0.191,-0.044 0.193,-0.037 0.193,-0.031 0.194,-0.024 0.195,-0.017 0.196,-0.01 0.195,-0.003 0.196,0.003 0.196,0.01 0.195,0.017 0.194,0.024 0.193,0.031 0.193,0.037 0.191,0.044 0.189,0.051 0.187,0.057 0.185,0.064 0.183,0.07 0.18,0.076 0.178,0.083 0.174,0.089 0.171,0.095 0.168,0.101 0.164,0.107 0.16,0.112 0.157,0.118 0.152,0.123 0.148,0.129 0.143,0.133 0.138,0.138 0.134,0.144 0.129,0.147 0.123,0.152 0.118,0.157 0.112,0.16 0.106,0.164 0.102,0.168 0.094,0.172 0.089,0.174 0.083,0.177 0.076,0.18 0.071,0.184 0.064,0.185 0.057,0.187 0.05,0.189 0.044,0.19 0.038,0.193 0.03,0.193 0.024,0.195 0.017,0.194 0.011,0.196 z"
             style="fill:#844d00;fill-opacity:1;fill-rule:nonzero;stroke:none"
             id="path196" /></g><g
           id="g198"
           transform="translate(318.4668,373.5205)"><path
             d="M 0,0 -0.005,0.216 -0.016,0.432 -0.034,0.646 -0.061,0.86 -0.095,1.073 -0.136,1.285 -0.185,1.496 -0.24,1.704 -0.304,1.91 -0.373,2.114 -0.451,2.316 -0.535,2.515 -0.626,2.71 -0.725,2.902 -0.829,3.091 -0.94,3.276 -1.058,3.457 -1.182,3.634 -1.312,3.807 -1.447,3.975 -1.589,4.137 -1.735,4.295 -1.888,4.447 -2.046,4.595 -2.209,4.736 -2.377,4.872 -2.549,5.002 -2.726,5.126 -2.907,5.243 -3.092,5.354 -3.28,5.459 -3.473,5.557 -3.668,5.648 -3.867,5.732 -4.068,5.81 -4.272,5.88 -4.479,5.943 -4.687,5.999 -4.897,6.048 -5.109,6.089 -5.322,6.122 -5.537,6.148 -5.752,6.167 -5.967,6.179 -6.183,6.183 -6.399,6.179 -6.614,6.167 -6.829,6.148 -7.044,6.122 -7.257,6.089 -7.468,6.048 -7.679,5.999 -7.887,5.943 -8.094,5.88 -8.297,5.81 -8.499,5.732 -8.697,5.648 -8.894,5.557 -9.085,5.459 -9.274,5.354 -9.459,5.243 -9.64,5.126 -9.816,5.002 -9.989,4.872 -10.157,4.736 -10.319,4.595 -10.478,4.447 -10.63,4.295 -10.777,4.137 -10.919,3.975 -11.055,3.807 -11.185,3.634 -11.309,3.457 -11.426,3.276 -11.537,3.091 -11.642,2.902 -11.739,2.71 -11.831,2.515 -11.915,2.316 -11.992,2.114 -12.063,1.91 -12.126,1.704 -12.182,1.496 -12.23,1.285 -12.271,1.073 -12.305,0.86 -12.331,0.646 -12.351,0.432 -12.361,0.216 -12.365,0 l 0.004,-0.216 0.01,-0.215 0.02,-0.215 0.026,-0.214 0.034,-0.213 0.041,-0.212 0.048,-0.21 0.056,-0.209 0.063,-0.206 0.071,-0.204 0.077,-0.201 0.084,-0.2 0.092,-0.195 0.097,-0.192 0.105,-0.189 0.111,-0.185 0.117,-0.181 0.124,-0.177 0.13,-0.172 0.136,-0.168 0.142,-0.163 0.147,-0.158 0.152,-0.152 0.159,-0.148 0.162,-0.141 0.168,-0.136 0.173,-0.13 0.176,-0.123 0.181,-0.118 0.185,-0.111 0.189,-0.105 0.191,-0.098 0.197,-0.09 0.198,-0.085 0.202,-0.078 0.203,-0.07 0.207,-0.062 0.208,-0.057 0.211,-0.048 0.211,-0.042 0.213,-0.033 0.215,-0.026 0.215,-0.019 0.215,-0.012 0.216,-0.004 0.216,0.004 0.215,0.012 0.215,0.019 0.215,0.026 0.213,0.033 0.212,0.042 0.21,0.048 0.208,0.057 0.207,0.062 0.204,0.07 0.201,0.078 0.199,0.085 0.195,0.09 0.193,0.098 0.188,0.105 0.185,0.111 0.181,0.118 0.177,0.123 0.172,0.13 0.168,0.136 0.163,0.141 0.158,0.148 0.153,0.152 0.146,0.158 0.142,0.163 0.135,0.168 0.13,0.172 0.124,0.177 0.118,0.181 0.111,0.185 0.104,0.189 0.099,0.192 0.091,0.195 0.084,0.2 0.078,0.201 0.069,0.204 0.064,0.206 0.055,0.209 0.049,0.21 0.041,0.212 0.034,0.213 0.027,0.214 0.018,0.215 0.011,0.215 z"
             style="fill:#844d00;fill-opacity:1;fill-rule:nonzero;stroke:none"
             id="path200" /></g><g
           id="g202"
           transform="translate(464.0215,503.9004)"><path
             d="M 0,0 -0.016,0.897 -0.062,1.794 -0.141,2.689 -0.25,3.58 -0.391,4.467 -0.562,5.348 -0.764,6.223 -0.996,7.09 l -0.263,0.859 -0.292,0.849 -0.322,0.839 -0.351,0.826 -0.38,0.814 -0.407,0.8 -0.435,0.785 -0.462,0.77 -0.489,0.753 -0.515,0.736 -0.541,0.717 -0.566,0.698 -0.588,0.677 -0.613,0.657 -0.634,0.635 -0.657,0.612 -0.677,0.589 -0.699,0.565 -0.717,0.541 -0.736,0.515 -0.753,0.489 -0.769,0.462 -0.785,0.436 -0.8,0.407 -0.815,0.38 -0.826,0.351 -0.838,0.321 -0.849,0.293 -0.859,0.263 -0.867,0.232 -0.875,0.202 -0.882,0.171 -0.887,0.141 -0.891,0.109 -0.895,0.078 -0.896,0.047 -0.898,0.016 -0.897,-0.016 -0.898,-0.047 -0.894,-0.078 -0.891,-0.109 -0.886,-0.141 -0.882,-0.171 -0.875,-0.202 -0.867,-0.232 -0.859,-0.263 -0.849,-0.293 -0.838,-0.321 -0.827,-0.351 -0.814,-0.38 -0.8,-0.407 -0.785,-0.436 -0.769,-0.462 -0.754,-0.489 -0.736,-0.515 -0.717,-0.541 -0.697,-0.565 -0.678,-0.589 -0.657,-0.612 -0.634,-0.635 -0.613,-0.657 -0.59,-0.677 -0.564,-0.698 -0.54,-0.717 -0.516,-0.736 -0.489,-0.753 -0.462,-0.77 -0.435,-0.785 -0.409,-0.8 -0.379,-0.814 -0.35,-0.826 L -49.898,8.798 -50.19,7.949 -50.453,7.09 -50.686,6.223 -50.888,5.348 -51.059,4.467 -51.199,3.58 -51.309,2.689 -51.387,1.794 -51.434,0.897 -51.449,0 l 0.015,-0.898 0.047,-0.896 0.078,-0.895 0.11,-0.892 0.14,-0.886 0.171,-0.882 0.202,-0.875 0.233,-0.867 0.263,-0.859 0.292,-0.849 0.322,-0.838 0.35,-0.826 0.379,-0.814 0.409,-0.8 0.435,-0.786 0.462,-0.769 0.489,-0.753 0.516,-0.736 0.54,-0.717 0.564,-0.698 0.59,-0.677 0.613,-0.657 0.634,-0.635 0.657,-0.613 0.678,-0.589 0.697,-0.564 0.717,-0.541 0.736,-0.515 0.754,-0.489 0.769,-0.463 0.785,-0.435 0.8,-0.408 0.814,-0.379 0.827,-0.351 0.838,-0.322 0.849,-0.292 0.859,-0.263 0.867,-0.232 0.875,-0.202 0.882,-0.171 0.886,-0.141 0.891,-0.109 0.894,-0.079 0.898,-0.046 0.897,-0.016 0.898,0.016 0.896,0.046 0.895,0.079 0.891,0.109 0.887,0.141 0.882,0.171 0.875,0.202 0.867,0.232 0.859,0.263 0.849,0.292 0.838,0.322 0.826,0.351 0.815,0.379 0.8,0.408 0.785,0.435 0.769,0.463 0.753,0.489 0.736,0.515 0.717,0.541 0.699,0.564 0.677,0.589 0.657,0.613 0.634,0.635 0.613,0.657 0.588,0.677 0.566,0.698 0.541,0.717 0.515,0.736 0.489,0.753 0.462,0.769 0.435,0.786 0.407,0.8 0.38,0.814 0.351,0.826 0.322,0.838 0.292,0.849 0.263,0.859 0.232,0.867 0.202,0.875 0.171,0.882 0.141,0.886 0.109,0.892 0.079,0.895 0.046,0.896 z"
             style="fill:#844d00;fill-opacity:1;fill-rule:nonzero;stroke:none"
             id="path204" /></g></g></g><text
       transform="scale(0.50718766,-1.9716568)"
       style="font-variant:normal;font-weight:normal;font-stretch:normal;font-size:5.58002px;font-family:'Myriad Pro';-inkscape-font-specification:MyriadPro-Regular;writing-mode:lr-tb;fill:#000000;fill-opacity:1;fill-rule:nonzero;stroke:none;stroke-width:0.465002"
       id="text208"
       x="211.33932"
       y="-133.89018"><tspan
         sodipodi:role="line"
         id="tspan206"
         x="211.33932"
         y="-133.89018"
         style="stroke-width:0.465002">\textit{*images require scaling}</tspan></text><text
       transform="scale(0.50718766,-1.9716568)"
       style="font-variant:normal;font-weight:normal;font-stretch:normal;font-size:5.58002px;font-family:'Myriad Pro';-inkscape-font-specification:MyriadPro-Regular;writing-mode:lr-tb;fill:#000000;fill-opacity:1;fill-rule:nonzero;stroke:none;stroke-width:0.465002"
       id="text208-9"
       x="215.14261"
       y="-128.33313"><tspan
         sodipodi:role="line"
         id="tspan206-9"
         x="215.14261"
         y="-128.33313"
         style="stroke-width:0.465002">\textit{size $\propto$ layers}</tspan></text><text
       xml:space="preserve"
       style="font-size:12px;line-height:1.25;font-family:sans-serif;stroke-width:0.75"
       x="143.22682"
       y="-284.52463"
       id="text7837"
       transform="scale(1,-1)"><tspan
         sodipodi:role="line"
         id="tspan7835"
         style="stroke-width:0.75"
         x="143.22682"
         y="-284.52463">0</tspan></text><text
       xml:space="preserve"
       style="font-size:12px;line-height:1.25;font-family:sans-serif;stroke-width:0.75"
       x="181.97011"
       y="-284.51877"
       id="text9677"
       transform="scale(1,-1)"><tspan
         sodipodi:role="line"
         id="tspan9675"
         style="stroke-width:0.75"
         x="181.97011"
         y="-284.51877">0.2</tspan></text><text
       xml:space="preserve"
       style="font-size:12px;line-height:1.25;font-family:sans-serif;stroke-width:0.75"
       x="226.61671"
       y="-284.52463"
       id="text10527"
       transform="scale(1,-1)"><tspan
         sodipodi:role="line"
         id="tspan10525"
         style="stroke-width:0.75"
         x="226.61671"
         y="-284.52463">0.4</tspan></text><text
       xml:space="preserve"
       style="font-size:12px;line-height:1.25;font-family:sans-serif;stroke-width:0.75"
       x="271.3981"
       y="-284.52463"
       id="text11611"
       transform="scale(1,-1)"><tspan
         sodipodi:role="line"
         id="tspan11609"
         style="stroke-width:0.75"
         x="271.3981"
         y="-284.52463">0.6</tspan></text><text
       xml:space="preserve"
       style="font-size:12px;line-height:1.25;font-family:sans-serif;stroke-width:0.75"
       x="366.78799"
       y="-284.67111"
       id="text12761"
       transform="scale(1,-1)"><tspan
         sodipodi:role="line"
         id="tspan12759"
         style="stroke-width:0.75"
         x="366.78799"
         y="-284.67111">1</tspan></text><text
       xml:space="preserve"
       style="font-size:12px;line-height:1.25;font-family:sans-serif;stroke-width:0.75"
       x="316.17654"
       y="-284.50119"
       id="text14613"
       transform="scale(1,-1)"><tspan
         sodipodi:role="line"
         id="tspan14611"
         style="stroke-width:0.75"
         x="316.17654"
         y="-284.50119">0.8</tspan></text><text
       xml:space="preserve"
       style="font-size:12px;line-height:1.25;font-family:sans-serif;stroke-width:0.75"
       x="405.28812"
       y="-284.51877"
       id="text15475"
       transform="scale(1,-1)"><tspan
         sodipodi:role="line"
         id="tspan15473"
         style="stroke-width:0.75"
         x="405.28812"
         y="-284.51877">1.2</tspan></text><text
       xml:space="preserve"
       style="font-size:12px;line-height:1.25;font-family:sans-serif;stroke-width:0.75"
       x="449.93472"
       y="-284.67111"
       id="text15941"
       transform="scale(1,-1)"><tspan
         sodipodi:role="line"
         id="tspan15939"
         style="stroke-width:0.75"
         x="449.93472"
         y="-284.67111">1.4</tspan></text><text
       xml:space="preserve"
       style="font-size:12px;line-height:1.25;font-family:sans-serif;stroke-width:0.75"
       x="123.72108"
       y="-298.02756"
       id="text17765"
       transform="scale(1,-1)"><tspan
         sodipodi:role="line"
         id="tspan17763"
         style="stroke-width:0.75"
         x="123.72108"
         y="-298.02756">0.6</tspan></text><text
       xml:space="preserve"
       style="font-size:12px;line-height:1.25;font-family:sans-serif;stroke-width:0.75"
       x="116.71913"
       y="-323.05078"
       id="text19347"
       transform="scale(1,-1)"><tspan
         sodipodi:role="line"
         id="tspan19345"
         style="stroke-width:0.75"
         x="116.71913"
         y="-323.05078">0.61</tspan></text><text
       xml:space="preserve"
       style="font-size:12px;line-height:1.25;font-family:sans-serif;stroke-width:0.75"
       x="116.22108"
       y="-348.07404"
       id="text20187"
       transform="scale(1,-1)"><tspan
         sodipodi:role="line"
         id="tspan20185"
         style="stroke-width:0.75"
         x="116.22108"
         y="-348.07404">0.62</tspan></text><text
       xml:space="preserve"
       style="font-size:12px;line-height:1.25;font-family:sans-serif;stroke-width:0.75"
       x="116.34413"
       y="-373.10312"
       id="text21565"
       transform="scale(1,-1)"><tspan
         sodipodi:role="line"
         id="tspan21563"
         style="stroke-width:0.75"
         x="116.34413"
         y="-373.10312">0.63</tspan></text><text
       xml:space="preserve"
       style="font-size:12px;line-height:1.25;font-family:sans-serif;stroke-width:0.75"
       x="116.02187"
       y="-398.13223"
       id="text22265"
       transform="scale(1,-1)"><tspan
         sodipodi:role="line"
         id="tspan22263"
         style="stroke-width:0.75"
         x="116.02187"
         y="-398.13223">0.64</tspan></text><text
       xml:space="preserve"
       style="font-size:12px;line-height:1.25;font-family:sans-serif;stroke-width:0.75"
       x="116.2914"
       y="-423.15546"
       id="text25769"
       transform="scale(1,-1)"><tspan
         sodipodi:role="line"
         id="tspan25767"
         style="stroke-width:0.75"
         x="116.2914"
         y="-423.15546">0.65</tspan></text><text
       xml:space="preserve"
       style="font-size:12px;line-height:1.25;font-family:sans-serif;stroke-width:0.75"
       x="116.09218"
       y="-448.17871"
       id="text27339"
       transform="scale(1,-1)"><tspan
         sodipodi:role="line"
         id="tspan27337"
         style="stroke-width:0.75"
         x="116.09218"
         y="-448.17871">0.66</tspan></text><text
       xml:space="preserve"
       style="font-size:12px;line-height:1.25;font-family:sans-serif;stroke-width:0.75"
       x="116.19765"
       y="-473.20197"
       id="text28147"
       transform="scale(1,-1)"><tspan
         sodipodi:role="line"
         id="tspan28145"
         style="stroke-width:0.75"
         x="116.19765"
         y="-473.20197">0.67</tspan></text><text
       xml:space="preserve"
       style="font-size:12px;line-height:1.25;font-family:sans-serif;stroke-width:0.75"
       x="116.15663"
       y="-498.2428"
       id="text28789"
       transform="scale(1,-1)"><tspan
         sodipodi:role="line"
         id="tspan28787"
         style="stroke-width:0.75"
         x="116.15663"
         y="-498.2428">0.68</tspan></text><text
       xml:space="preserve"
       style="font-size:12px;line-height:1.25;font-family:sans-serif;stroke-width:0.75"
       x="116.23281"
       y="-523.28949"
       id="text29233"
       transform="scale(1,-1)"><tspan
         sodipodi:role="line"
         id="tspan29231"
         style="stroke-width:0.75"
         x="116.23281"
         y="-523.28949">0.69</tspan></text><text
       xml:space="preserve"
       style="font-size:12px;line-height:1.25;font-family:sans-serif;stroke-width:0.75"
       x="123.82655"
       y="-548.31274"
       id="text29513"
       transform="scale(1,-1)"><tspan
         sodipodi:role="line"
         id="tspan29511"
         style="stroke-width:0.75"
         x="123.82655"
         y="-548.31274">0.7</tspan></text><text
       xml:space="preserve"
       style="font-size:12px;line-height:1.25;font-family:sans-serif;stroke-width:0.75"
       x="457.65067"
       y="-529.50519"
       id="text32965"
       transform="scale(1,-1)"><tspan
         sodipodi:role="line"
         id="tspan32963"
         style="stroke-width:0.75"
         x="457.65067"
         y="-529.50519">InceptionResNetv2*</tspan></text><text
       xml:space="preserve"
       style="font-size:12px;line-height:1.25;font-family:sans-serif;stroke-width:0.75"
       x="317.79959"
       y="-380.49146"
       id="text35243"
       transform="scale(1,-1)"><tspan
         sodipodi:role="line"
         id="tspan35241"
         style="stroke-width:0.75"
         x="317.79959"
         y="-380.49146">Xception*</tspan></text><text
       xml:space="preserve"
       style="font-size:12px;line-height:1.25;font-family:sans-serif;stroke-width:0.75"
       x="197.72052"
       y="-332.74915"
       id="text39167"
       transform="scale(1,-1)"><tspan
         sodipodi:role="line"
         id="tspan39165"
         style="stroke-width:0.75"
         x="197.72052"
         y="-332.74915">ResNet18</tspan></text><text
       xml:space="preserve"
       style="font-size:12px;line-height:1.25;font-family:sans-serif;stroke-width:0.75"
       x="236.78238"
       y="-502.98172"
       id="text41819"
       transform="scale(1,-1)"><tspan
         sodipodi:role="line"
         id="tspan41817"
         style="stroke-width:0.75"
         x="236.78238"
         y="-502.98172">ResRet50</tspan></text><text
       xml:space="preserve"
       style="font-size:12px;line-height:1.25;font-family:sans-serif;stroke-width:0.75"
       x="204.47195"
       y="-456.68616"
       id="text43065"
       transform="scale(1,-1)"><tspan
         sodipodi:role="line"
         id="tspan43063"
         style="stroke-width:0.75"
         x="204.47195"
         y="-456.68616">MobileNetv2</tspan></text></g></svg>
