<?xml version="1.0" encoding="utf-8"?>
<!-- Generator: Adobe Illustrator 25.0.0, SVG Export Plug-In . SVG Version: 6.00 Build 0)  -->
<svg version="1.1" id="Livello_1" xmlns="http://www.w3.org/2000/svg" xmlns:xlink="http://www.w3.org/1999/xlink" x="0px" y="0px"
	 viewBox="0 0 498.2 724.9" style="enable-background:new 0 0 498.2 724.9;" xml:space="preserve">
<style type="text/css">
	.st0{stroke:#000000;stroke-miterlimit:10;}
	.st1{fill:none;stroke:#F5F51B;stroke-width:2;stroke-miterlimit:10;stroke-dasharray:2;}
	.st2{fill:#FFFFFF;stroke:#000000;stroke-miterlimit:10;}
	.st3{fill:#B8060A;}
	.st4{fill:none;stroke:#B8060A;stroke-width:0.5;stroke-miterlimit:10;stroke-dasharray:1.9734,1.9734;}
	.st5{fill:none;stroke:#9DB81A;stroke-width:0.5;stroke-miterlimit:10;stroke-dasharray:2.0254,2.0254;}
	.st6{fill:#288EBF;stroke:#288EBF;stroke-miterlimit:10;}
	.st7{fill:#F45FAD;stroke:#F36599;stroke-miterlimit:10;}
	.st8{fill:#118E36;stroke:#118E36;stroke-miterlimit:10;}
	.st9{fill:none;stroke:#F5F51B;stroke-width:2;stroke-miterlimit:10;}
	.st10{fill:#F5F51B;}
	.st11{font-family:'MyriadPro-Regular';}
	.st12{font-size:12px;}
	.st13{fill:#FFFFFF;}
	.st14{fill:none;stroke:#F5F51B;stroke-miterlimit:10;}
	.st15{font-size:11.8438px;}
	.st16{fill:none;stroke:#000000;stroke-width:0.75;stroke-miterlimit:10;}
</style>
<g>
	<rect x="2.6" class="st0" width="210.3" height="215.4"/>
	<image style="overflow:visible;" width="234" height="234" xlink:href="E07ABA1E.jpg"  transform="matrix(0.9207 0 0 0.9207 0 0)">
	</image>
	
		<ellipse transform="matrix(0.3992 -0.9168 0.9168 0.3992 -54.6593 124.6872)" class="st1" cx="67.8" cy="104.1" rx="31.9" ry="46.9"/>
	<rect x="287.9" class="st0" width="210.3" height="215.4"/>
	
		<ellipse transform="matrix(0.3992 -0.9168 0.9168 0.3992 116.342 387.862)" class="st2" cx="354.1" cy="105.2" rx="26.7" ry="45.5"/>
</g>
<g>
	<rect x="156" y="300.9" class="st0" width="195.8" height="200.6"/>
	
		<ellipse transform="matrix(0.3992 -0.9168 0.9168 0.3992 -234.8381 439.1628)" class="st2" cx="217.7" cy="398.8" rx="24.8" ry="42.4"/>
	<circle class="st3" cx="217.7" cy="398.8" r="31.5"/>
</g>
<g>
	<rect x="1.4" y="586.9" class="st0" width="134.2" height="138"/>
	<rect x="184.2" y="588.7" class="st0" width="132.9" height="136.2"/>
	<g>
		<circle class="st4" cx="226.5" cy="655" r="21.4"/>
	</g>
	<g>
		<circle class="st4" cx="44.5" cy="653.4" r="21.4"/>
	</g>
	<rect x="365.7" y="588.7" class="st0" width="132.9" height="136.2"/>
	<g>
		
			<ellipse transform="matrix(0.3992 -0.9168 0.9168 0.3992 -355.8477 766.9152)" class="st5" cx="407.3" cy="655" rx="16.9" ry="28.8"/>
	</g>
	<g>
		
			<ellipse transform="matrix(0.3992 -0.9168 0.9168 0.3992 -572.2996 433.3327)" class="st5" cx="44.5" cy="653.4" rx="16.9" ry="28.8"/>
	</g>
	<path class="st6" d="M51.2,637.9c-5.5-2.4-11-3.6-16-3.8c-7.2,3.4-12.1,10.8-12.1,19.2c0,2.2,0.3,4.3,1,6.3
		c3.5,3.5,8.2,6.7,13.7,9.1c5.5,2.4,11,3.6,16,3.8c7.2-3.4,12.1-10.8,12.1-19.2c0-2.2-0.3-4.3-1-6.3
		C61.4,643.5,56.8,640.3,51.2,637.9z"/>
	<g>
		<path class="st7" d="M246.4,648.9c0.6,2,1,4.1,1,6.3c0,8.5-5,15.8-12.1,19.2c8.2,0.3,14.8-2.4,17.2-7.7
			C254.7,661.4,252.2,654.7,246.4,648.9z"/>
		<path class="st7" d="M204.7,655.2c0-8.5,5-15.8,12.1-19.2c-8.2-0.3-14.8,2.4-17.2,7.7c-2.3,5.3,0.2,12,6,17.8
			C205,659.5,204.7,657.4,204.7,655.2z"/>
	</g>
	<g>
		<path class="st8" d="M400.8,670.6c-5.5-2.4-10.2-5.6-13.7-9.1c2.7,8.7,10.8,15,20.4,15c3.3,0,6.4-0.8,9.2-2.1
			C411.8,674.3,406.3,673,400.8,670.6z"/>
		<path class="st8" d="M414.3,639.7c5.5,2.4,10.2,5.6,13.7,9.1c-2.7-8.7-10.8-15-20.4-15c-3.3,0-6.4,0.8-9.2,2.1
			C403.3,636.1,408.8,637.3,414.3,639.7z"/>
	</g>
</g>
<g>
	<g>
		<path class="st9" d="M70.4,56.7c2.7-7.4,8.2-18.6,18.2-28.4"/>
		<g>
			<path class="st10" d="M71.1,55L68.2,52L68,52.1l0.7,6.3c-0.1,2.1-0.2,4.2-0.3,6.3c1-1.9,1.9-3.7,2.9-5.6l3.8-5.1l0-0.1L71.1,55z"
				/>
		</g>
	</g>
</g>
<g>
	<g>
		<path class="st9" d="M367.4,66.4c2.7-7.4,8.2-18.6,18.2-28.4"/>
		<g>
			<path class="st10" d="M368,64.7l-2.9-3.1l-0.1,0.1l0.7,6.3c-0.1,2.1-0.2,4.2-0.3,6.3c1-1.9,1.9-3.7,2.9-5.6l3.8-5.1l0-0.1
				L368,64.7z"/>
		</g>
	</g>
</g>
<rect x="-10.8" y="278.2" style="fill:none;" width="4" height="0"/>
<text transform="matrix(1 0 0 1 96.1428 28.3525)" class="st11 st12">cell</text>
<text transform="matrix(1 0 0 1 393.0574 30.8268)" class="st13 st11 st12">cell mask</text>
<g>
	<g>
		<path class="st9" d="M232.5,356.5c2.7-7.4,8.2-18.6,18.2-28.4"/>
		<g>
			<path class="st10" d="M233.1,354.8l-2.9-3.1l-0.1,0.1l0.7,6.3c-0.1,2.1-0.2,4.2-0.3,6.3c1-1.9,1.9-3.7,2.9-5.6l3.8-5.1l0-0.1
				L233.1,354.8z"/>
		</g>
	</g>
</g>
<text transform="matrix(1 0 0 1 259.8029 329.8874)" class="st13 st11 st12">result</text>
<g>
	<g>
		<g>
			<path class="st14" d="M57,685.4c1.6,4.3,5.3,11.3,12.2,17.3"/>
			<g>
				<path class="st10" d="M57.3,686.3l2,0.6l0-0.1l-1.9-2.5c-0.5-0.9-1-1.8-1.5-2.8c0.1,1,0.1,2.1,0.2,3.1l-0.3,3.1l0,0.1
					L57.3,686.3z"/>
			</g>
		</g>
	</g>
	<text transform="matrix(1 0 0 1 74.972 709.2847)" class="st13 st11 st15">TP</text>
</g>
<g>
	<g>
		<g>
			<path class="st14" d="M244.8,685.4c1.6,4.3,5.3,11.3,12.2,17.3"/>
			<g>
				<path class="st10" d="M245.1,686.3l2,0.6l0-0.1l-1.9-2.5c-0.5-0.9-1-1.8-1.5-2.8c0.1,1,0.1,2.1,0.2,3.1l-0.3,3.1l0,0.1
					L245.1,686.3z"/>
			</g>
		</g>
	</g>
	<text transform="matrix(1 0 0 1 262.7957 709.2847)" class="st13 st11 st15">FN</text>
</g>
<g>
	<g>
		<g>
			<path class="st14" d="M414.2,685.4c1.6,4.3,5.3,11.3,12.2,17.3"/>
			<g>
				<path class="st10" d="M414.5,686.3l2,0.6l0-0.1l-1.9-2.5c-0.5-0.9-1-1.8-1.5-2.8c0.1,1,0.1,2.1,0.2,3.1l-0.3,3.1l0,0.1
					L414.5,686.3z"/>
			</g>
		</g>
	</g>
	<text transform="matrix(1 0 0 1 432.1721 709.2847)" class="st13 st11 st15">FP</text>
</g>
<g>
	<line x1="226.5" y1="107.7" x2="275.5" y2="107.7"/>
	<g>
		<line class="st16" x1="226.5" y1="107.7" x2="269.3" y2="107.7"/>
		<g>
			<path d="M268,107.7l-1.6-2.7l0.1-0.1l4.4,1.8c1.5,0.3,3.1,0.7,4.6,1c-1.5,0.3-3.1,0.7-4.6,1l-4.4,1.8l-0.1,0L268,107.7z"/>
		</g>
	</g>
</g>
<g>
	<line x1="140.4" y1="229.6" x2="198.8" y2="284.1"/>
	<g>
		<line class="st16" x1="140.4" y1="229.6" x2="194.3" y2="280"/>
		<g>
			<path d="M193.3,279l0.6-3.1l0.1,0l2,4.3c0.9,1.3,1.8,2.6,2.7,3.9c-1.4-0.8-2.7-1.6-4.1-2.4l-4.4-1.7l0-0.1L193.3,279z"/>
		</g>
	</g>
</g>
<g>
	<line x1="253.3" y1="516" x2="253.3" y2="564.5"/>
	<g>
		<line class="st16" x1="253.3" y1="516" x2="253.3" y2="558.4"/>
		<g>
			<path d="M253.3,557.1l2.7-1.6l0.1,0.1l-1.8,4.4c-0.3,1.5-0.7,3.1-1,4.6c-0.3-1.5-0.7-3.1-1-4.6l-1.8-4.4l0-0.1L253.3,557.1z"/>
		</g>
	</g>
</g>
<g>
	<line x1="240.5" y1="516" x2="75" y2="564.5"/>
	<g>
		<line class="st16" x1="240.5" y1="516" x2="80.8" y2="562.8"/>
		<g>
			<path d="M82.1,562.4l2.3,2.1l-0.1,0.1l-4.7-0.4c-1.6,0.1-3.1,0.2-4.7,0.3c1.4-0.8,2.8-1.5,4.1-2.3l3.7-2.9l0.1,0L82.1,562.4z"/>
		</g>
	</g>
</g>
<g>
	<line x1="267.9" y1="516.7" x2="433.1" y2="564.5"/>
	<g>
		<line class="st16" x1="267.9" y1="516.7" x2="427.2" y2="562.8"/>
		<g>
			<path d="M425.9,562.5l-0.8-3.1l0.1,0l3.7,2.9c1.4,0.8,2.8,1.5,4.1,2.3c-1.6-0.1-3.1-0.2-4.7-0.3l-4.7,0.5l-0.1-0.1L425.9,562.5z"
				/>
		</g>
	</g>
</g>
</svg>
