<?xml version="1.0" encoding="UTF-8" standalone="no"?>
<!-- Created with Inkscape (http://www.inkscape.org/) -->

<svg
   version="1.1"
   id="svg2"
   xml:space="preserve"
   width="793.33331"
   height="1122.6667"
   viewBox="0 0 793.33331 1122.6667"
   sodipodi:docname="solver.svg"
   inkscape:version="1.1.1 (3bf5ae0d25, 2021-09-20)"
   xmlns:inkscape="http://www.inkscape.org/namespaces/inkscape"
   xmlns:sodipodi="http://sodipodi.sourceforge.net/DTD/sodipodi-0.dtd"
   xmlns="http://www.w3.org/2000/svg"
   xmlns:svg="http://www.w3.org/2000/svg"><defs
     id="defs6"><clipPath
       clipPathUnits="userSpaceOnUse"
       id="clipPath18"><path
         d="M 0,0 H 1423 V 735.00002 H 0 Z"
         id="path16" /></clipPath></defs><sodipodi:namedview
     id="namedview4"
     pagecolor="#ffffff"
     bordercolor="#666666"
     borderopacity="1.0"
     inkscape:pageshadow="2"
     inkscape:pageopacity="0.0"
     inkscape:pagecheckerboard="0"
     showgrid="false"
     inkscape:zoom="0.77761277"
     inkscape:cx="396.08403"
     inkscape:cy="561.33337"
     inkscape:window-width="1920"
     inkscape:window-height="1009"
     inkscape:window-x="3432"
     inkscape:window-y="344"
     inkscape:window-maximized="1"
     inkscape:current-layer="g10" /><g
     id="g8"
     inkscape:groupmode="layer"
     inkscape:label="solver"
     transform="matrix(1.3333333,0,0,-1.3333333,0,1122.6667)"><g
       id="g10"
       transform="matrix(0.125,0,0,-0.125,0,842)"><g
         id="g30"
         transform="matrix(6,0,0,6,-1887.8977,1162.559)"><path
           d="M 185,654 H 1288"
           style="fill:none;stroke:#262626;stroke-width:0.666667;stroke-linecap:square;stroke-linejoin:round;stroke-miterlimit:10;stroke-dasharray:none;stroke-opacity:1"
           id="path32" /></g><g
         id="g34"
         transform="matrix(6,0,0,6,-1887.8977,1162.559)"><path
           d="M 185,55.000019 H 1288"
           style="fill:none;stroke:#262626;stroke-width:0.666667;stroke-linecap:square;stroke-linejoin:round;stroke-miterlimit:10;stroke-dasharray:none;stroke-opacity:1"
           id="path36" /></g><g
         id="g38"
         transform="matrix(6,0,0,6,-1887.8977,1162.559)"><path
           d="M 185,654 V 642.96997"
           style="fill:none;stroke:#262626;stroke-width:0.666667;stroke-linecap:square;stroke-linejoin:round;stroke-miterlimit:10;stroke-dasharray:none;stroke-opacity:1"
           id="path40" /></g><g
         id="g42"
         transform="matrix(6,0,0,6,-1887.8977,1162.559)"><path
           d="M 342.57144,654 V 642.96997"
           style="fill:none;stroke:#262626;stroke-width:0.666667;stroke-linecap:square;stroke-linejoin:round;stroke-miterlimit:10;stroke-dasharray:none;stroke-opacity:1"
           id="path44" /></g><g
         id="g46"
         transform="matrix(6,0,0,6,-1887.8977,1162.559)"><path
           d="M 500.14285,654 V 642.96997"
           style="fill:none;stroke:#262626;stroke-width:0.666667;stroke-linecap:square;stroke-linejoin:round;stroke-miterlimit:10;stroke-dasharray:none;stroke-opacity:1"
           id="path48" /></g><g
         id="g50"
         transform="matrix(6,0,0,6,-1887.8977,1162.559)"><path
           d="M 657.71429,654 V 642.96997"
           style="fill:none;stroke:#262626;stroke-width:0.666667;stroke-linecap:square;stroke-linejoin:round;stroke-miterlimit:10;stroke-dasharray:none;stroke-opacity:1"
           id="path52" /></g><g
         id="g54"
         transform="matrix(6,0,0,6,-1887.8977,1162.559)"><path
           d="M 815.28571,654 V 642.96997"
           style="fill:none;stroke:#262626;stroke-width:0.666667;stroke-linecap:square;stroke-linejoin:round;stroke-miterlimit:10;stroke-dasharray:none;stroke-opacity:1"
           id="path56" /></g><g
         id="g58"
         transform="matrix(6,0,0,6,-1887.8977,1162.559)"><path
           d="M 972.85712,654 V 642.96997"
           style="fill:none;stroke:#262626;stroke-width:0.666667;stroke-linecap:square;stroke-linejoin:round;stroke-miterlimit:10;stroke-dasharray:none;stroke-opacity:1"
           id="path60" /></g><g
         id="g62"
         transform="matrix(6,0,0,6,-1887.8977,1162.559)"><path
           d="M 1130.4286,654 V 642.96997"
           style="fill:none;stroke:#262626;stroke-width:0.666667;stroke-linecap:square;stroke-linejoin:round;stroke-miterlimit:10;stroke-dasharray:none;stroke-opacity:1"
           id="path64" /></g><g
         id="g66"
         transform="matrix(6,0,0,6,-1887.8977,1162.559)"><path
           d="M 1288,654 V 642.96997"
           style="fill:none;stroke:#262626;stroke-width:0.666667;stroke-linecap:square;stroke-linejoin:round;stroke-miterlimit:10;stroke-dasharray:none;stroke-opacity:1"
           id="path68" /></g><g
         id="g70"
         transform="matrix(6,0,0,6,-1887.8977,1162.559)"><path
           d="M 185,55.000019 V 66.030006"
           style="fill:none;stroke:#262626;stroke-width:0.666667;stroke-linecap:square;stroke-linejoin:round;stroke-miterlimit:10;stroke-dasharray:none;stroke-opacity:1"
           id="path72" /></g><g
         id="g74"
         transform="matrix(6,0,0,6,-1887.8977,1162.559)"><path
           d="M 342.57144,55.000019 V 66.030006"
           style="fill:none;stroke:#262626;stroke-width:0.666667;stroke-linecap:square;stroke-linejoin:round;stroke-miterlimit:10;stroke-dasharray:none;stroke-opacity:1"
           id="path76" /></g><g
         id="g78"
         transform="matrix(6,0,0,6,-1887.8977,1162.559)"><path
           d="M 500.14285,55.000019 V 66.030006"
           style="fill:none;stroke:#262626;stroke-width:0.666667;stroke-linecap:square;stroke-linejoin:round;stroke-miterlimit:10;stroke-dasharray:none;stroke-opacity:1"
           id="path80" /></g><g
         id="g82"
         transform="matrix(6,0,0,6,-1887.8977,1162.559)"><path
           d="M 657.71429,55.000019 V 66.030006"
           style="fill:none;stroke:#262626;stroke-width:0.666667;stroke-linecap:square;stroke-linejoin:round;stroke-miterlimit:10;stroke-dasharray:none;stroke-opacity:1"
           id="path84" /></g><g
         id="g86"
         transform="matrix(6,0,0,6,-1887.8977,1162.559)"><path
           d="M 815.28571,55.000019 V 66.030006"
           style="fill:none;stroke:#262626;stroke-width:0.666667;stroke-linecap:square;stroke-linejoin:round;stroke-miterlimit:10;stroke-dasharray:none;stroke-opacity:1"
           id="path88" /></g><g
         id="g90"
         transform="matrix(6,0,0,6,-1887.8977,1162.559)"><path
           d="M 972.85712,55.000019 V 66.030006"
           style="fill:none;stroke:#262626;stroke-width:0.666667;stroke-linecap:square;stroke-linejoin:round;stroke-miterlimit:10;stroke-dasharray:none;stroke-opacity:1"
           id="path92" /></g><g
         id="g94"
         transform="matrix(6,0,0,6,-1887.8977,1162.559)"><path
           d="M 1130.4286,55.000019 V 66.030006"
           style="fill:none;stroke:#262626;stroke-width:0.666667;stroke-linecap:square;stroke-linejoin:round;stroke-miterlimit:10;stroke-dasharray:none;stroke-opacity:1"
           id="path96" /></g><g
         id="g98"
         transform="matrix(6,0,0,6,-1887.8977,1162.559)"><path
           d="M 1288,55.000019 V 66.030006"
           style="fill:none;stroke:#262626;stroke-width:0.666667;stroke-linecap:square;stroke-linejoin:round;stroke-miterlimit:10;stroke-dasharray:none;stroke-opacity:1"
           id="path100" /></g><g
         id="g102"><g
           id="g104"
           transform="matrix(6,0,0,6,-777.89771,5118.5588)"><text
             transform="translate(-4,14)"
             style="font-variant:normal;font-weight:normal;font-size:13.333px;font-family:Helvetica;-inkscape-font-specification:Helvetica;writing-mode:lr-tb;fill:#262626;fill-opacity:1;fill-rule:nonzero;stroke:none"
             id="text108"><tspan
               x="0"
               y="0"
               id="tspan106">0</tspan></text></g></g><g
         id="g110"><g
           id="g112"
           transform="matrix(6,0,0,6,167.53094,5118.5588)"><text
             transform="translate(-4,14)"
             style="font-variant:normal;font-weight:normal;font-size:13.333px;font-family:Helvetica;-inkscape-font-specification:Helvetica;writing-mode:lr-tb;fill:#262626;fill-opacity:1;fill-rule:nonzero;stroke:none"
             id="text116"><tspan
               x="0"
               y="0"
               id="tspan114">5</tspan></text></g></g><g
         id="g118"><g
           id="g120"
           transform="matrix(6,0,0,6,1112.9594,5118.5588)"><text
             transform="translate(-7.5,14)"
             style="font-variant:normal;font-weight:normal;font-size:13.333px;font-family:Helvetica;-inkscape-font-specification:Helvetica;writing-mode:lr-tb;fill:#262626;fill-opacity:1;fill-rule:nonzero;stroke:none"
             id="text124"><tspan
               x="0 7.4131479"
               y="0"
               sodipodi:role="line"
               id="tspan122">10</tspan></text></g></g><g
         id="g126"><g
           id="g128"
           transform="matrix(6,0,0,6,2058.3881,5118.5588)"><text
             transform="translate(-7.5,14)"
             style="font-variant:normal;font-weight:normal;font-size:13.333px;font-family:Helvetica;-inkscape-font-specification:Helvetica;writing-mode:lr-tb;fill:#262626;fill-opacity:1;fill-rule:nonzero;stroke:none"
             id="text132"><tspan
               x="0 7.4131479"
               y="0"
               sodipodi:role="line"
               id="tspan130">15</tspan></text></g></g><g
         id="g134"><g
           id="g136"
           transform="matrix(6,0,0,6,3003.8165,5118.5588)"><text
             transform="translate(-7.5,14)"
             style="font-variant:normal;font-weight:normal;font-size:13.333px;font-family:Helvetica;-inkscape-font-specification:Helvetica;writing-mode:lr-tb;fill:#262626;fill-opacity:1;fill-rule:nonzero;stroke:none"
             id="text140"><tspan
               x="0 7.4131479"
               y="0"
               sodipodi:role="line"
               id="tspan138">20</tspan></text></g></g><g
         id="g142"><g
           id="g144"
           transform="matrix(6,0,0,6,3949.245,5118.5588)"><text
             transform="translate(-7.5,14)"
             style="font-variant:normal;font-weight:normal;font-size:13.333px;font-family:Helvetica;-inkscape-font-specification:Helvetica;writing-mode:lr-tb;fill:#262626;fill-opacity:1;fill-rule:nonzero;stroke:none"
             id="text148"><tspan
               x="0 7.4131479"
               y="0"
               sodipodi:role="line"
               id="tspan146">25</tspan></text></g></g><g
         id="g150"><g
           id="g152"
           transform="matrix(6,0,0,6,4894.6738,5118.5588)"><text
             transform="translate(-7.5,14)"
             style="font-variant:normal;font-weight:normal;font-size:13.333px;font-family:Helvetica;-inkscape-font-specification:Helvetica;writing-mode:lr-tb;fill:#262626;fill-opacity:1;fill-rule:nonzero;stroke:none"
             id="text156"><tspan
               x="0 7.4131479"
               y="0"
               sodipodi:role="line"
               id="tspan154">30</tspan></text></g></g><g
         id="g158"><g
           id="g160"
           transform="matrix(6,0,0,6,5840.1023,5118.5588)"><text
             transform="translate(-7.5,14)"
             style="font-variant:normal;font-weight:normal;font-size:13.333px;font-family:Helvetica;-inkscape-font-specification:Helvetica;writing-mode:lr-tb;fill:#262626;fill-opacity:1;fill-rule:nonzero;stroke:none"
             id="text164"><tspan
               x="0 7.4131479"
               y="0"
               sodipodi:role="line"
               id="tspan162">35</tspan></text></g></g><g
         id="g166"
         transform="matrix(6,0,0,6,-1887.8977,1162.559)"><path
           d="M 185,654 V 55.000019"
           style="fill:none;stroke:#262626;stroke-width:0.666667;stroke-linecap:square;stroke-linejoin:round;stroke-miterlimit:10;stroke-dasharray:none;stroke-opacity:1"
           id="path168" /></g><g
         id="g170"
         transform="matrix(6,0,0,6,-1887.8977,1162.559)"><path
           d="M 1288,654 V 55.000019"
           style="fill:none;stroke:#262626;stroke-width:0.666667;stroke-linecap:square;stroke-linejoin:round;stroke-miterlimit:10;stroke-dasharray:none;stroke-opacity:1"
           id="path172" /></g><g
         id="g174"
         transform="matrix(6,0,0,6,-1887.8977,1162.559)"><path
           d="m 185,654 h 11.03"
           style="fill:none;stroke:#262626;stroke-width:0.666667;stroke-linecap:square;stroke-linejoin:round;stroke-miterlimit:10;stroke-dasharray:none;stroke-opacity:1"
           id="path176" /></g><g
         id="g178"
         transform="matrix(6,0,0,6,-1887.8977,1162.559)"><path
           d="m 185,568.42859 h 11.03"
           style="fill:none;stroke:#262626;stroke-width:0.666667;stroke-linecap:square;stroke-linejoin:round;stroke-miterlimit:10;stroke-dasharray:none;stroke-opacity:1"
           id="path180" /></g><g
         id="g182"
         transform="matrix(6,0,0,6,-1887.8977,1162.559)"><path
           d="m 185,482.85715 h 11.03"
           style="fill:none;stroke:#262626;stroke-width:0.666667;stroke-linecap:square;stroke-linejoin:round;stroke-miterlimit:10;stroke-dasharray:none;stroke-opacity:1"
           id="path184" /></g><g
         id="g186"
         transform="matrix(6,0,0,6,-1887.8977,1162.559)"><path
           d="m 185,397.28571 h 11.03"
           style="fill:none;stroke:#262626;stroke-width:0.666667;stroke-linecap:square;stroke-linejoin:round;stroke-miterlimit:10;stroke-dasharray:none;stroke-opacity:1"
           id="path188" /></g><g
         id="g190"
         transform="matrix(6,0,0,6,-1887.8977,1162.559)"><path
           d="m 185,311.71426 h 11.03"
           style="fill:none;stroke:#262626;stroke-width:0.666667;stroke-linecap:square;stroke-linejoin:round;stroke-miterlimit:10;stroke-dasharray:none;stroke-opacity:1"
           id="path192" /></g><g
         id="g194"
         transform="matrix(6,0,0,6,-1887.8977,1162.559)"><path
           d="m 185,226.14287 h 11.03"
           style="fill:none;stroke:#262626;stroke-width:0.666667;stroke-linecap:square;stroke-linejoin:round;stroke-miterlimit:10;stroke-dasharray:none;stroke-opacity:1"
           id="path196" /></g><g
         id="g198"
         transform="matrix(6,0,0,6,-1887.8977,1162.559)"><path
           d="m 185,140.57141 h 11.03"
           style="fill:none;stroke:#262626;stroke-width:0.666667;stroke-linecap:square;stroke-linejoin:round;stroke-miterlimit:10;stroke-dasharray:none;stroke-opacity:1"
           id="path200" /></g><g
         id="g202"
         transform="matrix(6,0,0,6,-1887.8977,1162.559)"><path
           d="m 185,55.000019 h 11.03"
           style="fill:none;stroke:#262626;stroke-width:0.666667;stroke-linecap:square;stroke-linejoin:round;stroke-miterlimit:10;stroke-dasharray:none;stroke-opacity:1"
           id="path204" /></g><g
         id="g206"
         transform="matrix(6,0,0,6,-1887.8977,1162.559)"><path
           d="m 1288,654 h -11.0299"
           style="fill:none;stroke:#262626;stroke-width:0.666667;stroke-linecap:square;stroke-linejoin:round;stroke-miterlimit:10;stroke-dasharray:none;stroke-opacity:1"
           id="path208" /></g><g
         id="g210"
         transform="matrix(6,0,0,6,-1887.8977,1162.559)"><path
           d="m 1288,568.42859 h -11.0299"
           style="fill:none;stroke:#262626;stroke-width:0.666667;stroke-linecap:square;stroke-linejoin:round;stroke-miterlimit:10;stroke-dasharray:none;stroke-opacity:1"
           id="path212" /></g><g
         id="g214"
         transform="matrix(6,0,0,6,-1887.8977,1162.559)"><path
           d="m 1288,482.85715 h -11.0299"
           style="fill:none;stroke:#262626;stroke-width:0.666667;stroke-linecap:square;stroke-linejoin:round;stroke-miterlimit:10;stroke-dasharray:none;stroke-opacity:1"
           id="path216" /></g><g
         id="g218"
         transform="matrix(6,0,0,6,-1887.8977,1162.559)"><path
           d="m 1288,397.28571 h -11.0299"
           style="fill:none;stroke:#262626;stroke-width:0.666667;stroke-linecap:square;stroke-linejoin:round;stroke-miterlimit:10;stroke-dasharray:none;stroke-opacity:1"
           id="path220" /></g><g
         id="g222"
         transform="matrix(6,0,0,6,-1887.8977,1162.559)"><path
           d="m 1288,311.71426 h -11.0299"
           style="fill:none;stroke:#262626;stroke-width:0.666667;stroke-linecap:square;stroke-linejoin:round;stroke-miterlimit:10;stroke-dasharray:none;stroke-opacity:1"
           id="path224" /></g><g
         id="g226"
         transform="matrix(6,0,0,6,-1887.8977,1162.559)"><path
           d="m 1288,226.14287 h -11.0299"
           style="fill:none;stroke:#262626;stroke-width:0.666667;stroke-linecap:square;stroke-linejoin:round;stroke-miterlimit:10;stroke-dasharray:none;stroke-opacity:1"
           id="path228" /></g><g
         id="g230"
         transform="matrix(6,0,0,6,-1887.8977,1162.559)"><path
           d="m 1288,140.57141 h -11.0299"
           style="fill:none;stroke:#262626;stroke-width:0.666667;stroke-linecap:square;stroke-linejoin:round;stroke-miterlimit:10;stroke-dasharray:none;stroke-opacity:1"
           id="path232" /></g><g
         id="g234"
         transform="matrix(6,0,0,6,-1887.8977,1162.559)"><path
           d="m 1288,55.000019 h -11.0299"
           style="fill:none;stroke:#262626;stroke-width:0.666667;stroke-linecap:square;stroke-linejoin:round;stroke-miterlimit:10;stroke-dasharray:none;stroke-opacity:1"
           id="path236" /></g><g
         id="g238"><g
           id="g240"
           transform="matrix(6,0,0,6,-809.89767,5086.559)"><text
             transform="translate(-19,5.5)"
             style="font-variant:normal;font-weight:normal;font-size:13.333px;font-family:Helvetica;-inkscape-font-specification:Helvetica;writing-mode:lr-tb;fill:#262626;fill-opacity:1;fill-rule:nonzero;stroke:none"
             id="text244"><tspan
               x="0 7.4131479 11.119722"
               y="0"
               sodipodi:role="line"
               id="tspan242">0.2</tspan></text></g></g><g
         id="g246"><g
           id="g248"
           transform="matrix(6,0,0,6,-809.89767,4573.1305)"><text
             transform="translate(-19,5.5)"
             style="font-variant:normal;font-weight:normal;font-size:13.333px;font-family:Helvetica;-inkscape-font-specification:Helvetica;writing-mode:lr-tb;fill:#262626;fill-opacity:1;fill-rule:nonzero;stroke:none"
             id="text252"><tspan
               x="0 7.4131479 11.119722"
               y="0"
               sodipodi:role="line"
               id="tspan250">0.3</tspan></text></g></g><g
         id="g254"><g
           id="g256"
           transform="matrix(6,0,0,6,-809.89767,4059.7018)"><text
             transform="translate(-19,5.5)"
             style="font-variant:normal;font-weight:normal;font-size:13.333px;font-family:Helvetica;-inkscape-font-specification:Helvetica;writing-mode:lr-tb;fill:#262626;fill-opacity:1;fill-rule:nonzero;stroke:none"
             id="text260"><tspan
               x="0 7.4131479 11.119722"
               y="0"
               sodipodi:role="line"
               id="tspan258">0.4</tspan></text></g></g><g
         id="g262"><g
           id="g264"
           transform="matrix(6,0,0,6,-809.89767,3546.2732)"><text
             transform="translate(-19,5.5)"
             style="font-variant:normal;font-weight:normal;font-size:13.333px;font-family:Helvetica;-inkscape-font-specification:Helvetica;writing-mode:lr-tb;fill:#262626;fill-opacity:1;fill-rule:nonzero;stroke:none"
             id="text268"><tspan
               x="0 7.4131479 11.119722"
               y="0"
               sodipodi:role="line"
               id="tspan266">0.5</tspan></text></g></g><g
         id="g270"><g
           id="g272"
           transform="matrix(6,0,0,6,-809.89767,3032.8445)"><text
             transform="translate(-19,5.5)"
             style="font-variant:normal;font-weight:normal;font-size:13.333px;font-family:Helvetica;-inkscape-font-specification:Helvetica;writing-mode:lr-tb;fill:#262626;fill-opacity:1;fill-rule:nonzero;stroke:none"
             id="text276"><tspan
               x="0 7.4131479 11.119722"
               y="0"
               sodipodi:role="line"
               id="tspan274">0.6</tspan></text></g></g><g
         id="g278"><g
           id="g280"
           transform="matrix(6,0,0,6,-809.89767,2519.4162)"><text
             transform="translate(-19,5.5)"
             style="font-variant:normal;font-weight:normal;font-size:13.333px;font-family:Helvetica;-inkscape-font-specification:Helvetica;writing-mode:lr-tb;fill:#262626;fill-opacity:1;fill-rule:nonzero;stroke:none"
             id="text284"><tspan
               x="0 7.4131479 11.119722"
               y="0"
               sodipodi:role="line"
               id="tspan282">0.7</tspan></text></g></g><g
         id="g286"><g
           id="g288"
           transform="matrix(6,0,0,6,-809.89767,2005.9874)"><text
             transform="translate(-19,5.5)"
             style="font-variant:normal;font-weight:normal;font-size:13.333px;font-family:Helvetica;-inkscape-font-specification:Helvetica;writing-mode:lr-tb;fill:#262626;fill-opacity:1;fill-rule:nonzero;stroke:none"
             id="text292"><tspan
               x="0 7.4131479 11.119722"
               y="0"
               sodipodi:role="line"
               id="tspan290">0.8</tspan></text></g></g><g
         id="g294"><g
           id="g296"
           transform="matrix(6,0,0,6,-809.89767,1492.5591)"><text
             transform="translate(-19,5.5)"
             style="font-variant:normal;font-weight:normal;font-size:13.333px;font-family:Helvetica;-inkscape-font-specification:Helvetica;writing-mode:lr-tb;fill:#262626;fill-opacity:1;fill-rule:nonzero;stroke:none"
             id="text300"><tspan
               x="0 7.4131479 11.119722"
               y="0"
               sodipodi:role="line"
               id="tspan298">0.9</tspan></text></g></g><g
         id="g302"
         transform="matrix(6,0,0,6,-1887.8977,1162.559)"><path
           d="m 216.51428,336.43521 31.51428,-75.14969 31.51429,61.20658 31.51428,-63.52332 31.51431,109.50018 31.51428,-41.52932 31.51429,0.0688 31.51428,16.39005 31.51428,-31.60349 31.51428,200.27915 31.51432,-243.93439 31.51428,36.53766 31.51428,128.4862 31.51428,-121.35305 31.51428,104.15002 31.51429,-0.0589 31.51428,4.76206 31.51428,-156.86557 31.51428,201.69748 31.51429,-47.96521 31.51428,-202.4 31.51428,32.93393 31.51428,87.58701 31.51428,-117.29715 31.51429,121.23623 31.51428,-203.51753 31.5143,19.26508 31.5143,29.77487 31.5143,286.68193 31.5143,-365.46941 31.5143,32.76757 31.5143,79.70311 31.5142,148.81587 31.5143,10.12802"
           style="fill:none;stroke:#0072bd;stroke-width:0.666667;stroke-linecap:butt;stroke-linejoin:round;stroke-miterlimit:10;stroke-dasharray:none;stroke-opacity:1"
           id="path304" /></g><g
         id="g306"
         transform="matrix(6,0,0,6,-1887.8977,1162.559)"><path
           d="m 216.51428,230.83125 31.51428,63.57009 31.51429,-94.24784 31.51428,5.9637 31.51431,12.88845 31.51428,36.97753 31.51429,56.54654 31.51428,-46.63238 31.51428,3.8259 31.51428,174.27847 31.51432,-228.78998 31.51428,15.53716 31.51428,230.64524 31.51428,-127.9375 31.51428,-16.31109 31.51429,-19.92319 31.51428,7.69669 31.51428,-93.0044 31.51428,215.42377 31.51429,-97.53613 31.51428,-68.16913 31.51428,103.60946 31.51428,-44.1557 31.51428,55.11914 31.51429,-80.09753 31.51428,-179.4314 31.5143,43.93348 31.5143,11.19625 31.5143,458.23154 31.5143,-505.15913 31.5143,-7.15691 31.5143,237.86841 31.5142,171.30731 31.5143,-21.26864"
           style="fill:none;stroke:#d95319;stroke-width:0.666667;stroke-linecap:butt;stroke-linejoin:round;stroke-miterlimit:10;stroke-dasharray:none;stroke-opacity:1"
           id="path308" /></g><g
         id="g310"
         transform="matrix(6,0,0,6,-1887.8977,1162.559)"><path
           d="m 216.51428,331.88663 31.51428,2.65252 31.51429,-69.60568 31.51428,-36.47214 31.51431,161.28434 31.51428,-152.59607 31.51429,63.31582 31.51428,-52.289 31.51428,129.75727 31.51428,-39.61005 31.51432,-90.29886 31.51428,21.54703 31.51428,230.28497 31.51428,-112.92642 31.51428,-36.42606 31.51429,61.34146 31.51428,-1.79058 31.51428,-198.50263 31.51428,313.97406 31.51429,-159.30087 31.51428,-132.25331 31.51428,138.3791 31.51428,-100.60232 31.51428,0.68661 31.51429,62.28104 31.51428,-165.27156 31.5143,92.41639 31.5143,-97.19853 31.5143,458.45238 31.5143,-517.30917 31.5143,23.80799 31.5143,174.1689 31.5142,36.13184 31.5143,93.9725"
           style="fill:none;stroke:#77ac30;stroke-width:0.666667;stroke-linecap:butt;stroke-linejoin:round;stroke-miterlimit:10;stroke-dasharray:none;stroke-opacity:1"
           id="path312" /></g><g
         id="g314"
         transform="matrix(6,0,0,6,-1887.8977,1162.559)"><path
           d="M 185,311.78479 H 1256.4857"
           style="fill:none;stroke:#0072bd;stroke-width:0.666667;stroke-linecap:butt;stroke-linejoin:bevel;stroke-miterlimit:1;stroke-dasharray:10, 6;stroke-dashoffset:0;stroke-opacity:1"
           id="path316" /></g><g
         id="g318"
         transform="matrix(6,0,0,6,-1887.8977,1162.559)"><path
           d="M 185,298.76257 H 1256.4857"
           style="fill:none;stroke:#d95319;stroke-width:0.666667;stroke-linecap:butt;stroke-linejoin:bevel;stroke-miterlimit:1;stroke-dasharray:10, 6;stroke-dashoffset:0;stroke-opacity:1"
           id="path320" /></g><g
         id="g322"
         transform="matrix(6,0,0,6,-1887.8977,1162.559)"><path
           d="M 185,316.14783 H 1256.4857"
           style="fill:none;stroke:#77ac30;stroke-width:0.666667;stroke-linecap:butt;stroke-linejoin:bevel;stroke-miterlimit:1;stroke-dasharray:10, 6;stroke-dashoffset:0;stroke-opacity:1"
           id="path324" /></g><g
         id="g326"
         transform="matrix(6,0,0,6,-1887.8977,1162.559)"><path
           d="M 317,603 V 500 h -96 v 103 z"
           style="fill:#ffffff;fill-opacity:1;fill-rule:nonzero;stroke:none"
           id="path328" /></g><g
         id="g330"><g
           id="g332"
           transform="matrix(6,0,0,6,-279.89771,4222.8517)"><text
             transform="translate(0,5)"
             style="font-variant:normal;font-weight:normal;font-size:12px;font-family:Helvetica;-inkscape-font-specification:Helvetica;writing-mode:lr-tb;fill:#000000;fill-opacity:1;fill-rule:nonzero;stroke:none"
             id="text336"><tspan
               x="0 6 12.672 19.344"
               y="0"
               sodipodi:role="line"
               id="tspan334">sdgm</tspan></text></g></g><g
         id="g338"
         transform="matrix(6,0,0,6,-1887.8977,1162.559)"><path
           d="m 225,510.04877 h 40"
           style="fill:none;stroke:#0072bd;stroke-width:0.666667;stroke-linecap:butt;stroke-linejoin:round;stroke-miterlimit:10;stroke-dasharray:none;stroke-opacity:1"
           id="path340" /></g><g
         id="g342"><g
           id="g344"
           transform="matrix(6,0,0,6,-279.89771,4322.3346)"><text
             transform="translate(0,5)"
             style="font-variant:normal;font-weight:normal;font-size:12px;font-family:Helvetica;-inkscape-font-specification:Helvetica;writing-mode:lr-tb;fill:#000000;fill-opacity:1;fill-rule:nonzero;stroke:none"
             id="text348"><tspan
               x="0 6.6719999 13.344 20.016001"
               y="0"
               sodipodi:role="line"
               id="tspan346">adam</tspan></text></g></g><g
         id="g350"
         transform="matrix(6,0,0,6,-1887.8977,1162.559)"><path
           d="m 225,526.62927 h 40"
           style="fill:none;stroke:#d95319;stroke-width:0.666667;stroke-linecap:butt;stroke-linejoin:round;stroke-miterlimit:10;stroke-dasharray:none;stroke-opacity:1"
           id="path352" /></g><g
         id="g354"><g
           id="g356"
           transform="matrix(6,0,0,6,-279.89771,4421.8176)"><text
             transform="translate(0,5)"
             style="font-variant:normal;font-weight:normal;font-size:12px;font-family:Helvetica;-inkscape-font-specification:Helvetica;writing-mode:lr-tb;fill:#000000;fill-opacity:1;fill-rule:nonzero;stroke:none"
             id="text360"><tspan
               x="0 3.9960001 13.992 19.992001 26.664 30.66 37.332001"
               y="0"
               sodipodi:role="line"
               id="tspan358">rmsprop</tspan></text></g></g><g
         id="g362"
         transform="matrix(6,0,0,6,-1887.8977,1162.559)"><path
           d="m 225,543.20978 h 40"
           style="fill:none;stroke:#77ac30;stroke-width:0.666667;stroke-linecap:butt;stroke-linejoin:round;stroke-miterlimit:10;stroke-dasharray:none;stroke-opacity:1"
           id="path364" /></g><g
         id="g366"><g
           id="g368"
           transform="matrix(6,0,0,6,-279.89771,4521.3003)"><text
             transform="translate(0,5)"
             style="font-variant:normal;font-weight:normal;font-size:12px;font-family:Helvetica;-inkscape-font-specification:Helvetica;writing-mode:lr-tb;fill:#000000;fill-opacity:1;fill-rule:nonzero;stroke:none"
             id="text372"><tspan
               x="0 6.6719999 10.008 16.68 23.351999 30.024 36.695999"
               y="0"
               sodipodi:role="line"
               id="tspan370">0.59992</tspan></text></g></g><g
         id="g374"
         transform="matrix(6,0,0,6,-1887.8977,1162.559)"><path
           d="m 225,559.79022 h 40"
           style="fill:none;stroke:#0072bd;stroke-width:0.666667;stroke-linecap:butt;stroke-linejoin:bevel;stroke-miterlimit:1;stroke-dasharray:10, 6;stroke-dashoffset:0;stroke-opacity:1"
           id="path376" /></g><g
         id="g378"><g
           id="g380"
           transform="matrix(6,0,0,6,-279.89771,4620.7833)"><text
             transform="translate(0,5)"
             style="font-variant:normal;font-weight:normal;font-size:12px;font-family:Helvetica;-inkscape-font-specification:Helvetica;writing-mode:lr-tb;fill:#000000;fill-opacity:1;fill-rule:nonzero;stroke:none"
             id="text384"><tspan
               x="0 6.6719999 10.008 16.68 23.351999 30.024 36.695999"
               y="0"
               sodipodi:role="line"
               id="tspan382">0.61514</tspan></text></g></g><g
         id="g386"
         transform="matrix(6,0,0,6,-1887.8977,1162.559)"><path
           d="m 225,576.37073 h 40"
           style="fill:none;stroke:#d95319;stroke-width:0.666667;stroke-linecap:butt;stroke-linejoin:bevel;stroke-miterlimit:1;stroke-dasharray:10, 6;stroke-dashoffset:0;stroke-opacity:1"
           id="path388" /></g><g
         id="g390"><g
           id="g392"
           transform="matrix(6,0,0,6,-279.89771,4720.2664)"><text
             transform="translate(0,5)"
             style="font-variant:normal;font-weight:normal;font-size:12px;font-family:Helvetica;-inkscape-font-specification:Helvetica;writing-mode:lr-tb;fill:#000000;fill-opacity:1;fill-rule:nonzero;stroke:none"
             id="text396"><tspan
               x="0 6.6719999 10.008 16.68 23.351999 30.024 36.695999"
               y="0"
               sodipodi:role="line"
               id="tspan394">0.59482</tspan></text></g></g><g
         id="g398"
         transform="matrix(6,0,0,6,-1887.8977,1162.559)"><path
           d="m 225,592.95123 h 40"
           style="fill:none;stroke:#77ac30;stroke-width:0.666667;stroke-linecap:butt;stroke-linejoin:bevel;stroke-miterlimit:1;stroke-dasharray:10, 6;stroke-dashoffset:0;stroke-opacity:1"
           id="path400" /></g><g
         id="g402"
         transform="matrix(6,0,0,6,-1887.8977,1162.559)"><path
           d="M 221,603 V 500 h 96 v 103 z"
           style="fill:none;stroke:#262626;stroke-width:0.666667;stroke-linecap:butt;stroke-linejoin:miter;stroke-miterlimit:10;stroke-dasharray:none;stroke-opacity:1"
           id="path404" /></g></g></g></svg>
